<svg width="35" height="36" viewBox="0 0 35 36" fill="none" xmlns="http://www.w3.org/2000/svg">
<path d="M5.63684 11.75C6.05607 11.75 6.47525 11.75 6.89447 11.75C6.91846 11.7624 6.94152 11.7831 6.9666 11.786C8.03633 11.9077 9.00962 12.2829 9.89534 12.9019C9.95482 12.9434 10.1021 12.9201 10.1725 12.8724C10.798 12.449 11.4696 12.1312 12.1994 11.9459C12.5058 11.8681 12.8183 11.8146 13.128 11.75C13.5473 11.75 13.9664 11.75 14.3857 11.75C14.4097 11.7624 14.4327 11.7831 14.4578 11.786C15.5281 11.9067 16.4985 12.2897 17.3868 12.9021C17.4473 12.9438 17.5945 12.9215 17.6648 12.8737C18.2356 12.4862 18.8455 12.1831 19.5072 11.9977C19.8724 11.8954 20.2482 11.8313 20.6192 11.75C21.0384 11.75 21.4576 11.75 21.8768 11.75C21.9006 11.7627 21.9234 11.7839 21.9483 11.7868C23.0179 11.9092 23.9893 12.2905 24.8785 12.9011C24.9393 12.9429 25.0861 12.9218 25.156 12.8744C25.7273 12.4877 26.3368 12.1836 26.9986 11.9983C27.3638 11.896 27.7394 11.8316 28.1103 11.7501C28.5295 11.7501 28.9487 11.7501 29.3679 11.7501C29.4281 11.7679 29.4871 11.7948 29.5484 11.8024C32.039 12.1111 34.118 13.9215 34.7814 16.3706C34.8719 16.7049 34.9279 17.0486 34.9999 17.388C34.9999 17.8118 34.9999 18.2356 34.9999 18.6594C34.9826 18.7 34.9549 18.7392 34.9494 18.7814C34.3461 23.3994 29.1166 25.7873 25.2309 23.159C25.0461 23.034 24.9373 23.0382 24.7595 23.1587C22.5985 24.6232 19.8222 24.6129 17.6974 23.1315C17.5356 23.0186 17.4402 23.0428 17.2943 23.1416C15.1066 24.6223 12.3776 24.6194 10.2068 23.1336C10.0674 23.0381 9.97519 23.0209 9.8265 23.1227C8.49904 24.0317 7.03933 24.3782 5.44297 24.1915C2.57486 23.8561 0.216221 21.3765 0.0150674 18.4601C-0.181102 15.6158 1.55512 12.9845 4.2372 12.0907C4.69143 11.9393 5.16969 11.8617 5.63684 11.75ZM9.00174 22.065C8.0205 20.8926 7.49941 19.5427 7.49837 17.9999C7.49733 16.4499 8.02434 15.094 9.00968 13.9171C7.20565 12.6303 4.28381 12.7112 2.48608 14.8067C0.807796 16.7631 0.92828 19.6545 2.76029 21.481C4.64751 23.3627 7.43008 23.2422 9.00174 22.065ZM26.0026 22.0794C27.7708 23.3529 30.725 23.3067 32.5367 21.1647C34.235 19.1567 34.0623 16.2346 32.1429 14.4153C30.2256 12.5979 27.4733 12.8019 26.0152 13.9273C28.019 16.2186 28.0445 19.7002 26.0026 22.0794ZM16.4685 22.0921C14.4358 19.3393 14.4615 16.6194 16.4768 13.8972C14.8495 12.7175 12.4057 12.8584 11.0252 13.925C12.9353 16.1357 13.1068 19.6323 11.0293 22.074C12.4996 23.1778 14.9046 23.2359 16.4685 22.0921ZM18.51 13.9206C20.357 15.9911 20.7116 19.5199 18.5243 22.0758C20.1086 23.275 22.6595 23.1448 23.9756 22.0552C22.0681 19.8846 21.8499 16.419 23.9798 13.9189C22.5708 12.8231 20.109 12.7496 18.51 13.9206ZM10.0038 14.8037C8.20715 16.8136 8.60096 19.7892 10.028 21.175C11.7416 19.2762 11.4987 16.4102 10.0038 14.8037ZM24.9903 14.8041C23.254 16.7473 23.5208 19.6623 25.0038 21.1772C26.615 19.4293 26.5952 16.5359 24.9903 14.8041ZM17.5112 14.8061C15.7929 16.6359 15.9872 19.6602 17.5194 21.1767C19.1012 19.4949 19.1041 16.5471 17.5112 14.8061Z" fill="#1D252D"/>
</svg>
