<svg width="35" height="36" viewBox="0 0 35 36" fill="none" xmlns="http://www.w3.org/2000/svg">
<path d="M17.1427 35.4997C17.0993 35.4881 17.0563 35.4692 17.0122 35.4659C16.7794 35.4488 16.5458 35.4399 16.3131 35.4202C15.9278 35.3875 15.5413 35.361 15.1581 35.3101C14.4533 35.2162 13.7552 35.0819 13.0675 34.9002C10.9184 34.3329 8.93834 33.4048 7.15364 32.0784C3.89923 29.6596 1.71355 26.4995 0.618444 22.5926C0.372278 21.7142 0.211007 20.8194 0.10798 19.9126C0.00138201 18.9758 -0.0245807 18.0363 0.0225368 17.0973C0.135729 14.8377 0.645918 12.6682 1.6222 10.6245C3.7326 6.20703 7.09649 3.15524 11.6985 1.47583C12.7105 1.10648 13.7548 0.855754 14.8209 0.695791C15.3669 0.613819 15.9139 0.542694 16.4662 0.527865C17.047 0.512212 17.6286 0.489144 18.2088 0.505758C18.6969 0.519626 19.1843 0.57908 19.6707 0.630433C20.4581 0.713504 21.2323 0.870583 21.9962 1.07654C25.241 1.95147 28.0127 3.61824 30.3031 6.07411C32.3078 8.22379 33.6795 10.7275 34.4252 13.5714C34.6508 14.4315 34.8136 15.3038 34.8901 16.1902C34.9243 16.5869 34.9356 16.9856 34.9607 17.3831C34.967 17.4842 34.9865 17.5844 35 17.6851C35 17.8902 35 18.0954 35 18.3006C34.9865 18.3899 34.9666 18.4786 34.9609 18.5682C34.9357 18.9657 34.9229 19.3642 34.8905 19.7612C34.8301 20.4996 34.7051 21.2291 34.5324 21.9489C33.6009 25.8318 31.5861 29.0404 28.4963 31.5677C26.5508 33.1588 24.3496 34.2586 21.9199 34.9004C21.2322 35.082 20.5343 35.2166 19.8295 35.31C19.4465 35.3608 19.0602 35.388 18.6749 35.4202C18.4253 35.4412 18.1746 35.4511 17.9248 35.4688C17.8804 35.472 17.837 35.4892 17.793 35.5C17.5761 35.4997 17.3595 35.4997 17.1427 35.4997ZM17.4854 34.3719C26.7036 34.3439 33.8723 26.8822 33.8925 18.0148C33.9129 9.11258 26.728 1.59996 17.5096 1.5887C8.43145 1.57758 1.11146 8.90319 1.09511 17.9477C1.07891 26.9852 8.36579 34.3367 17.4854 34.3719Z" fill="#1D252D"/>
<path d="M7.13257 17.9578C7.15702 12.1896 11.8153 7.66358 17.4181 7.62431C23.1619 7.58422 27.8796 12.2553 27.85 18.0487C27.8221 23.5318 23.4281 28.2771 17.6045 28.329C11.7292 28.3815 7.14466 23.6773 7.13257 17.9578ZM27.3081 18.0036C27.3162 17.9377 27.3254 17.8991 27.3251 17.8607C27.3191 17.1865 27.2449 16.5196 27.0983 15.8618C26.3935 12.6989 24.1783 10.0821 21.1739 8.86433C20.3956 8.5488 19.5907 8.32829 18.7544 8.23533C18.4041 8.19647 18.0519 8.17341 17.7002 8.14759C17.6302 8.14251 17.5585 8.15789 17.4744 8.16503C17.4744 8.58821 17.4744 8.99203 17.4744 9.39599C17.4744 9.80626 17.4744 10.2165 17.4744 10.6268C17.4744 11.0315 17.4744 11.436 17.4744 11.8406C17.4744 12.2452 17.4744 12.6498 17.4744 13.0544C17.4744 13.4647 17.4744 13.8749 17.4744 14.2852C17.4744 14.6899 17.4744 15.0944 17.4744 15.499C17.4744 15.9093 17.4758 16.3196 17.474 16.7298C17.4723 17.132 17.4817 17.5345 17.4677 17.9535C17.3685 17.9535 17.2898 17.9535 17.2111 17.9535C14.1211 17.9535 11.0311 17.9535 7.94112 17.9537C7.87848 17.9537 7.81571 17.9542 7.75307 17.9572C7.69166 17.9602 7.66048 17.9953 7.65952 18.0564C7.65869 18.1133 7.65705 18.1703 7.65911 18.2273C7.68397 18.8945 7.75911 19.5555 7.91544 20.2055C8.44884 22.422 9.60782 24.2448 11.3851 25.6695C12.5775 26.6253 13.9255 27.2675 15.424 27.5782C15.846 27.6657 16.2757 27.7198 16.7038 27.7746C16.9234 27.8027 17.1469 27.8024 17.3689 27.8076C17.4902 27.8105 17.5076 27.789 17.5152 27.6712C17.5192 27.6087 17.517 27.5458 17.517 27.4832C17.517 24.4116 17.517 21.3402 17.5175 18.2686C17.5175 18.1854 17.525 18.1021 17.5296 18.0034C20.7956 18.0036 24.0431 18.0036 27.3081 18.0036Z" fill="#1D252D"/>
<path d="M7.80595 11.8369C6.8 10.8898 5.81053 9.95785 4.81461 9.02018C4.87766 8.93917 4.92876 8.87161 4.98192 8.80557C5.57178 8.07262 6.18665 7.36151 6.86443 6.70779C7.03147 6.54659 7.21898 6.40365 7.40992 6.27088C7.67669 6.08524 7.98302 6.05366 8.29485 6.11187C8.69954 6.18739 9.03554 6.57858 9.06082 6.99023C9.06838 7.11394 9.06206 7.23862 9.06206 7.38485C9.11316 7.37208 9.1703 7.35835 9.22704 7.34379C9.87597 7.1771 10.4595 7.54275 10.583 8.1951C10.6274 8.42921 10.5672 8.64725 10.4689 8.85692C10.3463 9.11808 10.1647 9.33695 9.96718 9.54387C9.51084 10.0221 9.05409 10.4998 8.59967 10.9798C8.39197 11.1991 8.18921 11.4229 7.98426 11.6447C7.93027 11.7027 7.87629 11.7608 7.80595 11.8369ZM7.85321 10.5484C7.90953 10.4954 7.95637 10.4557 7.99813 10.4114C8.45901 9.92297 8.91974 9.43443 9.37869 8.94438C9.45246 8.86571 9.5243 8.78346 9.58461 8.69462C9.63173 8.62528 9.6728 8.54647 9.69382 8.46587C9.75948 8.21391 9.58282 7.99697 9.32333 7.99463C9.20286 7.99353 9.10038 8.03761 9.00958 8.10901C8.93815 8.16503 8.87084 8.22723 8.80779 8.29259C8.31051 8.80914 7.81447 9.32692 7.31898 9.84512C7.28917 9.87629 7.26664 9.9146 7.23052 9.9632C7.43932 10.1594 7.64097 10.3489 7.85321 10.5484ZM6.64258 9.40807C6.69464 9.36166 6.73448 9.3309 6.76868 9.29493C7.22708 8.81202 7.68754 8.3309 8.1399 7.84249C8.23468 7.74006 8.31532 7.61717 8.37384 7.49044C8.45131 7.32251 8.39568 7.1366 8.26504 7.02483C8.13207 6.911 7.95733 6.89755 7.79016 7.00094C7.70389 7.05435 7.62367 7.1204 7.54976 7.19042C7.03669 7.67635 6.56565 8.20155 6.11343 8.74378C6.08939 8.77261 6.07442 8.80886 6.04955 8.85143C6.24846 9.03817 6.44174 9.21955 6.64258 9.40807Z" fill="#1D252D"/>
<path d="M15.9151 3.85304C15.9151 3.92457 15.917 3.99611 15.9148 4.06751C15.887 4.94408 15.8587 5.82065 15.8298 6.69722C15.8253 6.83452 15.8087 6.85182 15.6923 6.86693C15.4387 6.89974 15.1854 6.93421 14.9318 6.96634C14.9053 6.96963 14.8774 6.96181 14.8322 6.95728C14.8842 5.56017 14.9357 4.16953 14.9875 2.77449C15.1048 2.75554 15.1986 2.73412 15.2935 2.72616C15.611 2.69966 15.9289 2.6759 16.2467 2.65517C16.3906 2.64583 16.3933 2.64913 16.4483 2.7841C16.7356 3.49041 17.022 4.19713 17.3079 4.90412C17.3352 4.97168 17.357 5.04157 17.3884 5.13027C17.4107 5.09937 17.4252 5.08564 17.432 5.06889C17.739 4.30313 18.046 3.53737 18.3505 2.77064C18.3847 2.68455 18.4328 2.64391 18.5294 2.65283C18.9371 2.691 19.3451 2.72506 19.7529 2.76131C19.763 2.76227 19.7723 2.77174 19.8065 2.79124C19.866 4.16651 19.9101 5.55729 19.9638 6.95741C19.916 6.96043 19.883 6.96771 19.8516 6.96359C19.6093 6.9327 19.3675 6.89741 19.125 6.86816C18.9877 6.85169 18.973 6.84125 18.968 6.70092C18.9368 5.8131 18.9058 4.92527 18.8752 4.03744C18.8731 3.97634 18.8749 3.9151 18.8749 3.83299C18.8464 3.85688 18.8253 3.86608 18.8184 3.88173C18.5056 4.58337 18.1923 5.28487 17.8844 5.98857C17.8406 6.08867 17.7811 6.12176 17.6761 6.11778C17.4883 6.11064 17.2998 6.11119 17.112 6.11764C17.0133 6.12107 16.9571 6.09004 16.916 5.99626C16.6076 5.2927 16.2944 4.5912 15.982 3.88928C15.9756 3.87473 15.9624 3.86306 15.9524 3.85015C15.9397 3.85111 15.9274 3.85207 15.9151 3.85304Z" fill="#1D252D"/>
<path d="M26.1804 5.30012C26.4556 5.52077 26.7114 5.72604 26.9786 5.94038C26.4519 6.72976 25.9354 7.50403 25.4121 8.28819C25.44 8.28668 25.4579 8.29067 25.4707 8.28421C26.1111 7.96168 26.7509 7.63791 27.3914 7.31551C27.5273 7.24699 27.5291 7.24864 27.6394 7.35711C27.798 7.51296 27.9558 7.66949 28.1131 7.82657C28.2065 7.91994 28.2079 7.92186 28.145 8.04516C27.8191 8.68405 27.4922 9.32239 27.1662 9.96114C27.1614 9.97048 27.163 9.98298 27.1582 10.0217C27.9485 9.50268 28.7238 8.9934 29.496 8.48633C29.617 8.56569 30.0339 9.06755 30.1485 9.27214C28.9902 10.0018 27.8311 10.732 26.6645 11.467C26.4072 11.1641 26.1613 10.8746 25.91 10.5786C26.2912 9.84842 26.6702 9.12275 27.0676 8.36165C26.3052 8.75422 25.5723 9.13153 24.8345 9.51133C24.54 9.26404 24.2536 9.02347 23.957 8.7744C24.6959 7.61965 25.4292 6.47395 26.1804 5.30012Z" fill="#1D252D"/>
</svg>
