<svg width="120" height="90" viewBox="0 0 120 90" fill="none" xmlns="http://www.w3.org/2000/svg">
<g clip-path="url(#clip0_780_81)">
<path d="M59.9827 28.7781L32.4813 61.4199L23.3138 64.4751L55.6777 26L59.9827 28.7781Z" fill="url(#paint0_linear_780_81)"/>
<path d="M59.9827 28.7781L87.4859 61.4199L96.6537 64.4751L64.2905 26L59.9827 28.7781Z" fill="url(#paint1_linear_780_81)"/>
<path d="M59.9828 28.7781L64.2905 26H55.6777L59.9828 28.7781Z" fill="url(#paint2_linear_780_81)"/>
<path d="M39.9471 32.6322L44.3356 26.2785L39.9597 29.7421L39.9471 32.6322Z" fill="url(#paint3_linear_780_81)"/>
<path d="M35.6751 55.1693L29.1471 57.5306C-2.03488 52.8081 0.115929 42.7375 0.115929 42.7375C0.0468008 29.7509 44.3577 26.2785 44.3577 26.2785L39.9828 29.7509C39.9828 29.7509 3.8509 34.9764 4.89088 42.6857C5.9336 50.3947 35.6751 55.1693 35.6751 55.1693Z" fill="url(#paint4_linear_780_81)"/>
<path d="M39.9828 29.751V32.6322C39.9828 32.6322 9.70262 34.8893 9.70262 42.5291C9.70262 50.169 33.7317 52.1134 33.7317 52.1134L35.6754 55.169C35.6754 55.169 4.84015 51.4191 4.84015 42.6681C4.84015 33.917 39.9832 29.7506 39.9832 29.7506L39.9828 29.751Z" fill="url(#paint5_linear_780_81)"/>
<path d="M23.3138 64.4752H35.6108L32.4813 61.4199L23.3138 64.4752Z" fill="url(#paint6_linear_780_81)"/>
<path d="M59.9827 28.7781V34.7681L35.5971 64.4595L32.4813 61.4199L59.9827 28.7781Z" fill="url(#paint7_linear_780_81)"/>
<path d="M59.9909 28.7781V34.7681L84.3765 64.4595L87.493 61.4199L59.9909 28.7781Z" fill="url(#paint8_linear_780_81)"/>
<path d="M96.6616 64.4752H84.3639L87.493 61.4199L96.6616 64.4752Z" fill="url(#paint9_linear_780_81)"/>
<path d="M80.0364 32.6322L75.6479 26.2785L80.0238 29.7421L80.0364 32.6322Z" fill="url(#paint10_linear_780_81)"/>
<path d="M84.308 55.1693L90.8361 57.5306C122.018 52.8081 119.867 42.7375 119.867 42.7375C119.936 29.7509 75.6255 26.2785 75.6255 26.2785L80.0003 29.7509C80.0003 29.7509 116.132 34.9764 115.092 42.6857C114.05 50.3947 84.308 55.1693 84.308 55.1693Z" fill="url(#paint11_linear_780_81)"/>
<path d="M80.0003 29.751V32.6322C80.0003 32.6322 110.28 34.8893 110.28 42.5291C110.28 50.169 86.2515 52.1134 86.2515 52.1134L84.3077 55.169C84.3077 55.169 115.144 51.4191 115.144 42.6681C115.144 33.917 79.9999 29.7506 79.9999 29.7506L80.0003 29.751Z" fill="url(#paint12_linear_780_81)"/>
<path d="M69.7128 53.6745L73.9153 59.4189L70.3376 56.3838L69.7128 53.6745Z" fill="url(#paint13_linear_780_81)"/>
<path d="M39.1547 55.6189L44.7109 53.3622C44.7109 53.3622 65.5461 54.2299 69.7125 53.6744L70.3377 56.3837C70.3377 56.3837 61.6217 58.0156 39.1547 55.6189Z" fill="url(#paint14_linear_780_81)"/>
<path d="M70.3377 56.3837L73.9153 59.4186C73.9153 59.4186 54.3125 60.7412 40.1447 58.9354L39.1547 55.6189C39.1547 55.6189 58.4262 57.3907 70.3377 56.3837Z" fill="url(#paint15_linear_780_81)"/>
</g>
<defs>
<linearGradient id="paint0_linear_780_81" x1="42.4221" y1="47.0753" x2="33.463" y2="41.4497" gradientUnits="userSpaceOnUse">
<stop stop-color="#E8E8E8"/>
<stop offset="1" stop-color="#495153"/>
</linearGradient>
<linearGradient id="paint1_linear_780_81" x1="79.6621" y1="27.1387" x2="77.3703" y2="60.3704" gradientUnits="userSpaceOnUse">
<stop offset="0.03" stop-color="#E8E8E8"/>
<stop offset="0.1" stop-color="#D6D7D7"/>
<stop offset="0.3" stop-color="#A4A7A8"/>
<stop offset="0.49" stop-color="#7C8283"/>
<stop offset="0.67" stop-color="#606768"/>
<stop offset="0.82" stop-color="#4F5658"/>
<stop offset="0.93" stop-color="#495153"/>
</linearGradient>
<linearGradient id="paint2_linear_780_81" x1="59.9841" y1="29.0563" x2="59.9841" y2="24.5422" gradientUnits="userSpaceOnUse">
<stop stop-color="#E8E8E8"/>
<stop offset="0.12" stop-color="#C8CACA"/>
<stop offset="0.33" stop-color="#9B9FA0"/>
<stop offset="0.52" stop-color="#777D7E"/>
<stop offset="0.7" stop-color="#5D6466"/>
<stop offset="0.87" stop-color="#4E5658"/>
<stop offset="1" stop-color="#495153"/>
</linearGradient>
<linearGradient id="paint3_linear_780_81" x1="45.4638" y1="27.971" x2="40.5676" y2="30.1585" gradientUnits="userSpaceOnUse">
<stop stop-color="white"/>
<stop offset="1" stop-color="#495153"/>
</linearGradient>
<linearGradient id="paint4_linear_780_81" x1="29.9712" y1="48.3256" x2="7.99042" y2="11.6567" gradientUnits="userSpaceOnUse">
<stop stop-color="#495153"/>
<stop offset="0.36" stop-color="#E8E8E8"/>
<stop offset="0.42" stop-color="#DCDDDD"/>
<stop offset="0.54" stop-color="#BFC1C1"/>
<stop offset="0.7" stop-color="#8F9394"/>
<stop offset="0.88" stop-color="#4D5557"/>
<stop offset="0.9" stop-color="#495153"/>
</linearGradient>
<linearGradient id="paint5_linear_780_81" x1="28.0056" y1="49.68" x2="19.1861" y2="29.0539" gradientUnits="userSpaceOnUse">
<stop stop-color="#E8E8E8"/>
<stop offset="0.12" stop-color="#C8CACA"/>
<stop offset="0.33" stop-color="#9B9FA0"/>
<stop offset="0.52" stop-color="#777D7E"/>
<stop offset="0.7" stop-color="#5D6466"/>
<stop offset="0.87" stop-color="#4E5658"/>
<stop offset="1" stop-color="#495153"/>
</linearGradient>
<linearGradient id="paint6_linear_780_81" x1="23.4694" y1="62.9029" x2="37.2893" y2="63.0422" gradientUnits="userSpaceOnUse">
<stop stop-color="#E8E8E8"/>
<stop offset="0.12" stop-color="#C8CACA"/>
<stop offset="0.33" stop-color="#9B9FA0"/>
<stop offset="0.52" stop-color="#777D7E"/>
<stop offset="0.7" stop-color="#5D6466"/>
<stop offset="0.87" stop-color="#4E5658"/>
<stop offset="1" stop-color="#495153"/>
</linearGradient>
<linearGradient id="paint7_linear_780_81" x1="62.4499" y1="30.2396" x2="29.8775" y2="66.6318" gradientUnits="userSpaceOnUse">
<stop stop-color="#495153"/>
<stop offset="0.05" stop-color="#727879"/>
<stop offset="0.09" stop-color="#949899"/>
<stop offset="0.14" stop-color="#AFB1B1"/>
<stop offset="0.19" stop-color="#C2C2C3"/>
<stop offset="0.24" stop-color="#CDCDCD"/>
<stop offset="0.3" stop-color="#D1D1D1"/>
<stop offset="0.63" stop-color="#888C8D"/>
<stop offset="0.88" stop-color="#5A6163"/>
<stop offset="1" stop-color="#495153"/>
</linearGradient>
<linearGradient id="paint8_linear_780_81" x1="57.5237" y1="30.2396" x2="90.0961" y2="66.6317" gradientUnits="userSpaceOnUse">
<stop/>
<stop offset="0.02" stop-color="#202020"/>
<stop offset="0.06" stop-color="#505050"/>
<stop offset="0.1" stop-color="#7A7A7A"/>
<stop offset="0.13" stop-color="#9C9C9C"/>
<stop offset="0.17" stop-color="#B7B7B7"/>
<stop offset="0.21" stop-color="#CACACA"/>
<stop offset="0.25" stop-color="#D5D5D5"/>
<stop offset="0.3" stop-color="#D9D9D9"/>
<stop offset="0.33" stop-color="#D1D1D2"/>
<stop offset="0.65" stop-color="#888C8D"/>
<stop offset="0.88" stop-color="#5A6163"/>
<stop offset="1" stop-color="#495153"/>
</linearGradient>
<linearGradient id="paint9_linear_780_81" x1="96.5059" y1="62.9029" x2="82.6847" y2="63.0422" gradientUnits="userSpaceOnUse">
<stop stop-color="#E3E3E3"/>
<stop offset="0.09" stop-color="#BABCBD"/>
<stop offset="0.17" stop-color="#979B9C"/>
<stop offset="0.26" stop-color="#7A8081"/>
<stop offset="0.35" stop-color="#646B6C"/>
<stop offset="0.45" stop-color="#555C5E"/>
<stop offset="0.57" stop-color="#4B5355"/>
<stop offset="0.73" stop-color="#495153"/>
</linearGradient>
<linearGradient id="paint10_linear_780_81" x1="74.5198" y1="27.971" x2="79.4156" y2="30.1585" gradientUnits="userSpaceOnUse">
<stop stop-color="white"/>
<stop offset="1" stop-color="#495153"/>
</linearGradient>
<linearGradient id="paint11_linear_780_81" x1="90.0123" y1="48.3256" x2="111.993" y2="11.6567" gradientUnits="userSpaceOnUse">
<stop stop-color="#495153"/>
<stop offset="0.36" stop-color="#E8E8E8"/>
<stop offset="0.42" stop-color="#DCDDDD"/>
<stop offset="0.54" stop-color="#BFC1C1"/>
<stop offset="0.7" stop-color="#8F9394"/>
<stop offset="0.88" stop-color="#4D5557"/>
<stop offset="0.9" stop-color="#495153"/>
</linearGradient>
<linearGradient id="paint12_linear_780_81" x1="91.9779" y1="49.68" x2="100.798" y2="29.0539" gradientUnits="userSpaceOnUse">
<stop stop-color="#E8E8E8"/>
<stop offset="0.1" stop-color="#C0C2C3"/>
<stop offset="0.22" stop-color="#969A9B"/>
<stop offset="0.34" stop-color="#747A7B"/>
<stop offset="0.46" stop-color="#5C6365"/>
<stop offset="0.56" stop-color="#4E5557"/>
<stop offset="0.65" stop-color="#495153"/>
</linearGradient>
<linearGradient id="paint13_linear_780_81" x1="72.9621" y1="55.9087" x2="71.0858" y2="56.9511" gradientUnits="userSpaceOnUse">
<stop stop-color="#E8E8E8"/>
<stop offset="0.07" stop-color="#D6D7D7"/>
<stop offset="0.28" stop-color="#A4A7A8"/>
<stop offset="0.47" stop-color="#7C8283"/>
<stop offset="0.66" stop-color="#606768"/>
<stop offset="0.81" stop-color="#4F5658"/>
<stop offset="0.93" stop-color="#495153"/>
</linearGradient>
<linearGradient id="paint14_linear_780_81" x1="54.7174" y1="55.6972" x2="54.0922" y2="49.1331" gradientUnits="userSpaceOnUse">
<stop stop-color="#E8E8E8"/>
<stop offset="0.12" stop-color="#C8CACA"/>
<stop offset="0.33" stop-color="#9B9FA0"/>
<stop offset="0.52" stop-color="#777D7E"/>
<stop offset="0.7" stop-color="#5D6466"/>
<stop offset="0.87" stop-color="#4E5658"/>
<stop offset="1" stop-color="#495153"/>
</linearGradient>
<linearGradient id="paint15_linear_780_81" x1="56.1838" y1="49.0834" x2="56.496" y2="56.5833" gradientUnits="userSpaceOnUse">
<stop stop-color="#E8E8E8"/>
<stop offset="0.07" stop-color="#D6D7D7"/>
<stop offset="0.28" stop-color="#A4A7A8"/>
<stop offset="0.47" stop-color="#7C8283"/>
<stop offset="0.66" stop-color="#606768"/>
<stop offset="0.81" stop-color="#4F5658"/>
<stop offset="0.93" stop-color="#495153"/>
</linearGradient>
<clipPath id="clip0_780_81">
<rect width="120" height="38.4466" fill="white" transform="translate(0 26)"/>
</clipPath>
</defs>
</svg>
