<svg width="120" height="90" viewBox="0 0 120 90" fill="none" xmlns="http://www.w3.org/2000/svg">
<path d="M53.644 2.21891C40.742 4.58063 30.5079 11.3596 23.6852 22.0311C21.6733 25.1801 19.9676 28.6789 19.9676 29.6411C19.9676 29.991 19.7927 30.3846 19.574 30.5158C18.8305 30.9969 17.256 38.7818 17.0374 43.0241C16.8624 46.7417 17.2998 51.0278 18.3932 55.6637C19.4866 60.3872 22.8105 67.1224 26.0469 71.1898C33.6569 80.6804 43.5411 86.2348 55.4372 87.7219C59.4608 88.2029 64.5341 87.9405 68.9514 87.0221C69.5637 86.8909 70.6571 86.6722 71.3569 86.4973C74.0248 85.9287 80.1915 83.1296 83.6028 80.8991C86.7518 78.8435 91.6939 74.4263 93.4433 72.1083C96.9859 67.4286 100.397 61.2181 101.097 58.2441C101.185 57.6755 101.622 56.1448 102.015 54.8327C103.109 51.0278 103.371 41.231 102.409 37.0324C101.272 31.8716 100.485 29.5973 98.6041 25.7049C92.831 13.8963 80.8475 4.84304 68.033 2.61253C64.7091 2.04396 55.962 1.78155 53.644 2.21891ZM71.2694 5.58654C84.9586 9.65395 95.1927 19.8881 99.3914 33.621C100.528 37.2073 100.616 38.1695 100.616 44.7736C100.66 52.6897 100.31 54.4829 97.5545 61.0432C90.8192 77.1816 73.1063 87.5469 55.787 85.5351C46.1652 84.398 38.2054 80.5055 31.3389 73.639C24.6473 66.9037 20.7111 58.9876 19.4866 49.8032C17.0374 31.0844 29.1958 11.9282 47.2149 6.06763C52.4194 4.40568 54.475 4.14327 61.2977 4.27448C66.371 4.40568 68.0767 4.62436 71.2694 5.58654Z" fill="#EC1515"/>
<path d="M49.0954 11.8845C59.1983 15.9956 66.9833 25.2675 70.3509 37.1636C71.663 41.7996 71.663 49.1471 70.3072 54.0892C69.2138 58.3316 66.1523 64.2796 63.3095 67.7785L61.1664 70.4026L63.8343 70.0527C73.1937 68.7844 81.8533 64.3671 86.7517 58.3753C89.0697 55.5325 91.825 50.0656 92.7872 46.3043C93.7494 42.5431 94.318 36.2889 94.0118 32.7463L93.7494 29.6411L91.825 33.4023C88.5886 39.569 84.0838 45.2547 82.9905 44.5986C82.728 44.4237 82.5094 43.7239 82.5094 43.0242C82.5094 41.2747 81.416 36.2889 80.3663 33.2711C78.5732 28.0666 76.3864 24.5678 72.4502 20.6316C69.2575 17.4826 67.9454 16.5204 64.5341 14.8585C59.9418 12.628 54.7373 11.2722 49.489 10.8785L45.9902 10.6161L49.0954 11.8845ZM61.2976 15.3396C65.7149 17.1765 67.7268 18.5323 71.4443 22.2498C77.1299 28.0229 80.1039 34.9768 80.9786 44.861C81.1536 46.7417 81.3285 48.2724 81.416 48.2724C81.5034 48.2724 82.4219 47.7039 83.4715 47.0041C85.7895 45.4296 87.5827 43.5052 90.2068 39.6565L92.2624 36.6825L92 39.7877C90.8191 54.3954 81.7221 64.3671 66.5459 67.7347C65.2776 67.9971 65.2776 67.9971 66.0648 67.1662C67.9892 65.0231 70.8757 58.8127 72.1003 54.1767C73.1937 50.0218 73.3686 41.9745 72.4939 38.2132C70.3072 28.8976 64.7527 20.0193 57.7988 14.6835C56.5305 13.7214 56.5305 13.6776 57.5801 13.9838C58.1924 14.115 59.8544 14.771 61.2976 15.3396Z" fill="#EC1515"/>
<path d="M54.1251 20.3255C37.5056 23.8243 28.3211 33.7085 26.5717 50.0219C26.3093 52.3399 26.2218 55.5325 26.3967 57.1508L26.6592 60.081L28.9334 55.9262C31.4701 51.3339 32.8696 49.3221 35.2313 46.8292C36.5871 45.3859 38.0304 44.6424 37.8117 45.5171C37.593 46.3481 38.5115 51.4651 39.5174 54.789C41.2668 60.8683 43.6723 65.0232 47.9584 69.3092C51.0636 72.4145 52.3756 73.3766 55.8307 75.0386C60.5979 77.3566 65.7587 78.7124 71.1382 79.0623C74.6808 79.2809 74.7682 79.2809 73.1063 78.7124C62.0412 75.0386 52.9005 64.4983 49.839 51.9025C48.8768 47.8788 48.9205 40.6625 49.8827 36.6825C50.9324 32.4402 54.4312 25.3988 57.1428 22.1186C58.3674 20.6316 59.1109 19.407 58.8048 19.4507C58.4986 19.4507 56.3993 19.8444 54.1251 20.3255ZM54.5187 22.4248C54.5187 22.5997 54.1251 23.2557 53.6877 23.868C53.2066 24.4803 52.1132 26.361 51.2385 28.0666C45.859 38.8693 45.859 49.8469 51.2385 60.8245C53.7752 65.9853 57.7988 71.3211 61.1227 73.9015C62.5223 75.0386 63.7031 76.0008 63.7031 76.0445C63.7031 76.3944 59.5483 74.8637 57.1865 73.6828C46.9962 68.6532 41.1793 59.6437 39.6049 46.523C39.3425 43.9864 39.0363 41.8433 38.9488 41.7996C38.9051 41.7121 37.9429 42.237 36.8933 42.9805C34.619 44.5549 31.6013 47.9226 29.5894 51.2027C28.8459 52.4711 28.1462 53.5207 28.1024 53.5207C28.0587 53.5207 28.1899 51.99 28.3648 50.1093C29.2833 42.1932 32.0824 35.6766 36.5434 31.2156C40.3921 27.3669 43.7597 25.355 49.8827 23.2995C53.7752 21.9874 54.5187 21.8562 54.5187 22.4248Z" fill="#EC1515"/>
<path d="M57.7989 14.6837C64.7529 20.0194 70.3073 28.8977 72.494 38.2134C73.3688 41.9746 73.1938 50.022 72.1004 54.1768C70.8758 58.8128 67.9893 65.0233 66.0649 67.1663C65.2777 67.9973 65.2777 67.9973 66.546 67.7349C81.7222 64.3672 90.8192 54.3955 92.0001 39.7879L92.2625 36.6826L90.2069 39.6567C87.5828 43.5054 85.7896 45.4297 83.4717 47.0042C82.422 47.704 81.5036 48.2725 81.4161 48.2725C81.3286 48.2725 81.1537 46.7418 80.9787 44.8612C80.4102 38.7382 79.0544 33.8398 76.3428 28.5478C74.812 25.4426 68.9077 19.2759 65.89 17.5265C63.7907 16.3456 59.4171 14.465 57.5802 13.9839C56.5306 13.6778 56.5306 13.7215 57.7989 14.6837Z" fill="#EC1540"/>
<path d="M49.8827 23.2995C43.7597 25.3551 40.3921 27.3669 36.5434 31.2156C32.0823 35.6767 29.2833 42.1933 28.3648 50.1094C28.1899 51.99 28.0587 53.5208 28.1024 53.5208C28.1461 53.5208 28.8459 52.4711 29.5894 51.2028C31.6013 47.9226 34.619 44.555 36.8933 42.9805C37.9429 42.237 38.9051 41.7122 38.9488 41.7996C39.0363 41.8434 39.3424 43.9864 39.6049 46.5231C41.1793 59.6437 46.9962 68.6532 57.1865 73.6828C59.5483 74.8637 63.7031 76.3944 63.7031 76.0446C63.7031 76.0008 62.5223 75.0386 61.1227 73.9015C57.7988 71.3211 53.7752 65.9854 51.2385 60.8246C45.859 49.847 45.859 38.8694 51.2385 28.0667C52.1132 26.361 53.2066 24.4804 53.6877 23.8681C55.3934 21.6813 54.8686 21.5938 49.8827 23.2995Z" fill="#EC1540"/>
</svg>
