<svg width="35" height="36" viewBox="0 0 35 36" fill="none" xmlns="http://www.w3.org/2000/svg">
<path d="M16.7425 9.25C21.3127 9.31097 25.0144 9.79816 28.5409 11.2323C30.3947 11.9863 32.1252 12.9421 33.4829 14.4495C34.2494 15.3004 34.8117 16.2622 34.9599 17.4172C35.1715 19.066 34.5272 20.4224 33.4492 21.6107C32.0953 23.1031 30.3694 24.0457 28.5293 24.7981C26.0256 25.8217 23.4035 26.3555 20.7152 26.5982C17.2342 26.9124 13.7805 26.7522 10.3641 25.9953C7.74595 25.4153 5.25798 24.5185 3.05669 22.9494C2.27424 22.3917 1.57638 21.7471 1.01722 20.9626C-0.385275 18.9948 -0.335802 16.7803 1.15511 14.8727C2.21828 13.5122 3.62034 12.5838 5.14416 11.8208C7.47834 10.6521 9.96962 9.97435 12.5476 9.63674C14.198 9.42056 15.8649 9.32823 16.7425 9.25ZM17.9735 26.453C18.5611 26.4191 19.5909 26.382 20.6165 26.2962C23.2561 26.0752 25.8316 25.5546 28.295 24.5642C29.9999 23.8788 31.6043 23.0206 32.9109 21.7012C35.1453 19.4447 35.1819 16.8207 33.017 14.5011C32.0953 13.5134 30.9749 12.7939 29.7748 12.1936C26.5174 10.5643 23.0173 9.90753 19.4142 9.69888C17.1808 9.56955 14.9526 9.66262 12.7364 9.9832C10.0999 10.3645 7.54835 11.0302 5.17133 12.2573C3.7449 12.9936 2.43311 13.8843 1.46904 15.1961C0.694682 16.2496 0.301174 17.4154 0.519315 18.7306C0.711688 19.8905 1.31325 20.8401 2.12802 21.6666C3.4591 23.0168 5.09137 23.8994 6.83532 24.5878C10.2685 25.943 13.8624 26.4112 17.9735 26.453Z" fill="#1D252D"/>
<path d="M18.1755 26.0655C13.8802 26.0204 10.3317 25.5775 6.94209 24.2398C5.27787 23.583 3.71032 22.7582 2.44122 21.4685C1.42613 20.437 0.768096 19.2475 0.883314 17.7466C0.973574 16.5708 1.54657 15.622 2.33698 14.7871C3.53797 13.5185 5.03499 12.6948 6.63111 12.034C9.27192 10.9406 12.0412 10.4058 14.8832 10.1965C18.0448 9.96361 21.1831 10.1216 24.2828 10.8005C26.9258 11.3795 29.4484 12.2584 31.6288 13.9178C32.3252 14.4478 32.9268 15.0708 33.3797 15.8235C34.323 17.3914 34.2788 18.947 33.2854 20.4717C32.376 21.8676 31.0404 22.7664 29.5873 23.5123C27.1607 24.758 24.5569 25.43 21.8634 25.7585C20.4172 25.9348 18.9575 26.0026 18.1755 26.0655ZM16.6945 14.8406C16.7155 14.8455 16.7366 14.8502 16.7576 14.855C16.8059 15.2118 16.8547 15.5685 16.9019 15.9254C16.913 16.0099 16.9192 16.0951 16.9273 16.18C17.0082 17.0293 17.0083 17.019 17.8525 17.0281C18.1162 17.031 18.2416 16.9501 18.3272 16.6967C18.6862 15.635 19.068 14.581 19.4415 13.5243C19.5452 13.2309 19.6487 12.9376 19.7615 12.6182C19.36 12.6182 19.0093 12.6182 18.677 12.6182C18.4262 13.3148 18.1841 13.9871 17.9421 14.6593C17.8032 14.1158 17.7172 13.5781 17.6804 13.0371C17.658 12.7082 17.5639 12.5506 17.2025 12.591C16.9257 12.6219 16.6426 12.5971 16.3884 12.5971C15.8687 14.0769 15.3617 15.5204 14.845 16.9915C15.2572 16.9915 15.6279 16.9915 15.947 16.9915C16.2052 16.2486 16.4498 15.5446 16.6945 14.8406ZM12.7667 22.4183C12.4549 21.8378 12.1746 21.316 11.8907 20.7875C12.8437 20.4953 13.2965 19.9743 13.3271 19.1707C13.3487 18.6048 13.1124 18.1716 12.5576 18.0859C11.8078 17.97 11.0375 17.9854 10.4047 17.9513C9.88203 19.5144 9.39936 20.9581 8.9139 22.41C9.32257 22.41 9.73596 22.41 10.1444 22.41C10.3213 21.9222 10.4933 21.4481 10.6894 20.9072C10.9236 21.3847 11.1129 21.793 11.3257 22.1889C11.3779 22.2862 11.5027 22.4012 11.6012 22.4079C11.9766 22.4336 12.3549 22.4183 12.7667 22.4183ZM25.9821 18.0314C25.4667 19.5147 24.9639 20.962 24.4581 22.4178C24.8922 22.4178 25.3175 22.4178 25.7259 22.4178C25.8968 21.93 26.0599 21.4644 26.25 20.9218C26.4762 21.3957 26.6642 21.8015 26.8649 22.201C26.9087 22.2881 26.9945 22.414 27.0662 22.4176C27.484 22.4382 27.9032 22.4277 28.3558 22.4277C28.1793 22.1084 28.0361 21.8549 27.8981 21.5985C27.7558 21.3339 27.6185 21.0667 27.4757 20.7943C28.382 20.545 28.7736 20.1305 28.8867 19.3309C28.9892 18.6056 28.661 18.1086 27.9328 18.0442C27.2539 17.9842 26.5654 18.0314 25.9821 18.0314ZM20.6939 12.6122C20.1776 14.1072 19.6795 15.5491 19.1691 17.0271C19.6555 17.0271 20.12 17.0125 20.5834 17.0296C22.5596 17.1025 23.539 15.654 23.683 14.1824C23.7692 13.3016 23.2797 12.6793 22.4224 12.6202C21.8261 12.579 21.2246 12.6122 20.6939 12.6122ZM15.9356 17.7853C15.5434 17.936 15.1165 18.0314 14.7657 18.2481C13.9075 18.7785 13.5607 19.6345 13.4818 20.5904C13.4253 21.274 13.6074 21.9055 14.2426 22.2974C14.8974 22.7014 15.5775 22.6107 16.1904 22.2354C17.1669 21.6372 17.6277 20.7113 17.5703 19.5879C17.5086 18.3847 16.9823 17.8667 15.9356 17.7853ZM10.3536 17.0188C10.721 17.0188 11.0248 17.0026 11.3258 17.0239C11.5715 17.0413 11.7067 16.9638 11.7989 16.7303C11.8485 16.6046 11.9877 16.4364 12.0994 16.4261C12.4977 16.3891 12.9015 16.4116 13.3195 16.4116C13.3195 16.6338 13.3195 16.8108 13.3195 17C13.7369 17 14.1366 17 14.5275 17C14.4632 15.521 14.3997 14.059 14.3364 12.6019C13.9291 12.6019 13.527 12.6019 13.2138 12.6019C12.2536 14.0846 11.3274 15.5149 10.3536 17.0188ZM25.3154 18.0295C24.3508 18.0295 23.4615 18.0295 22.6305 18.0295C22.0959 19.5157 21.5756 20.9618 21.0426 22.4433C21.9324 22.4433 22.8016 22.447 23.6707 22.4367C23.7449 22.4358 23.8572 22.3571 23.8846 22.2882C23.991 22.0204 24.0702 21.742 24.1722 21.4287C23.6526 21.4287 23.1809 21.4287 22.7049 21.4287C22.8313 20.7284 22.8313 20.7282 23.4713 20.7287C23.6185 20.7288 23.7675 20.7451 23.9123 20.727C23.9961 20.7165 24.1196 20.6714 24.1454 20.6093C24.263 20.3263 24.3522 20.0317 24.4673 19.6957C24.0453 19.6957 23.6962 19.6957 23.3245 19.6957C23.3489 19.5947 23.3701 19.5262 23.3816 19.4562C23.4439 19.0745 23.636 18.8956 24.0535 18.9522C24.3508 18.9924 24.6581 18.96 24.9817 18.96C25.089 18.6607 25.1946 18.3663 25.3154 18.0295ZM18.0214 22.4415C18.2778 22.4415 18.499 22.4254 18.7169 22.4457C18.9764 22.4698 19.1412 22.3897 19.2859 22.1604C19.5523 21.738 19.8578 21.3396 20.1521 20.9348C20.8578 19.964 21.5665 18.9954 22.2813 18.0159C21.8157 18.0159 21.3437 18.0159 20.9391 18.0159C20.385 18.8881 19.8564 19.7204 19.2845 20.6207C19.2845 19.6959 19.2845 18.8641 19.2845 18.0262C18.8586 18.0262 18.4362 18.0262 18.0214 18.0262C18.0214 19.4985 18.0214 20.9439 18.0214 22.4415ZM10.2189 12.6141C9.74987 12.6141 9.2929 12.6141 8.92156 12.6141C8.3995 14.1091 7.89593 15.551 7.38271 17.0208C8.20463 17.0208 9.01211 17.0246 9.81952 17.0149C9.89844 17.0139 10.0191 16.9477 10.0472 16.8813C10.159 16.6169 10.2419 16.3403 10.3528 16.018C9.87628 16.018 9.45509 16.018 8.98104 16.018C9.40459 14.8533 9.80988 13.7388 10.2189 12.6141ZM27.6314 14.2783C26.7218 14.2783 25.8672 14.2762 25.0127 14.2827C24.9525 14.2831 24.8574 14.3328 24.8388 14.3821C24.7306 14.6691 24.6405 14.9627 24.5258 15.31C25.0491 15.31 25.4934 15.31 25.9377 15.31C25.4801 15.5425 25.0071 15.6971 24.5546 15.8974C24.3875 15.9714 24.2688 16.1531 24.128 16.2858C24.1581 16.3254 24.1882 16.365 24.2184 16.4047C25.1976 16.0717 26.1775 15.7408 27.1543 15.401C27.2232 15.377 27.2954 15.2972 27.3209 15.2271C27.4278 14.9327 27.5175 14.6322 27.6314 14.2783ZM8.88379 18.6165C8.85022 18.573 8.81665 18.5296 8.78307 18.4861C7.81502 18.8167 6.84638 19.1455 5.88032 19.4818C5.80868 19.5068 5.72534 19.5751 5.70038 19.6426C5.59209 19.9355 5.50352 20.2355 5.38749 20.5957C6.30114 20.5957 7.15294 20.5978 8.00467 20.5912C8.06364 20.5907 8.15596 20.5381 8.17525 20.4879C8.28532 20.2014 8.37793 19.9082 8.4933 19.5678C7.94747 19.5678 7.47805 19.5678 7.00864 19.5678C7.48453 19.3253 7.97935 19.165 8.45811 18.9667C8.62074 18.8994 8.74302 18.7361 8.88379 18.6165Z" fill="#1D252D"/>
<path d="M11.0083 19.8926C11.0967 19.6013 11.1507 19.3776 11.2364 19.1667C11.265 19.0964 11.378 19.0109 11.4473 19.0152C11.6655 19.0286 11.959 18.9704 12.0071 19.2871C12.0491 19.5635 11.8745 19.7536 11.6174 19.8289C11.448 19.8784 11.2611 19.8688 11.0083 19.8926Z" fill="#1D252D"/>
<path d="M26.5833 19.9539C26.6617 19.6936 26.7267 19.5363 26.7544 19.3726C26.8002 19.1019 26.9541 18.9864 27.2097 19.0587C27.3401 19.0956 27.5606 19.2439 27.5488 19.28C27.486 19.4719 27.4013 19.6963 27.2489 19.8083C27.1025 19.9158 26.8642 19.8997 26.5833 19.9539Z" fill="#1D252D"/>
<path d="M20.7605 15.9639C21.0188 15.2101 21.2644 14.474 21.5298 13.7451C21.5598 13.6626 21.7115 13.5591 21.7891 13.5717C21.9552 13.5989 22.1374 13.6653 22.2592 13.7748C22.3398 13.8471 22.3821 14.0404 22.3462 14.1481C22.1833 14.6371 22.0344 15.1411 21.7863 15.5882C21.5943 15.9341 21.206 16.0454 20.7605 15.9639Z" fill="#1D252D"/>
<path d="M14.7888 20.7127C14.8112 20.1306 14.9344 19.6401 15.2707 19.2265C15.4365 19.0225 15.6413 18.8618 15.9359 18.95C16.2359 19.0399 16.3509 19.3035 16.3078 19.551C16.2176 20.0696 16.0625 20.5783 15.9122 21.0846C15.8813 21.1888 15.7656 21.2796 15.6698 21.3512C15.3159 21.6154 14.9365 21.4787 14.8313 21.0506C14.7999 20.9222 14.7976 20.7867 14.7888 20.7127Z" fill="#1D252D"/>
<path d="M13.2874 15.3696C13.0683 15.3696 12.8645 15.3696 12.5854 15.3696C12.8141 14.9796 13.0229 14.6235 13.2874 14.1725C13.2874 14.6279 13.2874 14.977 13.2874 15.3696Z" fill="#1D252D"/>
</svg>
