<svg width="35" height="36" viewBox="0 0 35 36" fill="none" xmlns="http://www.w3.org/2000/svg">
<g clip-path="url(#clip0_5004_269)">
<path d="M17.5532 0.500008C27.1553 0.490665 34.9833 8.30335 35 17.9125C35.0168 27.6327 27.1987 35.4961 17.5139 35.5C7.88481 35.504 0.00348218 27.6378 1.24247e-06 18.0196C-0.00359973 8.31869 7.82059 0.509472 17.5532 0.500008ZM3.56628 25.4145C3.75029 25.348 3.81955 25.3401 3.86636 25.3035C7.49338 22.4792 11.124 19.6592 14.7316 16.8103C14.9661 16.6251 15.099 16.2267 15.1487 15.9073C15.4759 13.8025 15.7768 11.6935 16.068 9.58329C16.4011 7.16956 16.7152 4.75332 17.0547 2.21022C11.456 2.59246 7.11996 4.95468 4.19921 9.5985C0.998191 14.688 0.954019 19.9885 3.56628 25.4145ZM18.0787 2.21393C18.0787 2.54491 18.0565 2.73477 18.0819 2.91805C18.6912 7.29917 19.2953 11.6811 19.9394 16.0571C19.9882 16.3881 20.2651 16.7552 20.541 16.9726C23.8472 19.5776 27.1732 22.1577 30.4946 24.7433C30.7857 24.9699 31.0819 25.1901 31.4426 25.4641C33.9953 20.0902 34.006 14.8732 31.0021 9.8703C28.1419 5.10705 23.7766 2.62097 18.0787 2.21393ZM4.12947 26.364C7.64726 31.4263 12.3296 34.0146 18.3822 33.7111C23.7389 33.4425 27.8624 30.8754 30.8178 26.4443C30.709 26.309 30.6944 26.2725 30.6691 26.2621C26.4149 24.5271 22.1624 22.7878 17.8987 21.0762C17.6395 20.9721 17.2579 21.0069 16.9894 21.1155C12.7594 22.8262 8.53886 24.5595 4.12947 26.364Z" fill="#1D252D"/>
</g>
<defs>
<clipPath id="clip0_5004_269">
<rect width="35" height="35" fill="white" transform="translate(0 0.5)"/>
</clipPath>
</defs>
</svg>
