<svg width="120" height="90" viewBox="0 0 120 90" fill="none" xmlns="http://www.w3.org/2000/svg">
<g clip-path="url(#clip0_781_3129)">
<path d="M100.972 35.558C100.159 35.3309 99.2537 35.2236 97.3463 34.9882C89.4518 34.6643 69.9422 33.9058 60.0004 33.9058C50.0591 33.9058 30.549 34.6639 22.6554 34.9882C20.7471 35.2236 19.8407 35.3309 19.0281 35.558C16.546 36.1432 16 37.0342 16 38.8118V50.9949C16 52.773 17.9047 53.9711 19.2177 54.2126C20.5315 54.456 21.3627 54.5532 22.7447 54.6848C29.8054 55.1221 46.1866 56.0338 60 56.0483C73.8138 56.0351 90.1941 55.1226 97.2552 54.6848C98.6368 54.5532 99.4684 54.4555 100.783 54.2126C102.095 53.9706 104 52.773 104 50.9949V38.8118C104 37.0342 103.454 36.1432 100.972 35.558Z" fill="url(#paint0_linear_781_3129)"/>
<path d="M28.342 36.0371C32.2263 22.5247 44.9894 12.6102 60.1399 12.6102C75.2469 12.6102 87.984 22.4702 91.9062 35.9284C91.9185 35.976 91.9268 36.0006 91.9405 36.0463C94.1924 35.7933 96.2098 35.4026 97.6354 35.022C97.6094 34.9353 97.6028 34.9177 97.5804 34.8324C93.1228 18.801 78.0492 7.00415 60.1399 7.00415C42.1703 7.00415 27.0572 18.8776 22.6545 34.9882C24.635 35.5307 26.0857 35.7581 28.342 36.0371Z" fill="url(#paint1_radial_781_3129)"/>
<path d="M91.8133 53.7471C91.7741 53.8673 91.7306 53.9997 91.7103 54.0653C87.5801 67.2001 75.0093 76.7534 60.1403 76.7534C45.1539 76.7534 32.5039 67.0527 28.474 53.7599C26.0109 54.1959 25.1788 54.3618 22.7447 54.6857C27.2547 70.6387 42.2869 82.3595 60.1403 82.3595C78.0013 82.3595 93.0387 70.6264 97.5403 54.6601C95.3958 54.3953 94.1325 54.1951 91.8133 53.7471Z" fill="url(#paint2_radial_781_3129)"/>
<path d="M29.1349 36.0081C30.0699 35.6218 30.9745 35.0058 32.3847 34.6093C36.5889 23.6863 47.4279 15.908 60.1395 15.908C72.8115 15.908 83.6236 23.6384 87.8542 34.5086C87.8691 34.5455 87.8846 34.5904 87.8964 34.6181C88.6242 34.8703 90.7683 35.7397 91.4354 36.0305C91.53 36.0327 91.7319 36.0398 91.9405 36.0455C91.9282 36.0064 91.9168 35.9671 91.9062 35.9276C87.9822 22.4737 75.2455 12.6168 60.1395 12.6168C44.9929 12.6168 32.2298 22.5269 28.3442 36.0367C28.5686 36.0371 28.9958 36.0178 29.1349 36.0081Z" fill="url(#paint3_radial_781_3129)"/>
<path d="M59.8983 13.5307C74.0721 13.5307 86.6363 21.9822 91.3953 35.913L91.434 36.0314C91.5079 36.0314 91.7777 36.0411 91.9391 36.0464C91.9264 35.9958 91.9132 35.9663 91.9048 35.9284C87.9809 22.4746 75.2442 12.6177 60.1381 12.6177C44.9916 12.6177 32.2285 22.5278 28.3429 36.0376C28.6456 36.0327 28.7912 36.0327 29.1344 36.0085C33.3892 22.783 45.8289 13.5307 59.8983 13.5307Z" fill="white"/>
<path d="M91.0099 53.7854C89.9917 54.3543 88.7241 54.9017 87.7107 55.2216C87.6971 55.2541 87.6395 55.3984 87.6271 55.4323C83.2439 66.002 72.5884 73.4631 60.1399 73.4631C47.6131 73.4631 36.9031 65.9114 32.5708 55.237C31.4053 54.9136 29.6629 54.1189 29.0033 53.7872C28.7565 53.7753 28.6236 53.7682 28.4718 53.7603C32.5017 67.0514 45.1539 76.7538 60.1403 76.7538C75.059 76.7538 87.6623 67.1403 91.7513 53.9429C91.7601 53.9174 91.8054 53.7722 91.8151 53.7476C91.5788 53.7568 91.2175 53.7854 91.0099 53.7854Z" fill="url(#paint4_radial_781_3129)"/>
<path d="M100.267 36.4402C98.1762 36.1859 96.7505 36.2131 91.6571 36.0376C91.4257 36.0292 91.1903 36.0222 90.9513 36.0138C81.7157 35.697 67.8425 35.2737 60 35.2737C52.1579 35.2737 38.2851 35.697 29.0482 36.0138C28.8097 36.0222 28.5752 36.0292 28.3442 36.0376C23.2499 36.2131 21.8247 36.1859 19.7334 36.4402C17.6425 36.6967 16 37.6123 16 39.1695V50.4674C16 52.0254 17.9787 53.2869 19.7329 53.2869C19.7329 53.2869 42.0612 54.6654 60 54.6817C77.9392 54.6654 100.267 53.2869 100.267 53.2869C102.021 53.2869 104 52.0254 104 50.4674V39.1695C104 37.6123 102.358 36.6967 100.267 36.4402Z" fill="url(#paint5_radial_781_3129)"/>
<path d="M91.0099 53.7854C86.6279 66.7843 74.3044 75.8395 60.3841 75.8395C46.3222 75.8395 33.8446 67.5209 29.002 53.7854C28.8242 53.7762 28.6482 53.7691 28.4744 53.759C32.5035 67.0505 45.1579 76.7529 60.1448 76.7529C75.1364 76.7529 87.7922 67.0443 91.8177 53.7458C91.5528 53.7581 91.284 53.7726 91.0099 53.7854Z" fill="white"/>
<path d="M91.0354 53.7845L91.0085 53.7854C89.9904 54.3543 88.7236 54.9017 87.7094 55.2216C87.6958 55.2541 87.6381 55.3985 87.6263 55.4323C86.2394 58.7772 84.2242 61.8106 81.7206 64.3956C85.6392 61.5307 88.8354 57.9113 91.0354 53.7845Z" fill="#8C8C8C"/>
<path d="M39.4036 65.2364C36.4565 62.4292 34.1104 59.0311 32.5704 55.2361C31.4048 54.9122 29.6629 54.1172 29.0029 53.7854C29.7082 55.2475 30.5397 56.6452 31.488 57.9628C33.428 60.4892 35.7793 62.7412 38.4558 64.6468C38.7674 64.851 39.0833 65.0472 39.4036 65.2364Z" fill="#4D4D4D"/>
<path d="M28.4731 53.7608V53.7599L28.463 53.7616C26.0078 54.1968 25.1749 54.3636 22.7443 54.6856C22.9401 55.3808 23.157 56.0659 23.3933 56.744L28.4731 53.7608Z" fill="#252525"/>
<path d="M77.8803 41.4439C77.1463 39.8035 77.4068 39.9756 75.8092 39.9333C75.6794 39.8893 75.3331 39.8893 74.8588 39.8893C74.3853 39.8893 74.2982 39.8893 73.9093 39.9333C72.3992 39.9333 72.6579 39.8471 72.1405 40.926C72.1405 40.926 69.5484 46.7525 68.4273 49.1694L68.3842 49.2556C68.1686 49.6864 68.2984 49.6864 68.6429 49.6864H70.9745C71.1478 49.6864 71.2332 49.6019 71.2763 49.5139C71.2763 49.5139 71.6217 48.78 72.0533 47.7447H77.7509C78.183 48.7377 78.4848 49.4708 78.4848 49.5139C78.5279 49.6437 78.6577 49.6864 78.7867 49.6864H81.204C81.5494 49.6864 81.6361 49.7317 81.5067 49.4277C81.0742 48.3923 78.2688 42.3489 77.8803 41.4439ZM72.9157 45.6731C73.6497 43.947 74.3845 42.264 74.3845 42.2205C74.428 42.1338 74.5143 42.0907 74.6432 42.0907C74.6867 42.0467 74.817 42.0467 74.9459 42.0467C75.0326 42.0467 75.1611 42.0467 75.2046 42.0907C75.2904 42.0907 75.3784 42.1338 75.4198 42.2636C75.594 42.7375 76.2399 44.2057 76.8441 45.6731H72.9157ZM41.8377 39.8031C42.0533 39.8031 42.0968 39.8889 42.0968 40.0618V49.2996C42.0968 49.5143 42.0533 49.6023 41.795 49.6023H39.5501C39.2918 49.6023 39.2487 49.5583 39.2487 49.2996V40.0618C39.2487 39.8889 39.2918 39.8031 39.4639 39.8031H41.8377ZM37.0465 39.8889C37.3048 39.8889 37.3492 39.9747 37.3492 40.1916V49.3859C37.3492 49.6455 37.3048 49.6886 37.0465 49.6886H34.4131C32.8599 49.6886 32.7301 49.6886 32.2127 48.8262C31.1334 47.1432 27.8954 42.1791 27.8954 42.1791V49.3867C27.8954 49.6468 27.8523 49.689 27.594 49.689H25.651C25.3922 49.689 25.3487 49.6468 25.3487 49.3867V40.1916C25.3487 39.9756 25.3922 39.8889 25.651 39.8889H27.8954C29.5788 39.8889 29.7944 39.8462 30.3999 40.7095C30.8742 41.487 34.8021 47.5295 34.8021 47.5295V40.1916C34.8021 39.9756 34.8452 39.8889 35.1048 39.8889H37.0465ZM94.6707 39.8889C94.9311 39.8889 94.9734 39.9747 94.9734 40.1916V49.3859C94.9734 49.6455 94.9303 49.6886 94.6707 49.6886H92.0399C90.4845 49.6886 90.3547 49.6886 89.8373 48.8262C88.7571 47.1419 85.52 42.1782 85.52 42.1782V49.3863C85.52 49.6459 85.4769 49.6881 85.2173 49.6881H83.276C83.0173 49.6881 82.9728 49.6459 82.9728 49.3863V40.1916C82.9728 39.9756 83.0177 39.8889 83.276 39.8889H85.52C87.2034 39.8889 87.4199 39.8462 88.0231 40.7095C88.5415 41.487 92.4267 47.5295 92.4267 47.5295V40.1916C92.4267 39.9756 92.4702 39.8889 92.7294 39.8889H94.6707ZM51.7227 43.6456C53.4497 43.8177 54.7019 44.1195 55.0469 45.7603C55.0469 45.8887 55.0905 46.3208 55.0905 46.796C55.0905 47.0987 55.0905 47.4859 55.0038 47.8318C54.7024 49.3854 53.5359 49.6873 51.724 49.6873H44.4711C44.2119 49.6873 44.1683 49.645 44.1683 49.3854V47.8318C44.1683 47.5722 44.2119 47.5291 44.4711 47.5291H51.8081C52.1108 47.5291 52.197 47.4433 52.2397 47.2263V46.8378V46.5791C52.1961 46.4057 52.1535 46.147 51.7654 46.1048C50.9448 46.0617 48.5283 45.8452 46.8871 45.6731C44.772 45.4571 44.2546 44.5516 44.1679 43.7741C44.1248 43.5145 44.1248 43.1695 44.1248 42.8673C44.1248 42.6081 44.1248 42.22 44.1679 41.9173C44.4706 40.5353 45.5068 39.8889 47.3187 39.8889H54.3543C54.6144 39.8889 54.7011 39.9329 54.7011 40.1481V41.7457C54.7011 41.96 54.6144 42.0471 54.3543 42.004H47.4485C47.1463 42.004 47.0173 42.1333 46.9733 42.4352V42.8237C46.9733 43.0397 47.1031 43.2127 47.405 43.2545C48.2269 43.3425 50.7727 43.5581 51.7227 43.6456ZM64.1963 43.6456C65.9246 43.8177 67.1755 44.1195 67.5213 45.7603C67.5213 45.8887 67.5645 46.3208 67.5645 46.796C67.5645 47.0987 67.5645 47.4859 67.4782 47.8318C67.1768 49.3854 66.0117 49.6873 64.198 49.6873H56.9455C56.6863 49.6873 56.6428 49.645 56.6428 49.3854V47.8318C56.6428 47.5722 56.6863 47.5291 56.9455 47.5291H64.2838C64.5857 47.5291 64.6706 47.4433 64.715 47.2263V46.8378V46.5791C64.6701 46.4057 64.5848 46.147 64.2398 46.1048C63.4201 46.0617 61.0027 45.8452 59.3629 45.6731C57.2469 45.4571 56.773 44.5516 56.6428 43.7741C56.5997 43.5145 56.5997 43.1695 56.5997 42.8673C56.5997 42.6081 56.5997 42.22 56.6428 41.9173C56.9455 40.5353 57.9813 39.8889 59.7936 39.8889H66.8305C67.0884 39.8889 67.1759 39.9329 67.1759 40.1481V41.7457C67.1759 41.96 67.0884 42.0471 66.8305 42.004H59.9234C59.6216 42.004 59.4927 42.1333 59.4487 42.4352V42.8237C59.4487 43.0397 59.5353 43.2127 59.8812 43.2545C60.7013 43.3425 63.2472 43.5581 64.1963 43.6456Z" fill="url(#paint6_radial_781_3129)"/>
</g>
<defs>
<linearGradient id="paint0_linear_781_3129" x1="60" y1="8.11648" x2="60" y2="69.4529" gradientUnits="userSpaceOnUse">
<stop offset="0.194" stop-color="white"/>
<stop offset="0.208" stop-color="#F8F8F8"/>
<stop offset="0.366" stop-color="#AEAEAE"/>
<stop offset="0.513" stop-color="#707070"/>
<stop offset="0.647" stop-color="#404040"/>
<stop offset="0.764" stop-color="#1D1D1D"/>
<stop offset="0.86" stop-color="#080808"/>
<stop offset="0.922"/>
</linearGradient>
<radialGradient id="paint1_radial_781_3129" cx="0" cy="0" r="1" gradientUnits="userSpaceOnUse" gradientTransform="translate(35.2971 -8.14461) scale(61.3637 61.3637)">
<stop offset="0.202" stop-color="white"/>
<stop offset="0.382" stop-color="#FDFDFD"/>
<stop offset="0.487" stop-color="#F4F4F4"/>
<stop offset="0.573" stop-color="#E6E6E6"/>
<stop offset="0.648" stop-color="#D2D2D2"/>
<stop offset="0.689" stop-color="#C4C4C4"/>
<stop offset="1" stop-color="#333333"/>
</radialGradient>
<radialGradient id="paint2_radial_781_3129" cx="0" cy="0" r="1" gradientUnits="userSpaceOnUse" gradientTransform="translate(183.801 90.1444) scale(127.798 127.798)">
<stop offset="0.202" stop-color="white"/>
<stop offset="0.368" stop-color="#E4E4E4"/>
<stop offset="0.594" stop-color="#C4C4C4"/>
<stop offset="1" stop-color="#333333"/>
</radialGradient>
<radialGradient id="paint3_radial_781_3129" cx="0" cy="0" r="1" gradientUnits="userSpaceOnUse" gradientTransform="translate(50.0362 61.9426) scale(39.2344 39.2344)">
<stop offset="0.202" stop-color="white"/>
<stop offset="0.368" stop-color="#E4E4E4"/>
<stop offset="0.594" stop-color="#C4C4C4"/>
<stop offset="1" stop-color="#333333"/>
</radialGradient>
<radialGradient id="paint4_radial_781_3129" cx="0" cy="0" r="1" gradientUnits="userSpaceOnUse" gradientTransform="translate(81.6973 102.061) scale(74.4454 74.4454)">
<stop offset="0.202" stop-color="white"/>
<stop offset="0.368" stop-color="#E4E4E4"/>
<stop offset="0.594" stop-color="#C4C4C4"/>
<stop offset="1" stop-color="#333333"/>
</radialGradient>
<radialGradient id="paint5_radial_781_3129" cx="0" cy="0" r="1" gradientUnits="userSpaceOnUse" gradientTransform="translate(59.4104 14.7671) scale(59.1589 59.1589)">
<stop offset="0.202" stop-color="white"/>
<stop offset="0.397" stop-color="#FDFDFD"/>
<stop offset="0.51" stop-color="#F4F4F4"/>
<stop offset="0.603" stop-color="#E6E6E6"/>
<stop offset="0.684" stop-color="#D2D2D2"/>
<stop offset="0.728" stop-color="#C4C4C4"/>
<stop offset="1" stop-color="#4D4D4D"/>
</radialGradient>
<radialGradient id="paint6_radial_781_3129" cx="0" cy="0" r="1" gradientUnits="userSpaceOnUse" gradientTransform="translate(60.7805 20.6913) scale(39.8468 39.8468)">
<stop offset="0.111" stop-color="#4D4D4D"/>
<stop offset="0.248" stop-color="#494949"/>
<stop offset="0.355" stop-color="#404040"/>
<stop offset="0.451" stop-color="#2F2F2F"/>
<stop offset="0.541" stop-color="#181818"/>
<stop offset="0.611"/>
</radialGradient>
<clipPath id="clip0_781_3129">
<rect width="88" height="75.3632" fill="white" transform="translate(16 7)"/>
</clipPath>
</defs>
</svg>
