<svg width="120" height="90" viewBox="0 0 120 90" fill="none" xmlns="http://www.w3.org/2000/svg">
<path d="M60.3511 2.00029C83.8236 1.91521 102.915 20.8787 102.991 44.3511C103.076 67.8236 84.1128 86.9146 60.6404 86.9997C37.1679 87.0848 18.0854 68.1128 18.0003 44.6404C17.9152 21.1679 36.8786 2.07685 60.3511 2.00029Z" fill="url(#paint0_linear_781_3430)" stroke="#141414" stroke-width="0.0825237" stroke-linecap="square"/>
<path d="M60.4957 82.6523C50.3036 82.6523 40.7156 78.6877 33.5096 71.4733C26.3037 64.2673 22.3306 54.6793 22.3306 44.4872C22.3306 34.2951 26.3037 24.707 33.5096 17.5011C40.7156 10.2951 50.3036 6.32208 60.4957 6.32208C70.6878 6.32208 80.2759 10.2951 87.4818 17.5011C94.6878 24.707 98.6608 34.2866 98.6608 44.4872C98.6608 54.6793 94.6878 64.2588 87.4818 71.4733C80.2759 78.6877 70.6963 82.6523 60.4957 82.6523Z" fill="#141414"/>
<path d="M60.4958 79.5556C51.1289 79.5556 42.3236 75.9058 35.7047 69.2869C29.0772 62.668 25.436 53.8626 25.436 44.4957C25.436 35.1289 29.0858 26.3235 35.7047 19.7046C42.3236 13.0857 51.1289 9.43591 60.4958 9.43591C69.8627 9.43591 78.668 13.0772 85.2955 19.7046C91.9229 26.3235 95.5641 35.1289 95.5641 44.4957C95.5641 53.8626 91.9144 62.668 85.2955 69.2869C78.668 75.9143 69.8627 79.5556 60.4958 79.5556Z" fill="white"/>
<path d="M87.1161 61.3408C84.5212 58.9077 81.2543 57.2827 77.6981 56.7127C77.2387 56.6446 76.8133 56.9509 76.7368 57.4103C76.7283 57.4529 76.7283 57.4954 76.7283 57.5379V58.8311C76.7283 59.2139 76.4305 59.6478 76.0477 59.6478C75.7669 59.6478 75.4862 59.6563 75.2054 59.6478C74.21 59.6308 74.0314 58.4142 74.227 57.6911C76.3454 50.1023 76.8644 45.4997 76.8389 42.1477C76.8133 38.583 76.7198 35.0353 75.1203 30.3391C73.572 25.8216 72.1597 21.3891 64.69 14.6256C64.1796 14.1662 63.6691 13.945 62.9885 13.894C62.2568 13.8429 61.6528 13.8174 60.9041 13.8174C57.7989 13.8174 54.8127 14.2768 51.9797 15.119C50.9247 15.4423 51.0779 16.174 51.6649 16.6759C54.4894 19.0921 58.3093 22.7163 60.9467 27.2424C59.2792 27.404 58.003 26.4767 56.9226 25.4473C53.4004 22.0953 49.7252 19.6961 46.807 18.0627C46.2966 17.7819 45.7946 17.6628 45.2927 17.9521C42.0768 19.8238 39.9159 21.5763 37.3636 24.537C36.9297 25.0389 37.2105 25.4303 37.6359 25.66C40.4263 27.1403 44.7907 29.9478 48.7978 33.589C47.9811 34.2782 46.6879 34.0485 44.8078 33.0701C41.2005 31.1729 37.7379 30.0839 35.0921 29.4033C34.5221 29.2587 33.918 29.4203 33.6288 29.9223C31.9358 32.8659 30.7702 36.388 30.2172 39.9527C30.1151 40.6418 30.5745 41.2459 31.2637 41.365C37.4317 42.4455 48.415 45.338 50.2441 57.9973C50.4058 59.1033 49.3934 60.0817 48.0662 59.4607C46.2115 58.5929 44.3654 57.7251 42.5107 56.8573C42.315 56.7637 42.0938 56.6872 41.8811 56.6872H33.1524C31.9102 56.6872 31.3998 57.8782 32.208 58.7971C34.3094 61.2132 36.2321 63.8251 37.8826 66.59C38.0272 66.8367 38.1974 66.9303 38.4781 66.9303H42.2895C42.5447 66.9303 42.7744 66.8708 42.9956 66.7347C44.1952 66.0285 45.3948 65.3309 46.5944 64.6248C46.8156 64.4886 47.0368 64.4972 47.3005 64.4972H76.0306C76.4135 64.4972 76.7283 64.7439 76.7283 65.1352V66.5475C76.7283 67.0579 77.1877 67.4493 77.6981 67.3727C81.2543 66.8027 84.5297 65.1778 87.1161 62.7446C87.5074 62.3788 87.5329 61.7662 87.1671 61.3749C87.1501 61.3749 87.1331 61.3579 87.1161 61.3408Z" fill="url(#paint1_linear_781_3430)" stroke="#141414" stroke-width="0.0969016"/>
<path d="M65.711 57.2061C62.8779 57.2061 60.5894 54.9176 60.5894 52.093C60.5894 49.2685 62.8779 46.9715 65.711 46.9715C68.5355 46.9715 70.8325 49.26 70.8325 52.093C70.8325 54.9091 68.5355 57.2061 65.711 57.2061ZM84.5298 62.0469C82.5901 60.4645 80.5397 59.4351 78.047 58.9246C77.8258 58.8821 77.7152 58.9672 77.7152 59.1969V59.3245C77.7152 59.937 77.1026 60.6517 76.4901 60.6517H74.8737C73.5124 60.6517 72.2873 59.5287 72.7978 57.7251C78.6425 36.8815 72.1087 23.9924 63.8733 16.778C61.6358 14.8213 61.4316 14.7107 59.2027 14.7957C57.4416 14.8638 55.3827 15.0765 53.6387 15.5019C53.2984 15.5869 53.0091 15.8592 53.46 16.2335C57.6883 19.7982 63.3459 25.9407 66.0513 35.5032C66.1449 35.835 65.9492 35.8095 65.694 35.8265C63.2693 35.9711 62.4526 34.4908 61.6954 33.5465C56.1995 26.7064 50.0485 22.5547 45.4374 19.8237C44.978 19.5515 44.9014 19.5515 44.5526 19.7557C42.6979 20.8276 40.6221 22.5291 39.1588 24.086C38.8525 24.4178 38.929 24.571 39.2694 24.7496C43.4381 26.9871 49.7762 31.3856 55.672 38.8467C56.0378 39.3061 56.0634 39.5188 55.8592 39.6464C54.7277 40.3185 52.8305 40.31 50.7631 39.0254C45.1481 35.5202 39.4395 33.0445 34.9815 31.7514C34.5051 31.6153 34.42 31.6408 34.2243 32.0491C33.1354 34.3377 31.9528 37.3068 31.5189 39.8846C31.4679 40.2249 31.4339 40.2505 31.7486 40.31C44.0336 42.8028 50.7716 49.5408 51.5373 58.5503C51.6734 60.1157 49.9038 61.6216 48.1428 61.0601C46.2371 60.456 44.3824 59.7754 42.4682 59.1714C42.264 59.1033 42.0513 59.0693 41.8386 59.0778C39.2013 59.0778 36.5554 59.0778 33.9096 59.0778C33.5608 59.0778 33.3481 59.299 33.6969 59.7414C35.6877 62.2681 36.8532 63.6974 38.2569 66.054C38.4016 66.3007 38.5632 66.3943 38.8525 66.3943C39.8223 66.3943 40.7922 66.3943 41.7706 66.3943C42.1449 66.4028 42.5022 66.3007 42.8255 66.1051C43.8805 65.484 44.9354 64.9055 45.9904 64.2844C46.3307 64.0888 46.6114 63.9697 47.0028 63.9697C56.5908 63.9697 66.8765 63.9697 76.4646 63.9697C77.0771 63.9697 77.7067 64.6843 77.7067 65.2968V65.5095C77.7067 65.7392 77.8173 65.8243 78.0385 65.7818C80.5312 65.2628 82.573 64.0717 84.5213 62.4893C84.6999 62.3362 84.6999 62.1916 84.5298 62.0469Z" fill="#42BD3B"/>
<path d="M71.0452 51.4975C71.5046 54.6539 69.3181 57.589 66.1618 58.0484C63.0055 58.5078 60.0704 56.3299 59.611 53.1735C59.1516 50.0172 61.338 47.0821 64.4858 46.6227C67.6507 46.1633 70.5858 48.3412 71.0452 51.4975Z" fill="url(#paint2_linear_781_3430)"/>
<path d="M66.2554 46.6311L64.5199 58.0568C67.0041 58.4142 69.5309 57.0955 70.6028 54.6878C71.9045 51.7697 70.5943 48.3667 67.6847 47.065C67.2338 46.8608 66.7489 46.7162 66.2554 46.6311Z" fill="url(#paint3_linear_781_3430)"/>
<path d="M70.2115 52.1866C70.2115 54.322 68.4759 56.0576 66.3405 56.0576C64.2051 56.0576 62.4695 54.322 62.4695 52.1866C62.4695 50.0427 64.1966 48.3157 66.3405 48.3157C68.4759 48.3157 70.2115 50.0512 70.2115 52.1866Z" fill="white" stroke="#141414" stroke-width="0.0969016"/>
<defs>
<linearGradient id="paint0_linear_781_3430" x1="60.6461" y1="87.1391" x2="60.3523" y2="1.8418" gradientUnits="userSpaceOnUse">
<stop stop-color="#99A2A7"/>
<stop offset="0.476" stop-color="#98A3A8"/>
<stop offset="0.535" stop-color="#E6E6E6"/>
<stop offset="1" stop-color="#E6E6E6"/>
</linearGradient>
<linearGradient id="paint1_linear_781_3430" x1="33.6232" y1="69.6708" x2="90.114" y2="17.9814" gradientUnits="userSpaceOnUse">
<stop stop-color="#151313"/>
<stop offset="0.085" stop-color="#151313"/>
<stop offset="0.128" stop-color="#F8F1F1"/>
<stop offset="0.229" stop-color="#151313"/>
<stop offset="0.304" stop-color="#141414"/>
<stop offset="0.382" stop-color="#F8F1F1"/>
<stop offset="0.45" stop-color="#151313"/>
<stop offset="0.565" stop-color="#F8F1F4"/>
<stop offset="0.627" stop-color="#141414"/>
<stop offset="0.787" stop-color="#F8F1F1"/>
<stop offset="1" stop-color="#F8F1F2"/>
</linearGradient>
<linearGradient id="paint2_linear_781_3430" x1="64.822" y1="51.6872" x2="70.2514" y2="58.7856" gradientUnits="userSpaceOnUse">
<stop stop-color="#151313"/>
<stop offset="0.163" stop-color="#CCC4C4"/>
<stop offset="0.496" stop-color="#B7ACAD"/>
<stop offset="1" stop-color="#151313"/>
</linearGradient>
<linearGradient id="paint3_linear_781_3430" x1="67.2893" y1="52.0038" x2="59.1894" y2="55.2943" gradientUnits="userSpaceOnUse">
<stop stop-color="#151313"/>
<stop offset="0.25" stop-color="#CCC4C4"/>
<stop offset="0.5" stop-color="#B7ACAD"/>
<stop offset="1" stop-color="#151313"/>
</linearGradient>
</defs>
</svg>
