<svg width="24" height="28" viewBox="0 0 24 28" fill="none" xmlns="http://www.w3.org/2000/svg">
<path d="M0.75 2.75C0.75 2.08696 1.01339 1.45107 1.48223 0.982233C1.95107 0.513392 2.58696 0.25 3.25 0.25H15.7275C16.3905 0.250142 17.0263 0.513627 17.495 0.9825L22.5175 6.005C22.9864 6.47373 23.2499 7.10951 23.25 7.7725V25.25C23.25 25.913 22.9866 26.5489 22.5178 27.0178C22.0489 27.4866 21.413 27.75 20.75 27.75H3.25C2.58696 27.75 1.95107 27.4866 1.48223 27.0178C1.01339 26.5489 0.75 25.913 0.75 25.25V2.75ZM3.25 2.125C3.08424 2.125 2.92527 2.19085 2.80806 2.30806C2.69085 2.42527 2.625 2.58424 2.625 2.75V25.25C2.625 25.4158 2.69085 25.5747 2.80806 25.6919C2.92527 25.8092 3.08424 25.875 3.25 25.875H20.75C20.9158 25.875 21.0747 25.8092 21.1919 25.6919C21.3092 25.5747 21.375 25.4158 21.375 25.25V9.625H16.375C15.712 9.625 15.0761 9.36161 14.6072 8.89277C14.1384 8.42393 13.875 7.78804 13.875 7.125V2.125H3.25ZM15.75 2.125V7.125C15.75 7.29076 15.8158 7.44973 15.9331 7.56694C16.0503 7.68415 16.2092 7.75 16.375 7.75H21.375C21.3695 7.59195 21.3043 7.44187 21.1925 7.33L16.17 2.3075C16.0581 2.19572 15.908 2.13051 15.75 2.125Z" fill="#3339B9"/>
</svg>
