<svg width="36" height="26" viewBox="0 0 36 26" fill="none" xmlns="http://www.w3.org/2000/svg">
<path d="M9.63562 4.25H12.6V9.5H6.26062L7.97062 5.34922C8.24062 4.6875 8.89875 4.25 9.63562 4.25ZM15.3 9.5V4.25H19.8675C20.4131 4.25 20.9306 4.49062 21.2738 4.90625L25.0537 9.5H15.3ZM29.7113 9.55469L24.0863 2.71875C23.0625 1.47188 21.51 0.75 19.8675 0.75H9.63562C7.425 0.75 5.43937 2.05703 4.62375 4.04766L2.28375 9.74062C0.945 10.2547 0 11.518 0 13V19.125C0 20.093 0.804375 20.875 1.8 20.875H3.67313C4.10063 23.3578 6.3225 25.25 9 25.25C11.6775 25.25 13.8994 23.3578 14.3269 20.875H21.6731C22.1006 23.3578 24.3225 25.25 27 25.25C29.6775 25.25 31.8994 23.3578 32.3269 20.875H34.2C35.1956 20.875 36 20.093 36 19.125V16.5C36 12.9344 33.255 9.99219 29.7113 9.55469ZM24.4519 19.125C24.5665 18.7956 24.7472 18.4915 24.9837 18.2306C25.2202 17.9697 25.5076 17.757 25.8293 17.605C26.151 17.453 26.5006 17.3646 26.8577 17.3451C27.2149 17.3255 27.5724 17.3751 27.9097 17.4911C28.2469 17.607 28.5571 17.7869 28.8222 18.0204C29.0873 18.2538 29.3021 18.5362 29.454 18.851C29.6059 19.1659 29.692 19.5069 29.7072 19.8544C29.7223 20.2018 29.6664 20.5488 29.5425 20.875C29.4279 21.2044 29.2471 21.5085 29.0107 21.7694C28.7742 22.0303 28.4868 22.243 28.1651 22.395C27.8434 22.547 27.4938 22.6354 27.1366 22.6549C26.7795 22.6745 26.4219 22.6249 26.0847 22.5089C25.7475 22.393 25.4373 22.2131 25.1722 21.9796C24.9071 21.7462 24.6923 21.4638 24.5404 21.149C24.3885 20.8341 24.3024 20.4931 24.2872 20.1456C24.272 19.7982 24.328 19.4512 24.4519 19.125ZM9 17.375C9.71608 17.375 10.4028 17.6516 10.9092 18.1438C11.4155 18.6361 11.7 19.3038 11.7 20C11.7 20.6962 11.4155 21.3639 10.9092 21.8562C10.4028 22.3484 9.71608 22.625 9 22.625C8.28392 22.625 7.59716 22.3484 7.09081 21.8562C6.58446 21.3639 6.3 20.6962 6.3 20C6.3 19.3038 6.58446 18.6361 7.09081 18.1438C7.59716 17.6516 8.28392 17.375 9 17.375Z" fill="#3339B9"/>
</svg>
