<svg width="20" height="20" viewBox="0 0 20 20" fill="none" xmlns="http://www.w3.org/2000/svg">
<path d="M4.375 8.75C3.16667 8.75 2.13542 8.32292 1.28125 7.46875C0.427083 6.61458 0 5.58333 0 4.375C0 3.16667 0.427083 2.13542 1.28125 1.28125C2.13542 0.427083 3.16667 0 4.375 0C5.58333 0 6.61458 0.427083 7.46875 1.28125C8.32292 2.13542 8.75 3.16667 8.75 4.375C8.75 5.58333 8.32292 6.61458 7.46875 7.46875C6.61458 8.32292 5.58333 8.75 4.375 8.75ZM4.375 6.25C4.89583 6.25 5.33875 6.06792 5.70375 5.70375C6.06875 5.33958 6.25083 4.89667 6.25 4.375C6.24917 3.85333 6.06708 3.41083 5.70375 3.0475C5.34042 2.68417 4.8975 2.50167 4.375 2.5C3.8525 2.49833 3.41 2.68083 3.0475 3.0475C2.685 3.41417 2.5025 3.85667 2.5 4.375C2.4975 4.89333 2.68 5.33625 3.0475 5.70375C3.415 6.07125 3.8575 6.25333 4.375 6.25ZM15.625 20C14.4167 20 13.3854 19.5729 12.5312 18.7188C11.6771 17.8646 11.25 16.8333 11.25 15.625C11.25 14.4167 11.6771 13.3854 12.5312 12.5312C13.3854 11.6771 14.4167 11.25 15.625 11.25C16.8333 11.25 17.8646 11.6771 18.7188 12.5312C19.5729 13.3854 20 14.4167 20 15.625C20 16.8333 19.5729 17.8646 18.7188 18.7188C17.8646 19.5729 16.8333 20 15.625 20ZM15.625 17.5C16.1458 17.5 16.5887 17.3179 16.9538 16.9538C17.3188 16.5896 17.5008 16.1467 17.5 15.625C17.4992 15.1033 17.3171 14.6608 16.9538 14.2975C16.5904 13.9342 16.1475 13.7517 15.625 13.75C15.1025 13.7483 14.66 13.9308 14.2975 14.2975C13.935 14.6642 13.7525 15.1067 13.75 15.625C13.7475 16.1433 13.93 16.5863 14.2975 16.9538C14.665 17.3212 15.1075 17.5033 15.625 17.5ZM1.75 20L0 18.25L18.25 0L20 1.75L1.75 20Z" fill="#3339B9"/>
</svg>
