<svg width="120" height="90" viewBox="0 0 120 90" fill="none" xmlns="http://www.w3.org/2000/svg">
<path fill-rule="evenodd" clip-rule="evenodd" d="M116 45.3093C116 60.8008 90.8362 73.5033 60 73.5033C29.017 73.5033 4 60.8008 4 45.3093C4 29.692 29.017 17 60 17C90.8571 17 116 29.6972 116 45.3093ZM57.3159 41.3722C61.828 40.4558 66.2492 39.1382 70.5269 37.4351C82.4587 33.2412 88.0472 28.9319 89.19 27.9148C90.7156 26.5151 89.5727 26.0066 88.1782 25.5033C80.0472 23.0865 67.7326 21.3093 59.8689 21.692C54.1547 21.8178 50.9567 28.0406 49.709 30.7091C43.7431 43.291 54.4273 42.0066 57.3263 41.3722H57.3159ZM20.7497 59.1494C21.0013 58.6252 30.3958 36.675 41.4469 24.7379C42.8414 23.4692 41.3159 23.2176 39.5387 23.595C21.253 27.1494 8.5557 35.5321 8.5557 45.1835C8.5557 50.5151 12.367 55.4692 18.7156 59.4063C19.0293 59.6138 19.4071 59.702 19.7802 59.6549C20.1534 59.6077 20.4974 59.4284 20.7497 59.1494ZM62.5583 49.1206C58.0462 50.037 53.625 51.3546 49.3473 53.0577C37.4155 57.2516 31.827 61.692 30.6842 62.709C29.1586 63.9777 30.3015 64.6121 31.7012 64.9948C39.827 67.4063 52.1468 69.1887 60.0105 68.9266C65.7248 68.675 68.9227 62.4522 70.2962 59.7838C76.1363 47.2018 65.4731 48.6121 62.5531 49.1206H62.5583ZM111.313 45.3093C111.313 39.9777 107.644 35.1547 101.153 31.2176C101.007 31.0917 100.836 30.9977 100.651 30.9419C100.467 30.886 100.272 30.8693 100.081 30.893C99.889 30.9167 99.7046 30.9802 99.539 31.0794C99.3734 31.1787 99.2305 31.3114 99.1193 31.4692C98.8676 31.8519 89.4731 53.8178 78.422 65.7549C77.1533 67.1494 78.5531 67.4063 80.3303 67.0236C98.616 63.3539 111.313 54.9659 111.313 45.3093Z" fill="#005CA5"/>
</svg>
