<svg width="120" height="90" viewBox="0 0 120 90" fill="none" xmlns="http://www.w3.org/2000/svg">
<g clip-path="url(#clip0_781_5962)">
<g clip-path="url(#clip1_781_5962)">
<path d="M113.841 37.5581L113.792 37.4544H110.308L115.804 52.3385V52.4422H119.336L113.841 37.5581Z" fill="black"/>
<path d="M104.469 37.5063L100.201 52.4422H103.439L106.776 41.3958H110.75L109.327 37.4544L104.469 37.5063Z" fill="black"/>
<path d="M3.93698 44.6112L3.88791 44.5593V41.707L5.5561 39.84H15.7124L20.6188 44.9742V39.9437L18.1656 37.5063L3.00475 37.4544L0.747803 39.9437V43.2109L3.93698 46.7375V44.6112Z" fill="black"/>
<path d="M17.4787 48.2415H17.4297V48.3451L15.6634 50.0047H5.50703L0.747803 44.5075V49.9529L3.20101 52.4422H18.1656L20.6679 49.901V46.3226L17.4787 43.1072V48.2415Z" fill="black"/>
<path d="M54.5713 44.6112L54.5222 44.5593V41.707L56.1904 39.84H66.2977L71.2041 44.9742V39.9437L68.7999 37.5063L53.6391 37.4544L51.3331 39.9437V43.2109L54.5713 46.7375V44.6112Z" fill="black"/>
<path d="M68.1131 48.2415H68.064V48.3451L66.2977 50.0047H56.1413L51.3331 44.5075V49.9529L53.7863 52.4422H68.7999L71.2532 49.901V46.3226L68.1131 43.1072V48.2415Z" fill="black"/>
<path d="M38.3311 37.4544L36.4175 47.8266L37.2026 52.3903L38.5273 52.4422L40.4408 41.3958H42.8449V52.5458H46.0342V39.9956L43.8263 37.4544H38.3311Z" fill="black"/>
<path d="M27.8803 37.5063L25.7215 40.0993V52.494H25.9178C26.2122 52.494 27.7822 52.494 28.8125 52.494H28.9597V41.4477H31.3639L33.1302 52.5459H36.3684L33.7189 37.5063H27.8803Z" fill="black"/>
<path d="M90.2408 37.4544L93.5279 40.1512V48.2933L91.1733 50.0047H80.1828V39.9437H91.7128L88.7199 37.4544H76.8464V52.4422H94.4115L96.7662 49.9529V39.9437L93.7733 37.4544H90.2408Z" fill="black"/>
</g>
</g>
<defs>
<clipPath id="clip0_781_5962">
<rect width="120" height="16" fill="white" transform="translate(0 37)"/>
</clipPath>
<clipPath id="clip1_781_5962">
<rect width="120" height="16" fill="white" transform="translate(0 37)"/>
</clipPath>
</defs>
</svg>
