<svg width="35" height="36" viewBox="0 0 35 36" fill="none" xmlns="http://www.w3.org/2000/svg">
<g clip-path="url(#clip0_5004_2036)">
<path d="M16.8973 26.7482C12.2614 26.5547 7.97759 25.8054 4.16758 23.4165C3.1915 22.8046 2.27741 22.0215 1.52008 21.1586C-0.513326 18.8416 -0.488204 16.0002 1.48453 13.6382C3.07441 11.7345 5.16864 10.5323 7.48485 9.75825C15.0684 7.22406 22.5658 7.30224 29.845 10.8262C31.0479 11.4085 32.1659 12.2858 33.1158 13.2301C35.618 15.7178 35.6098 18.9316 33.1993 21.5109C31.2099 23.6396 28.6315 24.7754 25.8873 25.5938C22.8886 26.4879 19.8071 26.7764 16.8973 26.7482ZM17.1675 25.6093C20.4942 25.6026 23.4185 25.2309 26.2492 24.2907C28.3528 23.5922 30.3307 22.6594 31.9123 21.0615C34.1432 18.8076 34.1545 16.0553 31.9417 13.7952C30.6576 12.4836 29.0931 11.5885 27.3841 10.9592C21.3269 8.7283 15.1946 8.65824 9.03066 10.4814C6.85548 11.1248 4.83691 12.1007 3.20707 13.7172C0.901289 16.0041 0.855158 18.8166 3.20164 21.0665C4.09927 21.9272 5.17745 22.6655 6.29178 23.2332C9.80136 25.0216 13.6112 25.562 17.1675 25.6093Z" fill="#1D252D"/>
<path d="M27.1213 17.8745C27.0216 17.5557 26.8811 17.2431 26.8302 16.9167C26.7012 16.0907 26.1605 15.8589 25.3994 15.7457C22.8627 15.3684 20.3756 15.8394 17.8752 16.0967C17.1703 16.1692 16.4698 16.2828 15.7665 16.3708C14.6823 16.5063 13.9743 17.0557 13.6957 18.1279C13.4051 19.2454 13.0838 20.3553 12.6304 21.5098C12.5527 21.2856 12.46 21.0651 12.3999 20.8362C12.155 19.903 11.9346 18.9634 11.6775 18.0336C11.4218 17.1089 10.8303 16.5521 9.83261 16.4206C7.87016 16.1619 5.91153 15.8762 3.95157 15.5996C3.6413 15.5558 3.33249 15.5016 3.02294 15.4521C3.01795 15.389 3.01281 15.3261 3.00781 15.263C3.90001 15.132 4.79176 14.9987 5.68425 14.8708C7.03849 14.6767 8.39448 14.4939 9.74754 14.2919C10.7554 14.1413 11.4329 13.6024 11.7453 12.6187C12.0113 11.7803 12.3184 10.9546 12.7791 10.1136C12.9943 10.762 13.2504 11.4003 13.4162 12.0607C13.7634 13.4437 14.5937 14.2037 16.0581 14.3535C18.2219 14.575 20.3731 14.936 22.5403 15.097C23.6216 15.1774 24.7383 15.0096 25.8146 14.8197C26.1876 14.7539 26.5288 14.3163 26.8056 13.9844C26.9912 13.7619 27.0379 13.4263 27.1813 13.0509C27.2882 13.2028 27.3683 13.267 27.3815 13.3427C27.5957 14.5611 28.4178 14.9759 29.5692 15.0226C30.0381 15.0416 30.5024 15.1741 30.9688 15.2548C30.9687 15.3166 30.9684 15.3784 30.9682 15.4402C30.4307 15.54 29.8956 15.7056 29.355 15.7255C28.3013 15.7642 27.6471 16.1898 27.4963 17.2654C27.4678 17.4683 27.3532 17.6595 27.2782 17.8562C27.2261 17.8623 27.1738 17.8684 27.1213 17.8745Z" fill="#1D252D"/>
<path d="M24.5538 24.0334C24.4723 23.9773 24.437 23.9658 24.4343 23.9493C24.2007 22.512 23.0928 22.2887 21.9313 22.3067C20.7159 22.3255 19.4961 22.4529 18.2939 22.634C18.0019 22.678 17.7035 23.0818 17.5301 23.3877C17.3261 23.7477 17.2551 24.1812 16.976 24.5757C16.8658 24.2409 16.7249 23.9126 16.652 23.5701C16.5128 22.915 16.1461 22.5851 15.4551 22.5209C14.6395 22.445 13.8315 22.2901 13.0201 22.1694C13.0208 22.0962 13.0215 22.0231 13.0223 21.9498C13.5895 21.8688 14.1556 21.7298 14.7243 21.7189C15.8643 21.6972 16.6625 21.3088 16.8465 20.0952C16.8598 20.0076 16.9415 19.9303 17.05 19.7511C17.1725 20.0229 17.2954 20.2182 17.3497 20.4304C17.5425 21.1824 18.0202 21.6074 18.7993 21.6296C20.1117 21.667 21.4252 21.6769 22.7382 21.6757C23.5873 21.675 24.0936 21.2362 24.2657 20.4127C24.2922 20.2862 24.3726 20.1707 24.4541 19.9934C24.5619 20.1203 24.664 20.1845 24.6721 20.2585C24.7982 21.4294 25.6505 21.6135 26.6106 21.6892C27.1527 21.732 27.6903 21.8308 28.2299 21.9043C28.2281 21.9684 28.2265 22.0325 28.2247 22.0968C27.6161 22.1926 27.0093 22.3506 26.3982 22.3699C25.4416 22.4001 24.9035 22.8413 24.7124 23.7465C24.6938 23.8341 24.6233 23.9108 24.5538 24.0334Z" fill="#1D252D"/>
<path d="M22.0954 21.2394C21.9633 20.83 21.8069 20.4263 21.7055 20.0096C21.5861 19.5185 21.2849 19.2784 20.7944 19.2087C19.9116 19.0831 19.0308 18.9428 18.1492 18.8085C18.148 18.7341 18.147 18.6598 18.1458 18.5854C18.6154 18.5142 19.0836 18.3935 19.5546 18.3815C20.7747 18.3505 21.7898 18.0836 21.9971 16.663C22.0083 16.5866 22.1038 16.5222 22.1753 16.4333C22.6056 18.3696 24.1669 18.4014 25.645 18.4546C26.4387 18.4832 27.2503 18.341 28.0334 18.1799C28.3095 18.123 28.5622 17.8086 28.7571 17.5594C28.9262 17.3433 28.9987 17.0533 29.2118 16.7247C29.5152 18.5954 31.1659 18.1815 32.498 18.6745C32.0964 18.775 31.885 18.84 31.6686 18.8788C31.4527 18.9177 31.2323 18.933 31.0133 18.9543C30.1419 19.0387 29.5391 19.4138 29.4226 20.3465C29.4037 20.4988 29.3054 20.6414 29.2093 20.8706C29.1059 20.6682 29.0028 20.5502 28.9865 20.4214C28.8497 19.3444 28.13 18.9444 27.1512 18.9808C25.8884 19.0278 24.6238 19.1311 23.3725 19.3012C23.1034 19.3378 22.8195 19.7281 22.6662 20.0189C22.4705 20.3901 22.4004 20.8258 22.2761 21.2335C22.2162 21.2355 22.1558 21.2374 22.0954 21.2394Z" fill="#1D252D"/>
</g>
<defs>
<clipPath id="clip0_5004_2036">
<rect width="35" height="35" fill="white" transform="translate(0 0.5)"/>
</clipPath>
</defs>
</svg>
