<svg width="120" height="90" viewBox="0 0 120 90" fill="none" xmlns="http://www.w3.org/2000/svg">
<g clip-path="url(#clip0_780_50)">
<path d="M57.1889 8.03509C47.5712 8.21813 35.9895 9.88831 29.2629 13.9249C24.9256 16.5542 19.5926 21.9081 17.956 30.1508C16.3194 38.3935 17.0759 46.4215 18.69 54.6727C20.3041 62.9238 23.537 72.1607 32.4929 76.9185C41.4488 81.6764 47.4553 82.2409 59.7298 82.2055C72.0044 82.2409 78.0109 81.6764 86.9668 76.9185C95.9226 72.1607 99.1556 62.9238 100.77 54.6727C102.384 46.4215 103.14 38.3935 101.504 30.1508C99.8671 21.9081 94.5341 16.5542 90.1968 13.9249C81.4574 9.11752 71.8424 8.19543 62.2708 8.03509C60.5275 8.0467 58.8031 8.01564 57.1889 8.03509ZM69.7129 10.254C73.2644 10.5928 82.1509 11.2816 88.8018 15.2469C95.4527 19.2122 98.4257 24.2549 99.6677 30.3708C100.91 36.4868 100.802 44.2217 99.0807 54.0117C97.3597 63.8017 92.544 71.9471 86.0118 75.3775C79.4796 78.8079 71.1869 80.6233 59.7298 80.4463C48.2728 80.6233 39.9801 78.8079 33.4479 75.3775C26.9157 71.9471 22.1 63.8017 20.379 54.0117C18.658 44.2217 18.5499 36.4868 19.792 30.3708C21.034 24.2549 24.007 19.2122 30.6579 15.2469C37.3088 11.2816 46.1953 10.5928 49.7468 10.254C56.3793 9.70342 63.1636 9.66022 69.7129 10.254ZM57.5269 11.956C52.075 12.024 46.2388 12.6912 42.2447 13.5495C37.6801 14.5305 36.1194 14.8768 32.183 17.2317C28.2466 19.5866 23.4062 24.3813 21.921 31.764C20.4356 39.1466 21.1227 46.3378 22.5876 53.728C24.0524 61.1182 26.9863 69.3915 35.1144 73.653C48.623 80.6886 71.1757 80.4085 84.3453 73.653C92.4734 69.3915 95.4072 61.1182 96.8721 53.728C98.337 46.3378 99.024 39.1466 97.5387 31.764C96.0534 24.3813 91.2131 19.5866 87.2767 17.2317C83.3403 14.8768 81.7796 14.5305 77.215 13.5495C73.2209 12.6912 67.3847 12.024 61.9328 11.956C60.4212 11.9675 58.9266 11.9395 57.5269 11.956ZM68.2496 15.5062C69.7318 15.6453 72.2936 15.8574 75.1899 16.4153C75.6186 16.5036 75.8599 16.6423 75.7657 17.0501C71.108 28.347 66.1329 39.6485 60.9432 50.9455C60.2436 52.4437 59.3596 52.5014 58.6438 51.2226C53.4079 39.8332 48.3898 28.4395 43.694 17.0501C43.5998 16.6423 43.841 16.5036 44.2698 16.4153C47.1661 15.8574 49.7279 15.6453 51.2101 15.5062C56.8702 15.0405 62.6792 15.009 68.2496 15.5062ZM39.5868 17.6437C39.852 17.6369 39.9408 17.8121 39.9313 18.1436L39.935 18.1333V37.1426C39.935 43.1423 40.9159 45.9562 43.5695 50.8482L56.2864 74.2662C56.7206 75.0937 56.0162 75.0396 55.2509 75.0479C47.6683 74.7223 41.8624 73.248 37.1319 70.8059C31.4895 67.8929 27.3294 60.9768 25.8428 52.6635C24.3563 44.3502 24.2625 37.7822 25.3354 32.5888C26.4083 27.3954 28.9761 23.1127 34.7211 19.7455C36.1537 18.9059 37.7065 18.2394 39.2778 17.7073C39.3996 17.6679 39.5027 17.6458 39.5868 17.6437ZM79.8729 17.6437C79.9569 17.6458 80.0601 17.6679 80.1819 17.7073C81.7531 18.2394 83.306 18.9059 84.7385 19.7455C90.4835 23.1127 93.0514 27.3954 94.1243 32.5888C95.1972 37.7822 95.1034 44.3502 93.6168 52.6635C92.1303 60.9768 87.9702 67.8929 82.3277 70.8059C77.5973 73.248 71.7914 74.7223 64.2088 75.0479C63.4435 75.0396 62.7391 75.0937 63.1733 74.2662L75.8902 50.8482C78.5437 45.9562 79.5246 43.1423 79.5246 37.1426V18.1333L79.5284 18.1436C79.5189 17.8121 79.6077 17.6369 79.8729 17.6437Z" fill="#0B457F"/>
</g>
<defs>
<clipPath id="clip0_780_50">
<rect width="85.7379" height="74" fill="white" transform="translate(17 8)"/>
</clipPath>
</defs>
</svg>
