<svg width="35" height="36" viewBox="0 0 35 36" fill="none" xmlns="http://www.w3.org/2000/svg">
<g clip-path="url(#clip0_5004_3233)">
<path d="M17.6158 35.4999C14.9515 35.4828 12.4757 35.3404 10.035 34.7489C5.8337 33.7309 3.09825 31.1231 1.69693 27.0193C0.998876 24.9751 0.614403 22.8654 0.355065 20.7245C0.0723949 18.3926 -0.0650762 16.0539 0.0298903 13.707C0.106577 11.8082 0.374088 9.93588 1.02682 8.14004C2.10504 5.17366 4.15878 3.18875 7.03631 2.03823C8.82314 1.32381 10.6895 0.9681 12.5907 0.7557C15.0374 0.482334 17.4898 0.445604 19.9446 0.56332C22.4123 0.681638 24.853 0.971261 27.2186 1.75613C31.3345 3.12161 33.7539 5.98216 34.5815 10.2589C35.0596 12.729 35.0761 15.22 34.8877 17.7196C34.7309 19.7978 34.5178 21.8682 34.0995 23.9123C33.659 26.0657 33.02 28.1444 31.8468 30.0191C30.2578 32.5584 27.9165 33.9897 25.0942 34.7151C22.582 35.3606 20.0186 35.4811 17.6158 35.4999ZM17.0041 33.9496C19.7045 33.9498 21.9419 33.834 24.1294 33.2329C26.423 32.6027 28.3161 31.391 29.6413 29.3515C30.4999 28.0301 31.0557 26.5742 31.4374 25.0526C32.3193 21.5369 32.6248 17.9543 32.542 14.337C32.5056 12.7459 32.3081 11.1704 31.864 9.63376C31.0116 6.68304 29.2014 4.62075 26.3659 3.48981C24.662 2.81031 22.8835 2.48411 21.0713 2.32499C18.7014 2.11681 16.3297 2.11395 13.9589 2.32259C12.263 2.47191 10.5963 2.76093 8.989 3.35599C6.33929 4.33715 4.45185 6.11042 3.44348 8.80042C2.8187 10.4674 2.54985 12.2097 2.47019 13.9792C2.35798 16.4678 2.46885 18.9502 2.81632 21.4181C3.09037 23.3654 3.48346 25.2821 4.1995 27.123C5.4516 30.3423 7.6926 32.413 11.0188 33.2719C13.1335 33.8179 15.2853 33.9564 17.0041 33.9496Z" fill="#1D252D"/>
<path d="M17.5086 3.97063C19.524 4.00089 21.5238 4.1311 23.4773 4.70703C27.1295 5.78394 29.2539 8.26214 30.0406 11.9786C30.5236 14.2601 30.4847 16.5622 30.2781 18.8713C30.1132 20.7156 29.8329 22.5365 29.2721 24.3031C28.5757 26.4971 27.5081 28.4506 25.6503 29.8699C24.3514 30.8624 22.8684 31.4228 21.2795 31.7016C18.6289 32.1667 15.9755 32.1567 13.3356 31.6289C9.81277 30.9244 7.42687 28.827 6.09124 25.4703C5.37387 23.6674 5.00396 21.7814 4.77271 19.8621C4.56806 18.1634 4.47473 16.4577 4.56137 14.7481C4.66764 12.6492 5.0423 10.613 6.10224 8.76492C7.41052 6.48391 9.44717 5.2345 11.9056 4.58646C13.744 4.10175 15.6218 3.99622 17.5086 3.97063ZM23.7708 6.4252C23.7708 6.6939 23.7682 6.90495 23.7712 7.11599C23.8116 9.99085 23.8683 12.8657 23.8871 15.7407C23.8958 17.0684 23.6651 18.3695 23.1558 19.5979C21.7004 23.1085 20.0969 26.5492 18.3529 29.9226C18.1359 30.3422 18.2166 30.5005 18.6753 30.4698C19.4514 30.4176 20.2309 30.3683 20.9989 30.2511C22.6657 29.9965 24.1746 29.3623 25.4305 28.1921C26.7907 26.9249 27.5953 25.3169 28.0859 23.5488C29.0028 20.2443 29.2421 16.8786 28.7762 13.4772C28.5522 11.8424 28.0401 10.2987 27.0493 8.95233C26.2085 7.8101 25.1254 6.99346 23.7708 6.4252ZM16.8672 30.4758C16.7523 30.2582 16.6527 30.0867 16.5688 29.9079C15.0989 26.7788 13.6202 23.6539 12.1673 20.5168C11.4822 19.0375 11.1661 17.4676 11.1839 15.8292C11.2156 12.8955 11.2393 9.96165 11.2662 7.02778C11.2671 6.92783 11.2664 6.82803 11.2664 6.6927C9.50736 7.35113 8.19433 8.45783 7.33933 10.1077C6.50098 11.7256 6.15589 13.4761 6.10952 15.2745C6.07252 16.7076 6.13122 18.1483 6.23793 19.5787C6.37213 21.3783 6.75229 23.1354 7.42122 24.8173C8.15138 26.6531 9.23495 28.2035 10.9412 29.2439C12.6413 30.2803 14.5272 30.5511 16.4628 30.6047C16.5878 30.6084 16.7155 30.5266 16.8672 30.4758ZM12.9954 6.03247C13.0158 6.11887 13.0241 6.17517 13.0421 6.22801C13.3451 7.11584 13.6585 8.00022 13.9516 8.89152C14.9991 12.0769 16.2461 15.1953 17.0817 18.4519C17.1074 18.5523 17.1497 18.6544 17.208 18.739C17.3771 18.9844 17.7042 18.9528 17.8175 18.6746C18.1047 17.9692 18.4091 17.2691 18.6561 16.5491C19.6224 13.7317 20.5697 10.9076 21.5226 8.08542C21.7502 7.41164 21.9726 6.7362 22.2075 6.03171C19.114 5.5193 16.0675 5.51027 12.9954 6.03247Z" fill="#1D252D"/>
</g>
<defs>
<clipPath id="clip0_5004_3233">
<rect width="35" height="35" fill="white" transform="translate(0 0.5)"/>
</clipPath>
</defs>
</svg>
