<svg width="35" height="36" viewBox="0 0 35 36" fill="none" xmlns="http://www.w3.org/2000/svg">
<path d="M17.4979 23.4808C16.9836 23.4808 16.4691 23.49 15.9552 23.4783C15.3856 23.4654 14.8159 23.4416 14.2476 23.4076C13.6169 23.37 12.9864 23.3244 12.3578 23.2667C10.6655 23.1111 8.98965 22.8745 7.34302 22.5088C6.11992 22.2372 4.92278 21.9028 3.79559 21.4146C3.10788 21.1168 2.458 20.7718 1.93119 20.2876C1.62127 20.0028 1.3825 19.6846 1.28825 19.3009C1.17277 18.8305 1.32718 18.4108 1.63853 18.024C2.00521 17.5684 2.50815 17.2334 3.05542 16.9423C4.0216 16.4282 5.07598 16.077 6.16039 15.7824C7.25877 15.484 8.38003 15.2606 9.51437 15.084C10.1253 14.989 10.7401 14.9091 11.3556 14.8371C11.8702 14.7768 12.3877 14.7325 12.9052 14.6911C13.4894 14.6445 14.0746 14.6047 14.66 14.5703C15.0179 14.5493 15.377 14.5415 15.7358 14.5324C16.2779 14.5188 16.8201 14.5009 17.3622 14.5C17.9114 14.4992 18.4606 14.516 19.0099 14.527C19.2422 14.5317 19.4744 14.5381 19.7063 14.5493C20.2609 14.5763 20.8158 14.6018 21.3696 14.6367C21.8461 14.6667 22.3235 14.6962 22.797 14.7485C23.6084 14.8379 24.4193 14.9338 25.2263 15.0471C26.3157 15.2002 27.3902 15.4118 28.448 15.6793C29.4167 15.9244 30.3631 16.217 31.2608 16.6113C31.9091 16.8962 32.5206 17.2249 33.0264 17.6742C33.3543 17.9656 33.6085 18.2934 33.7098 18.6915C33.8189 19.1203 33.699 19.5137 33.4334 19.8804C33.1037 20.3356 32.6303 20.672 32.1102 20.9665C31.3002 21.4251 30.4131 21.7531 29.4972 22.0304C28.2911 22.3957 27.053 22.6648 25.7933 22.8629C25.0961 22.9726 24.3956 23.0689 23.6943 23.1583C23.2571 23.214 22.8158 23.2486 22.3756 23.2872C21.9423 23.3253 21.5084 23.3587 21.0743 23.3899C20.8327 23.4073 20.5902 23.4191 20.3479 23.4277C19.6411 23.4525 18.9342 23.4766 18.2273 23.4966C17.9844 23.5035 17.741 23.4977 17.4979 23.4977C17.4979 23.4921 17.4979 23.4865 17.4979 23.4808ZM17.4968 22.0481C18.0357 22.0481 18.5745 22.05 19.1134 22.0472C19.3174 22.0462 19.5215 22.0369 19.7253 22.027C20.1429 22.0068 20.5605 21.9854 20.9779 21.9612C21.2619 21.9446 21.5457 21.9256 21.829 21.9021C22.1925 21.872 22.5552 21.8355 22.9185 21.8032C23.1887 21.7792 23.4559 21.7446 23.7052 21.6484C24.1384 21.4811 24.2715 21.2087 24.0953 20.8399C23.9597 20.556 23.7305 20.3251 23.4761 20.111C22.1054 18.9572 20.6647 17.8685 19.1385 16.8592C18.8093 16.6415 18.4773 16.4288 18.0828 16.2969C17.8339 16.2136 17.5787 16.165 17.3098 16.2041C16.8672 16.2685 16.4919 16.4528 16.144 16.6774C15.2381 17.2623 14.3574 17.8734 13.5171 18.5229C12.8116 19.0683 12.1232 19.6293 11.4369 20.1916C11.1796 20.4025 10.9668 20.646 10.8649 20.9431C10.7705 21.2186 10.8689 21.4362 11.1606 21.5858C11.2496 21.6316 11.3468 21.6772 11.4472 21.6946C11.7628 21.7491 12.08 21.804 12.4 21.8336C13.018 21.8906 13.6378 21.9371 14.2578 21.9753C14.8015 22.0087 15.3463 22.0338 15.8911 22.0459C16.4259 22.0575 16.9615 22.0482 17.4968 22.0481ZM17.1093 15.1588C17.0821 15.1564 17.055 15.1515 17.0279 15.1519C16.5525 15.1585 16.077 15.1648 15.6016 15.1734C15.4468 15.1761 15.292 15.1827 15.1376 15.1917C14.58 15.2243 14.0223 15.256 13.4651 15.2934C13.0763 15.3195 12.6868 15.3439 12.3005 15.3874C11.6008 15.4661 10.9018 15.5506 10.2053 15.6471C9.10436 15.7996 8.01995 16.0133 6.95907 16.304C6.22198 16.5061 5.50183 16.7428 4.83326 17.0766C4.36738 17.3092 3.93075 17.5725 3.63106 17.9611C3.30606 18.3823 3.2999 18.8099 3.61896 19.2378C3.76204 19.4296 3.9456 19.5914 4.15149 19.736C4.63298 20.0746 5.17772 20.3276 5.75698 20.5243C6.3247 20.717 6.90331 20.7062 7.47708 20.525C7.79482 20.4247 8.05811 20.2514 8.32921 20.088C10.4227 18.8267 12.5153 17.5643 14.6113 16.3059C15.3855 15.841 16.1598 15.3735 17.1093 15.1588ZM17.881 15.1605C18.1127 15.2282 18.3332 15.2802 18.5414 15.3561C19.0729 15.5497 19.5608 15.8093 20.0297 16.0909C22.3366 17.4762 24.6405 18.8652 26.9441 20.2542C27.5836 20.6397 28.2881 20.7707 29.0418 20.577C29.4107 20.4822 29.759 20.3212 30.1009 20.1662C30.5392 19.9675 30.9395 19.7212 31.2534 19.3905C31.733 18.8852 31.744 18.3336 31.2566 17.8357C31.0715 17.6466 30.8499 17.4753 30.6159 17.3279C29.9632 16.9168 29.2173 16.6521 28.4533 16.4225C27.4787 16.1296 26.4792 15.9115 25.4621 15.752C24.8378 15.6541 24.2103 15.5687 23.5824 15.4874C23.18 15.4353 22.7749 15.3969 22.37 15.3598C21.9476 15.3212 21.5245 15.287 21.1008 15.2594C20.7224 15.2346 20.3431 15.2164 19.9636 15.2042C19.299 15.183 18.6341 15.1685 17.9693 15.1518C17.9427 15.1513 17.9162 15.157 17.881 15.1605Z" fill="#1D252D"/>
</svg>
