<svg width="35" height="36" viewBox="0 0 35 36" fill="none" xmlns="http://www.w3.org/2000/svg">
<g clip-path="url(#clip0_5004_849)">
<path d="M17.5528 24.0286C15.709 24.0288 13.8652 24.0303 12.0213 24.028C11.3552 24.0273 11.2113 23.8884 11.2069 23.2589C11.2042 22.8897 11.2089 22.5203 11.2048 22.1511C11.1994 21.6559 11.1004 21.5588 10.5764 21.5581C8.76207 21.5553 6.94772 21.557 5.13337 21.557C3.67304 21.557 2.21271 21.5593 0.752376 21.5559C0.0315066 21.5541 -0.177821 21.2219 0.152375 20.5979C1.16899 18.6768 2.19615 16.7609 3.20692 14.8371C3.44415 14.3855 3.80693 14.2153 4.3128 14.2171C6.34834 14.2245 8.38397 14.2203 10.4196 14.2199C11.1745 14.2197 11.2056 14.1882 11.206 13.4412C11.2062 13.1146 11.2032 12.7878 11.2084 12.4612C11.2171 11.9201 11.3904 11.7523 11.954 11.7514C13.7094 11.7489 15.4647 11.7505 17.2201 11.7505C19.1967 11.7505 21.1733 11.7494 23.1499 11.751C23.7907 11.7515 23.9546 11.9116 23.9608 12.5344C23.9643 12.8894 23.9616 13.2445 23.9625 13.5996C23.964 14.1768 24.0092 14.2219 24.6273 14.2222C27.7986 14.2232 30.97 14.2223 34.1414 14.2241C34.3027 14.2242 34.4725 14.2147 34.6236 14.2577C34.9983 14.3644 35.1062 14.7152 34.8888 15.1281C34.1958 16.444 33.4949 17.7561 32.7967 19.0695C32.488 19.6504 32.1525 20.2198 31.8764 20.8147C31.6178 21.3715 31.211 21.577 30.5879 21.57C28.6263 21.5479 26.6643 21.5614 24.7025 21.5626C23.9954 21.563 23.9592 21.5999 23.9588 22.2916C23.9585 22.6324 23.965 22.9734 23.9599 23.3142C23.9517 23.8585 23.7826 24.026 23.2173 24.0271C21.3291 24.0309 19.441 24.0285 17.5528 24.0286ZM8.16225 19.6679C9.60832 19.6679 11.0544 19.667 12.5005 19.6683C13.1397 19.6688 13.1659 19.6964 13.1671 20.3289C13.1679 20.7693 13.1726 21.2099 13.1659 21.6502C13.1608 21.9892 13.3233 22.1412 13.6753 22.1407C16.2724 22.1377 18.8695 22.1379 21.4666 22.1414C21.8449 22.1419 21.9984 21.959 21.9963 21.6138C21.9936 21.1876 21.9961 20.7613 21.9972 20.3351C21.9988 19.6869 22.0178 19.6678 22.699 19.6676C25.0599 19.6671 27.421 19.6659 29.7819 19.67C30.063 19.6705 30.2915 19.6396 30.438 19.3547C30.8956 18.4643 31.38 17.5869 31.8429 16.699C32.0219 16.3556 31.8971 16.1597 31.4968 16.1206C31.3653 16.1079 31.2315 16.1153 31.0987 16.1153C28.2656 16.1151 25.4324 16.1159 22.5992 16.1145C22.0513 16.1143 21.9922 16.057 21.9887 15.5268C21.9858 15.1007 21.9987 14.6744 21.9949 14.2483C21.9903 13.7463 21.8892 13.6483 21.3723 13.6473C20 13.6447 18.6276 13.6468 17.2553 13.6469C16.1191 13.647 14.9828 13.6455 13.8467 13.6476C13.2382 13.6487 13.1715 13.7171 13.1701 14.3156C13.1692 14.6851 13.1703 15.0545 13.1698 15.4238C13.1688 16.0963 13.1456 16.1196 12.4496 16.1193C10.1033 16.1182 7.75696 16.1307 5.41106 16.1031C4.90563 16.0971 4.63264 16.2602 4.42535 16.6923C4.05486 17.4646 3.62992 18.2127 3.22995 18.9719C2.96607 19.4728 3.09119 19.6649 3.69119 19.6662C5.18154 19.6695 6.6719 19.6674 8.16225 19.6679Z" fill="#1D252D"/>
</g>
<defs>
<clipPath id="clip0_5004_849">
<rect width="35" height="35" fill="white" transform="translate(0 0.5)"/>
</clipPath>
</defs>
</svg>
