<svg width="120" height="90" viewBox="0 0 120 90" fill="none" xmlns="http://www.w3.org/2000/svg">
<g clip-path="url(#clip0_780_106)">
<mask id="mask0_780_106" style="mask-type:luminance" maskUnits="userSpaceOnUse" x="-92" y="-152" width="304" height="414">
<path d="M-91.1271 261.23H211.127V-151.136H-91.1271V261.23Z" fill="white"/>
</mask>
<g mask="url(#mask0_780_106)">
<path d="M13.7079 36.3361C14.2234 35.1765 14.6665 34.2347 17.9129 34.2347H36.6513C37.6842 34.2347 38.7163 33.7272 38.7163 32.2791V27.1373C38.7163 26.5543 39.3072 25.7562 40.8559 25.7562H79.6617C80.7673 25.7562 81.6543 26.3366 81.6543 27.7132V31.7717C81.6543 32.858 82.1698 34.0172 83.7931 34.0172H114.925C116.031 34.0172 117.507 34.3061 116.844 35.6843C116.178 37.0594 106.072 57.197 105.387 58.5428C105.123 59.0585 104.919 59.7457 102.873 59.7457H83.7353C82.8281 59.7457 81.3379 59.7457 81.3379 61.4688V66.2615C81.3379 66.951 80.8125 67.985 79.1462 67.985H40.7514C39.5527 67.985 38.6765 67.3798 38.6765 66.204V61.9849C38.6765 61.0663 38.179 59.7186 36.777 59.7186H4.54743C3.52377 59.7186 2.55985 58.943 3.17374 57.452C3.78763 55.958 13.7079 36.3361 13.7079 36.3361Z" fill="#C7D6EE"/>
</g>
<path d="M5.63739 55.2114L6.53314 55.2144L15.339 38.0058L14.4429 38.0032L5.63739 55.2114Z" fill="url(#paint0_linear_780_106)"/>
<mask id="mask1_780_106" style="mask-type:luminance" maskUnits="userSpaceOnUse" x="-92" y="-152" width="304" height="414">
<path d="M-91.1271 261.23H211.127V-151.136H-91.1271V261.23Z" fill="white"/>
</mask>
<g mask="url(#mask1_780_106)">
<path d="M36.8532 57.6416H6.71006C5.65844 57.6416 5.29003 57.1696 5.69903 56.3665C7.9815 51.9082 15.4876 37.2453 15.6818 36.856C15.91 36.3982 16.463 35.8385 17.4832 35.8385H37.7107C39.8093 35.8385 40.1666 34.9377 40.1666 33.3105V28.4644C40.1666 27.8125 40.607 27.3792 41.381 27.3792H78.4282C79.4239 27.3792 79.8643 27.7023 79.8643 28.3541V31.9342C79.8643 33.3447 79.5924 35.6222 82.794 35.6222H113.407C114.782 35.6222 115.139 36.5325 114.411 37.9742C111.702 43.3417 105.036 56.0682 104.829 56.5001C104.566 57.0488 103.751 57.5318 102.449 57.5318H82.3544C80.6961 57.5318 79.0406 58.6166 79.0406 60.2449V64.3805C79.0406 65.1335 78.5803 65.6669 77.7607 65.6669H41.813C40.7008 65.6669 40.2765 65.0485 40.2765 64.2236V60.4608C40.2765 59.1601 39.393 57.6416 36.8532 57.6416Z" fill="#E9CF98"/>
<path d="M77.0515 56.6712L81.2737 60.993C81.2737 60.993 81.5751 60.0451 82.7201 59.8104L77.9917 55.4785C77.9917 55.4785 77.2322 55.9009 77.0515 56.6712ZM36.9513 59.7499C36.9513 59.7499 38.6401 59.81 38.6401 62.001L42.5594 56.3146L41.4741 55.5447L36.9513 59.7499ZM78.6098 38.2176L83.0617 33.9556C83.0617 33.9556 82.4582 33.883 81.8531 32.9189L77.4387 37.3291L78.6098 38.2176ZM76.6846 29.5093L80.7976 26.0642C80.7976 26.0642 81.2507 26.3226 81.4391 26.7311L77.1376 30.6219L76.6846 29.5093ZM38.7458 27.3115C38.7458 26.598 39.4206 25.7562 40.5255 25.7562L43.6459 29.545C43.6459 29.545 42.7114 29.545 42.5651 29.8835C42.4165 30.222 42.2695 30.9465 42.2695 30.9465L38.7458 27.3115ZM37.3989 34.1357C37.3989 34.1357 38.7324 33.9281 38.7324 32.5281L41.8256 36.1025L39.8541 37.5022L37.3989 34.1357Z" fill="white"/>
</g>
<path d="M60.2707 25.7561L60.1286 27.386H77.953C78.5381 27.386 78.8667 27.5304 79.0873 27.9611L81.0611 26.2376C81.0611 26.2376 80.5648 25.7561 79.6617 25.7561H60.2707Z" fill="url(#paint1_linear_780_106)"/>
<path d="M40.5251 25.7562C40.0498 25.7562 39.501 25.9871 39.21 26.3448L40.4891 27.709C40.4891 27.709 40.7445 27.386 41.7682 27.386H60.1286L60.2707 25.7562H40.5251Z" fill="url(#paint2_linear_780_106)"/>
<path d="M38.7458 27.3118V32.2791C38.7458 33.0588 38.5869 33.2499 38.5869 33.2499L39.9981 34.7228C39.9981 34.7228 40.1999 34.2143 40.1999 33.9017V28.98C40.1999 28.6693 40.2283 28.2164 40.2283 28.2164L38.9032 26.6047C38.9032 26.6047 38.7458 26.8864 38.7458 27.3118Z" fill="url(#paint3_linear_780_106)"/>
<path d="M79.893 28.0653C79.893 28.0653 79.8547 28.643 79.8547 28.9537C79.8547 29.2644 79.893 33.4602 79.893 33.7716C79.893 34.0823 80.3537 34.6586 80.3537 34.6586L82.0422 33.1909C82.0422 33.1909 81.6416 33.0589 81.6416 32.2791V27.3119C81.6416 26.8865 81.2874 26.6047 81.2874 26.6047L79.893 28.0653Z" fill="url(#paint4_linear_780_106)"/>
<path d="M36.7578 34.2403C36.2286 34.2403 18.045 34.261 17.0761 34.261C15.6703 34.261 14.8434 34.8699 14.8434 34.8699L16 36.3982C16 36.3982 16.4626 35.8381 17.4836 35.8381H38.0017C38.7163 35.8381 39.2532 35.5207 39.2532 35.5207L37.9125 33.939C37.9125 33.939 37.2541 34.2403 36.7578 34.2403Z" fill="url(#paint5_linear_780_106)"/>
<path d="M5.09394 56.5L2.99721 57.9444C2.99721 57.9444 2.831 58.5413 3.14426 59.013C3.4583 59.4832 3.93777 59.5562 3.93777 59.5562L6.66677 57.6416C6.66677 57.6416 5.12228 57.5702 5.76489 56.4466C6.40751 55.3227 6.37266 54.8996 6.37266 54.8996C6.37266 54.8996 5.62281 55.0203 5.09394 56.5Z" fill="url(#paint6_linear_780_106)"/>
<path d="M10.8514 42.3584C9.17937 45.7384 3.56358 56.5963 3.36712 56.9841C3.17028 57.3704 2.97305 58.046 2.97305 58.046L5.13719 56.5L15.2777 36.6581C15.2777 36.6581 12.5238 38.9766 10.8514 42.3584Z" fill="url(#paint7_linear_780_106)"/>
<path d="M6.71006 57.6882L3.92859 59.6536C3.92859 59.6536 35.6113 59.7303 36.4116 59.7303C37.2109 59.7303 37.5468 59.8804 37.5468 59.8804L38.9737 58.2878C38.9737 58.2878 37.6107 57.6882 36.8536 57.6882H6.71006Z" fill="url(#paint8_linear_780_106)"/>
<path d="M38.3594 60.7515C38.3594 60.7515 38.6512 61.3273 38.6512 61.7866V65.9012C38.6512 66.4898 38.8848 67.0002 38.8848 67.0002L40.2769 65.3896V60.4607C40.2769 59.6742 39.8353 59.0126 39.8353 59.0126L38.3594 60.7515Z" fill="url(#paint9_linear_780_106)"/>
<path d="M79.0363 59.9519V64.8811L81.2212 66.7581C81.2212 66.7581 81.2751 66.2578 81.2751 65.6703V61.5538C81.2751 61.0949 81.4107 60.8061 81.4107 60.8061L79.5005 58.9303C79.5005 58.9303 79.0363 59.1639 79.0363 59.9519Z" fill="url(#paint10_linear_780_106)"/>
<path d="M77.4023 65.7033H60.2271V67.9925H79.2324C79.8785 67.9925 80.6318 67.5705 80.775 67.4633L78.6212 65.4573C78.6212 65.4573 78.4792 65.7033 77.4023 65.7033Z" fill="url(#paint11_linear_780_106)"/>
<path d="M39.5397 67.707C39.5397 67.707 39.982 68.0151 41.2182 68.0151C42.4533 68.0151 60.227 67.9929 60.227 67.9929V65.7037H41.8823C41.5502 65.7037 41.3281 65.6432 41.3281 65.6432L39.5397 67.707Z" fill="url(#paint12_linear_780_106)"/>
<path d="M44.4734 29.4983C43.4785 29.4983 42.4851 30.0414 42.4851 31.1266V36.4422C42.4851 37.5258 41.8218 37.9602 41.0489 37.9602H19.0553C18.1618 37.9602 17.4706 38.3262 17.0735 39.0646C16.7483 39.6713 11.2558 50.4833 9.48079 53.9776C9.09591 54.7355 9.43216 55.1963 10.4198 55.1963H41.1604C42.4851 55.1963 42.7064 56.3902 42.7064 57.5825V61.7133C42.7064 62.4742 43.4789 63.3419 44.3627 63.3419H59.8272V29.4983H44.4734Z" fill="url(#paint13_linear_780_106)"/>
<path d="M80.4844 58.1419L82.2552 59.9297C82.2552 59.9297 82.6971 59.6893 84.7636 59.6893H103.649C104.042 59.6893 104.583 59.4956 104.583 59.4956L94.5997 57.5156C94.5997 57.5156 83.0418 57.5235 82.5011 57.5156C82.4808 57.5149 82.4605 57.5145 82.4402 57.5145C81.2683 57.5145 80.4844 58.1419 80.4844 58.1419Z" fill="url(#paint14_linear_780_106)"/>
<path d="M81.1496 35.3058C81.1496 35.3058 82.0128 35.5891 82.7175 35.5891H112.454C113.358 35.5891 113.887 35.6553 113.887 35.6553L116.29 34.2485C116.29 34.2485 115.518 34.0322 114.747 34.0322H83.8652C83.0935 34.0322 82.7718 33.8551 82.7718 33.8551L81.1496 35.3058Z" fill="url(#paint15_linear_780_106)"/>
<path d="M114.763 36.4159C114.763 36.4159 114.899 37.1568 114.642 37.6605C114.385 38.1638 105.398 55.5251 104.992 56.3225C104.585 57.1195 103.668 57.4133 103.668 57.4133L104.692 59.4249C104.692 59.4249 105.055 59.1541 105.269 58.8806C105.483 58.6083 116.542 36.5065 116.884 35.7313C117.224 34.9553 116.925 34.6747 116.925 34.6747L114.763 36.4159Z" fill="url(#paint16_linear_780_106)"/>
<path d="M102.715 57.5626C101.534 57.5626 94.8946 57.6123 94.8946 57.6123L104.338 59.4956C104.338 59.4956 104.928 59.256 105.224 58.7708C105.519 58.2878 105.222 58.1434 104.879 58.433C104.535 58.7245 103.945 58.2416 104.239 57.9031C104.535 57.563 104.829 56.5004 104.829 56.5004C104.829 56.5004 103.896 57.5626 102.715 57.5626Z" fill="url(#paint17_linear_780_106)"/>
<path d="M14.8691 56.0682C8.68503 56.4737 6.71008 57.6221 6.71008 57.6221H36.2412C39.5995 57.6221 39.2161 58.073 39.1973 58.0934L41.6016 55.5962C41.6016 55.5962 35.7606 55.5962 32.0497 55.5292C31.5779 55.521 31.0486 55.5168 30.4707 55.5168C26.5044 55.5168 20.2674 55.7154 14.8691 56.0682Z" fill="url(#paint18_linear_780_106)"/>
<path d="M84.5231 55.5292C81.896 55.5962 77.7592 55.5962 77.7592 55.5962L80.5161 58.146C80.5161 58.146 80.7999 57.5491 83.2325 57.5491C85.6666 57.5491 103.207 57.49 103.207 57.49C103.207 57.49 103.503 56.5482 98.3382 56.1863C94.2696 55.9008 88.1299 55.5224 85.1619 55.5224C84.9489 55.5222 84.736 55.5245 84.5231 55.5292Z" fill="url(#paint19_linear_780_106)"/>
<path d="M78.2747 38.227C78.2747 38.227 82.4126 38.227 85.0405 38.2943C87.6684 38.3616 103.597 37.6522 107.978 37.2468C112.359 36.842 113.756 35.6941 113.756 35.6941C113.756 35.6941 85.9056 35.84 83.4723 35.84C81.0405 35.84 81.3798 35.3665 81.3798 35.3665L78.2747 38.227Z" fill="url(#paint20_linear_780_106)"/>
<path d="M39.982 59.0856C39.982 59.0856 40.2773 60.0267 40.2773 60.7515V64.0119C40.2773 64.8811 40.5729 65.3167 40.5729 65.3167L43.081 62.8523C43.081 62.8523 42.7064 61.9834 42.7064 61.3312V57.6552C42.7064 56.8051 42.4904 56.1138 42.4904 56.1138L39.982 59.0856Z" fill="url(#paint21_linear_780_106)"/>
<path d="M76.7853 57.6345C76.7853 58.4846 76.7271 60.7594 76.7271 61.4124C76.7271 62.0628 76.5747 62.8523 76.5747 62.8523L79.0823 65.3167C79.0823 65.3167 79.3784 64.8808 79.3784 64.0119V60.7515C79.3784 60.0267 79.6732 59.0856 79.6732 59.0856L76.9875 56.0453C76.8572 56.5655 76.7893 57.0988 76.7853 57.6345Z" fill="url(#paint22_linear_780_106)"/>
<path d="M41.3844 65.6055L59.6798 65.7499L59.7537 65.7484V63.3419L43.8185 63.2855L41.3844 65.6055Z" fill="url(#paint23_linear_780_106)"/>
<path d="M59.8273 63.342H59.7537V65.7485L78.5657 65.5341L75.5414 63.2855L59.8273 63.342Z" fill="url(#paint24_linear_780_106)"/>
<path d="M41.6314 27.3724C41.1148 27.3724 40.6369 27.6459 40.6369 27.6459L43.0618 29.9892C43.0618 29.9892 43.3008 29.4803 45.0096 29.4803H59.8272V27.3724H41.6314Z" fill="url(#paint25_linear_780_106)"/>
<path d="M59.8273 27.3724V29.4803H74.6449C76.3537 29.4803 76.7076 30.2108 76.7076 30.2108L79.1317 27.8686C79.1317 27.8686 78.5404 27.3724 78.0238 27.3724H59.8273Z" fill="url(#paint26_linear_780_106)"/>
<path d="M40.1747 29.4197V33.6749C40.1747 34.1797 39.9491 34.7777 39.9491 34.7777L42.3239 37.425C42.3239 37.425 42.4843 37.205 42.4843 36.1025C42.4843 34.9993 42.5801 30.6824 42.5801 30.6824L40.2061 28.0667C40.2061 28.0667 40.1747 28.7584 40.1747 29.4197Z" fill="url(#paint27_linear_780_106)"/>
<path d="M76.8068 30.7332V36.0239C76.8068 37.1267 77.3318 37.425 77.3318 37.425L80.2339 34.5536C80.2339 34.5536 79.8555 33.9529 79.8555 33.4496C79.8555 32.9448 79.831 29.8684 79.831 29.2068C79.831 28.5452 79.8605 27.9332 79.8605 27.9332L76.8068 30.7332Z" fill="url(#paint28_linear_780_106)"/>
<path d="M38.2116 35.8972H17.8509C17.2607 35.8972 16.301 36.1146 16.0061 36.405L17.8509 38.2891C17.8509 38.2891 18.3667 37.9272 19.6213 37.9272H40.7935C41.3844 37.9272 41.9738 37.7087 41.9738 37.7087L39.614 35.3183C39.614 35.3183 39.0231 35.8972 38.2116 35.8972Z" fill="url(#paint29_linear_780_106)"/>
<path d="M101.628 55.2765C101.628 55.2765 102.768 54.8552 103.124 56.1852C103.124 56.1852 103.409 56.6061 104.193 55.4852C104.976 54.3658 112.388 39.3922 112.315 39.1801C112.243 38.971 110.747 38.6904 110.747 38.6904L101.628 55.2765Z" fill="url(#paint30_linear_780_106)"/>
<path d="M110.962 38.8321C111.319 39.0413 111.675 39.3219 111.176 40.3709C110.678 41.4188 104.978 52.3369 103.767 54.4354C102.556 56.5342 103.623 57.3741 103.623 57.3741C103.623 57.3741 104.551 56.9532 104.829 56.4996C105.111 56.0445 113.813 39.1108 114.413 37.9738C115.012 36.8364 114.596 36.3812 114.596 36.3812L110.962 38.8321Z" fill="url(#paint31_linear_780_106)"/>
<path d="M59.8273 29.4983V63.3419H75.0639C75.9466 63.3419 76.7202 63.0166 76.7202 62.0382V56.9909C76.7202 56.0148 77.382 55.2573 78.1559 55.2573H101.141C101.948 55.2573 102.672 54.7935 103.092 54.0307C104.97 50.6199 110.143 40.7286 110.534 39.9312C111.012 38.9578 110.717 38.3939 109.609 38.3939H79.1494C77.8243 38.3939 76.829 37.4186 76.829 36.2251V30.6925C76.829 29.9331 76.3874 29.4987 75.394 29.4987L59.8273 29.4983Z" fill="url(#paint32_linear_780_106)"/>
<path d="M6.46115 56.6802L9.40998 54.924C9.40998 54.924 9.0722 54.7796 9.60299 53.7358C10.1345 52.692 15.1135 42.7214 15.1135 42.7214L14.0025 42.4852L6.46115 56.6802Z" fill="url(#paint33_linear_780_106)"/>
<path d="M6.19422 55.3893C5.45625 56.6937 5.60484 57.2 5.60484 57.2L7.3749 56.0408C7.3749 56.0408 15.2682 41.0423 16.0797 39.3027C16.8916 37.5642 15.6818 36.8559 15.6818 36.8559C15.6818 36.8559 6.93219 54.0852 6.19422 55.3893Z" fill="url(#paint34_linear_780_106)"/>
<path d="M7.38857 57.6835C7.27159 57.7607 6.19276 57.8915 5.9819 57.6835C5.77075 57.4779 5.41807 57.3167 5.6997 57.0856C5.98219 56.8543 9.45179 54.8286 9.45179 54.8286C9.45179 54.8286 9.03036 55.0585 12.5956 55.0585H41.1141C41.8648 55.0585 42.5678 55.5646 42.6623 55.8872C42.7561 56.2104 42.5681 56.3479 42.3339 56.3029C42.1002 56.2561 41.4896 56.0718 41.3489 55.8407C41.2082 55.6111 41.5366 55.4268 39.4723 55.4268C37.4085 55.4268 21.6483 55.6579 18.0842 55.9796C14.519 56.3029 9.827 56.0718 7.38857 57.6835ZM112.726 35.7539C112.842 35.6782 113.923 35.5476 114.133 35.7539C114.344 35.9613 114.696 36.1224 114.415 36.3532C114.133 36.5832 110.662 38.6103 110.662 38.6103C110.662 38.6103 111.083 38.3803 107.519 38.3803H78.9995C78.2491 38.3803 77.5457 37.8746 77.4524 37.5514C77.3583 37.2279 77.5455 37.0892 77.7788 37.136C78.0154 37.1828 78.6243 37.3671 78.7655 37.5964C78.9056 37.8278 78.5769 38.0106 80.6416 38.0106C82.7062 38.0106 98.4644 37.7813 102.031 37.4589C105.595 37.136 110.287 37.3671 112.725 35.7539M16.5964 38.4191C16.5964 38.0929 16.7806 37.4774 16.6336 37.2972C16.4857 37.1152 16.9282 36.898 17.2237 37.0782C17.5189 37.2599 18.1454 37.4043 18.2191 37.5499C18.293 37.6943 18.1824 38.056 17.7769 38.2016C17.3708 38.346 17.0019 38.6724 16.3751 40.0117C15.7477 41.3537 12.1695 48.1641 12.1695 48.1641C12.1695 48.1641 12.6866 47.0777 12.465 47.0405C12.2438 47.0047 11.7279 47.9108 11.7279 47.9108L16.5964 38.4191ZM41.2599 37.7781C40.9546 37.8084 40.8694 37.48 41.13 37.4373C41.3916 37.3942 41.7383 37.3737 42.0421 36.1993C42.3471 35.0248 42.1299 31.4617 42.086 30.8219C42.0421 30.1815 41.7385 29.4137 42.1738 29.0726C42.6077 28.7303 42.9121 29.4568 44.0421 29.4568C45.1715 29.4568 47.7358 29.3713 47.7358 29.3713C47.7358 29.3713 44.129 29.6258 43.5199 29.7121C42.9118 29.7979 42.3902 30.2667 42.4765 31.1205C42.5644 31.9744 42.3471 36.3711 42.1738 36.8402C41.9994 37.3093 41.6946 37.7354 41.2599 37.7781ZM65.5936 29.3976C65.115 29.4192 74.7567 29.5088 75.3641 29.5088C75.9724 29.5088 76.6677 29.6902 76.7985 30.2869C76.9288 30.8854 76.8363 32.8441 76.8363 32.8441C76.8363 32.8441 77.1359 30.33 77.5709 29.8609C78.0053 29.3901 77.875 28.7084 77.3103 28.8349C76.7451 28.9643 72.2709 29.1018 65.5936 29.3976ZM78.4686 55.5631C78.1653 55.5189 77.8187 55.4782 77.7309 55.7336C77.644 55.9877 78.1208 56.1584 77.644 56.4129C77.1682 56.6688 76.8132 56.826 76.8132 56.6125C76.8132 56.3993 77.059 55.3058 77.9698 55.3058C78.8805 55.3058 101.353 55.2636 101.702 55.2636C102.047 55.2636 102.481 55.3058 102.654 55.6475C102.827 55.9883 103.044 56.8392 103.175 57.0955C103.304 57.3508 103.088 57.3508 102.697 56.8392C102.307 56.328 101.311 56.116 100.531 56.1584C99.7504 56.2009 78.4686 55.5631 78.4686 55.5631ZM103.261 56.2864C103.261 56.2864 103.045 55.8188 102.914 55.5189C102.784 55.222 102.394 55.0955 102.394 55.0955C102.394 55.0955 102.827 54.5828 103.433 53.4771C104.041 52.3714 106.902 47.0907 107.205 46.3669C107.205 46.3669 106.555 48.327 107.812 46.7077C107.812 46.7077 103.738 54.2844 103.477 54.796C103.218 55.3075 103.26 56.2864 103.26 56.2864M42.9762 62.2453C42.9762 62.2453 43.028 62.8576 42.666 63.1118C42.3038 63.3663 42.1478 63.8241 42.4589 64.0283C42.7697 64.2316 42.9768 64.13 43.1839 63.8241C43.3913 63.5194 44.1175 63.2643 44.5834 63.3666C44.584 63.3663 42.9762 63.5682 42.9762 62.2453ZM65.3146 63.3359C65.3146 63.3359 74.0614 63.7886 74.5796 63.8122L75.4603 63.8518C75.4603 63.8518 74.5322 63.7074 74.8066 63.4145L65.3143 63.3359H65.3146ZM75.6813 63.2646C75.6813 63.2646 75.4227 63.6716 75.8366 63.8741C76.2523 64.0774 76.6674 64.2808 76.9262 63.9757C77.1847 63.6707 76.7191 62.8565 76.7702 62.2967C76.7702 62.2964 76.9776 63.1629 75.6813 63.2646Z" fill="white"/>
</g>
<defs>
<linearGradient id="paint0_linear_780_106" x1="14.7587" y1="38.2771" x2="14.6989" y2="60.8284" gradientUnits="userSpaceOnUse">
<stop stop-color="#C7D6EE"/>
<stop offset="0.185" stop-color="#91AFC8"/>
<stop offset="1" stop-color="#002334"/>
</linearGradient>
<linearGradient id="paint1_linear_780_106" x1="-59035.2" y1="21054.6" x2="-59021.3" y2="21040.5" gradientUnits="userSpaceOnUse">
<stop stop-color="#E1E8F5"/>
<stop offset="0.899" stop-color="#92A5C1"/>
<stop offset="0.955" stop-color="#476886"/>
<stop offset="1" stop-color="#E1E8F5"/>
</linearGradient>
<linearGradient id="paint2_linear_780_106" x1="44.6319" y1="31.7638" x2="58.804" y2="17.3343" gradientUnits="userSpaceOnUse">
<stop stop-color="#E1E8F5"/>
<stop offset="0.039" stop-color="#476886"/>
<stop offset="0.09" stop-color="#92A5C1"/>
<stop offset="1" stop-color="#E1E8F5"/>
</linearGradient>
<linearGradient id="paint3_linear_780_106" x1="37.6445" y1="32.2994" x2="42.2647" y2="27.9128" gradientUnits="userSpaceOnUse">
<stop stop-color="#E1E8F5"/>
<stop offset="0.157" stop-color="#C7D6EE"/>
<stop offset="1" stop-color="#E1E8F5"/>
</linearGradient>
<linearGradient id="paint4_linear_780_106" x1="82.7709" y1="32.4347" x2="77.8789" y2="27.79" gradientUnits="userSpaceOnUse">
<stop stop-color="#E1E8F5"/>
<stop offset="0.157" stop-color="#C7D6EE"/>
<stop offset="1" stop-color="#E1E8F5"/>
</linearGradient>
<linearGradient id="paint5_linear_780_106" x1="20.9407" y1="41.2372" x2="36.8358" y2="25.0536" gradientUnits="userSpaceOnUse">
<stop stop-color="#476886"/>
<stop offset="0.129" stop-color="#92A5C1"/>
<stop offset="1" stop-color="#E1E8F5"/>
</linearGradient>
<linearGradient id="paint6_linear_780_106" x1="5.63635" y1="58.1854" x2="3.78318" y2="55.4908" gradientUnits="userSpaceOnUse">
<stop stop-color="#002334"/>
<stop offset="0.107" stop-color="white"/>
<stop offset="0.185" stop-color="#91AFC8"/>
<stop offset="0.242" stop-color="#002334"/>
<stop offset="0.534" stop-color="#5E738F"/>
<stop offset="0.758" stop-color="#002334"/>
<stop offset="1" stop-color="#002334"/>
</linearGradient>
<linearGradient id="paint7_linear_780_106" x1="15.8549" y1="43.9953" x2="1.35729" y2="51.5074" gradientUnits="userSpaceOnUse">
<stop stop-color="#91AFC8"/>
<stop offset="1" stop-color="#002334"/>
</linearGradient>
<linearGradient id="paint8_linear_780_106" x1="21.8209" y1="61.0663" x2="20.7395" y2="54.822" gradientUnits="userSpaceOnUse">
<stop stop-color="#A5B9CC"/>
<stop offset="1" stop-color="#002334"/>
</linearGradient>
<linearGradient id="paint9_linear_780_106" x1="38.7282" y1="63.0052" x2="40.589" y2="63.0052" gradientUnits="userSpaceOnUse">
<stop stop-color="#5E738F"/>
<stop offset="0.489" stop-color="#91AFC8"/>
<stop offset="1" stop-color="#91AFC8"/>
</linearGradient>
<linearGradient id="paint10_linear_780_106" x1="80.995" y1="62.8436" x2="78.6911" y2="62.8436" gradientUnits="userSpaceOnUse">
<stop stop-color="#5E738F"/>
<stop offset="0.32" stop-color="#91AFC8"/>
<stop offset="1" stop-color="#91AFC8"/>
</linearGradient>
<linearGradient id="paint11_linear_780_106" x1="67.9352" y1="70.965" x2="74.0687" y2="60.1485" gradientUnits="userSpaceOnUse">
<stop stop-color="#A5B9CC"/>
<stop offset="1" stop-color="#002334"/>
</linearGradient>
<linearGradient id="paint12_linear_780_106" x1="47.9187" y1="63.3283" x2="54.0998" y2="74.2287" gradientUnits="userSpaceOnUse">
<stop stop-color="#002334"/>
<stop offset="0.775" stop-color="#A5B9CC"/>
<stop offset="1" stop-color="#A5B9CC"/>
</linearGradient>
<linearGradient id="paint13_linear_780_106" x1="28.8331" y1="32.3885" x2="56.4368" y2="81.0674" gradientUnits="userSpaceOnUse">
<stop stop-color="#FFEFCF"/>
<stop offset="0.461" stop-color="#FFE4A6"/>
<stop offset="1" stop-color="#BC956E"/>
</linearGradient>
<linearGradient id="paint14_linear_780_106" x1="88.4258" y1="63.3117" x2="96.223" y2="54.4626" gradientUnits="userSpaceOnUse">
<stop stop-color="#5E738F"/>
<stop offset="0.607" stop-color="#91AFC8"/>
<stop offset="1" stop-color="#C7DFF4"/>
</linearGradient>
<linearGradient id="paint15_linear_780_106" x1="94.4342" y1="27.4837" x2="104.714" y2="45.6114" gradientUnits="userSpaceOnUse">
<stop stop-color="#E1E8F5"/>
<stop offset="0.815" stop-color="#7F97B4"/>
<stop offset="0.904" stop-color="#476886"/>
<stop offset="1" stop-color="#002334"/>
</linearGradient>
<linearGradient id="paint16_linear_780_106" x1="103.749" y1="58.4579" x2="120.484" y2="28.9452" gradientUnits="userSpaceOnUse">
<stop stop-color="#8CA0B5"/>
<stop offset="0.14" stop-color="#E1E8F5"/>
<stop offset="0.815" stop-color="#7F97B4"/>
<stop offset="0.904" stop-color="#476886"/>
<stop offset="1" stop-color="#002334"/>
</linearGradient>
<linearGradient id="paint17_linear_780_106" x1="99.2022" y1="58.8034" x2="105.243" y2="55.2522" gradientUnits="userSpaceOnUse">
<stop stop-color="#002334"/>
<stop offset="0.815" stop-color="#A5B9CC"/>
<stop offset="0.888" stop-color="#002334"/>
<stop offset="1" stop-color="#002334"/>
</linearGradient>
<linearGradient id="paint18_linear_780_106" x1="16.284" y1="48.899" x2="35.8654" y2="68.8358" gradientUnits="userSpaceOnUse">
<stop stop-color="#D4BC7B"/>
<stop offset="0.332" stop-color="#7F5F39"/>
<stop offset="1" stop-color="#D4BC7B"/>
</linearGradient>
<linearGradient id="paint19_linear_780_106" x1="96.1012" y1="51.0216" x2="82.1146" y2="65.2621" gradientUnits="userSpaceOnUse">
<stop stop-color="#D4BC7B"/>
<stop offset="0.332" stop-color="#7F5F39"/>
<stop offset="1" stop-color="#D4BC7B"/>
</linearGradient>
<linearGradient id="paint20_linear_780_106" x1="105.078" y1="28.041" x2="82.4712" y2="51.0585" gradientUnits="userSpaceOnUse">
<stop stop-color="#D4BC7B"/>
<stop offset="0.332" stop-color="#7F5F39"/>
<stop offset="1" stop-color="#D4BC7B"/>
</linearGradient>
<linearGradient id="paint21_linear_780_106" x1="40.5513" y1="60.7143" x2="43.5583" y2="60.7143" gradientUnits="userSpaceOnUse">
<stop stop-color="#D3BD8B"/>
<stop offset="1" stop-color="#7F5F39"/>
</linearGradient>
<linearGradient id="paint22_linear_780_106" x1="79.1455" y1="60.6824" x2="76.1379" y2="60.6824" gradientUnits="userSpaceOnUse">
<stop stop-color="#D3BD8B"/>
<stop offset="1" stop-color="#7F5F39"/>
</linearGradient>
<linearGradient id="paint23_linear_780_106" x1="48.9115" y1="61.642" x2="54.3511" y2="71.2348" gradientUnits="userSpaceOnUse">
<stop stop-color="#7F5F39"/>
<stop offset="0.646" stop-color="#D3BD8B"/>
<stop offset="0.888" stop-color="#FFE4A6"/>
<stop offset="1" stop-color="#FFE4A6"/>
</linearGradient>
<linearGradient id="paint24_linear_780_106" x1="70.783" y1="61.6509" x2="64.8405" y2="72.1304" gradientUnits="userSpaceOnUse">
<stop stop-color="#7F5F39"/>
<stop offset="0.455" stop-color="#D3BD8B"/>
<stop offset="0.888" stop-color="#FFE4A6"/>
<stop offset="1" stop-color="#FFE4A6"/>
</linearGradient>
<linearGradient id="paint25_linear_780_106" x1="45.8819" y1="32.7985" x2="58.5564" y2="19.8938" gradientUnits="userSpaceOnUse">
<stop stop-color="#D4BC7B"/>
<stop offset="0.039" stop-color="#7F5F39"/>
<stop offset="0.107" stop-color="#D1AC75"/>
<stop offset="1" stop-color="#D4BC7B"/>
</linearGradient>
<linearGradient id="paint26_linear_780_106" x1="73.9034" y1="32.9738" x2="61.0075" y2="19.8437" gradientUnits="userSpaceOnUse">
<stop stop-color="#D4BC7B"/>
<stop offset="0.039" stop-color="#7F5F39"/>
<stop offset="0.107" stop-color="#D1AC75"/>
<stop offset="1" stop-color="#D4BC7B"/>
</linearGradient>
<linearGradient id="paint27_linear_780_106" x1="39.4502" y1="34.3767" x2="44.1691" y2="29.8964" gradientUnits="userSpaceOnUse">
<stop stop-color="#FFE292"/>
<stop offset="0.157" stop-color="#D1AC75"/>
<stop offset="1" stop-color="#FFE292"/>
</linearGradient>
<linearGradient id="paint28_linear_780_106" x1="80.4313" y1="34.3392" x2="75.512" y2="29.6685" gradientUnits="userSpaceOnUse">
<stop stop-color="#FFE292"/>
<stop offset="0.157" stop-color="#D1AC75"/>
<stop offset="1" stop-color="#FFE292"/>
</linearGradient>
<linearGradient id="paint29_linear_780_106" x1="23.0825" y1="42.9043" x2="37.7909" y2="27.9288" gradientUnits="userSpaceOnUse">
<stop stop-color="#7F5F39"/>
<stop offset="1" stop-color="#BD9B6A"/>
</linearGradient>
<linearGradient id="paint30_linear_780_106" x1="104.608" y1="44.9497" x2="110.865" y2="51.3211" gradientUnits="userSpaceOnUse">
<stop stop-color="#7F5F39"/>
<stop offset="1" stop-color="#D4BC7B"/>
</linearGradient>
<linearGradient id="paint31_linear_780_106" x1="103.047" y1="56.8428" x2="116.727" y2="30.0137" gradientUnits="userSpaceOnUse">
<stop stop-color="#A78A5E"/>
<stop offset="0.764" stop-color="#7F5F39"/>
<stop offset="0.916" stop-color="#674C2B"/>
<stop offset="1" stop-color="#674C2B"/>
</linearGradient>
<linearGradient id="paint32_linear_780_106" x1="94.1049" y1="61.4642" x2="54.9395" y2="13.9414" gradientUnits="userSpaceOnUse">
<stop stop-color="#FFEFCF"/>
<stop offset="0.461" stop-color="#FFE4A6"/>
<stop offset="1" stop-color="#BC956E"/>
</linearGradient>
<linearGradient id="paint33_linear_780_106" x1="5.29982" y1="55.0335" x2="18.8809" y2="41.2059" gradientUnits="userSpaceOnUse">
<stop stop-color="#7F5F39"/>
<stop offset="1" stop-color="#E9CF98"/>
</linearGradient>
<linearGradient id="paint34_linear_780_106" x1="3.45367" y1="54.384" x2="21.7243" y2="35.7817" gradientUnits="userSpaceOnUse">
<stop stop-color="#7F5F39"/>
<stop offset="1" stop-color="#E4CB90"/>
</linearGradient>
<clipPath id="clip0_780_106">
<rect width="114" height="44.9667" fill="white" transform="translate(3 23)"/>
</clipPath>
</defs>
</svg>
