<svg width="120" height="90" viewBox="0 0 120 90" fill="none" xmlns="http://www.w3.org/2000/svg">
<g clip-path="url(#clip0_723_4977)">
<path fill-rule="evenodd" clip-rule="evenodd" d="M100.354 51.3333V38H117.151C117.525 37.9999 117.895 38.0734 118.241 38.2165C118.586 38.3595 118.9 38.5692 119.165 38.8337C119.43 39.0981 119.64 39.412 119.783 39.7576C119.926 40.1031 120 40.4735 120 40.8476V48.4857C120 50.0571 118.724 51.3333 117.151 51.3333H100.354ZM115.311 40.4257H103.621V48.9076H115.311C116.096 48.9076 116.734 48.2714 116.734 47.4848V41.8476C116.734 41.061 116.096 40.4257 115.311 40.4257Z" fill="black"/>
<path d="M2.82572 38.019C2.07645 38.019 1.35787 38.3166 0.82797 38.8463C0.298072 39.3761 0.000252532 40.0945 0 40.8438L0 48.421C0.000505021 49.17 0.298467 49.8881 0.828364 50.4175C1.35826 50.9468 2.07671 51.2441 2.82572 51.2438H19.4867V48.8381H4.65238C3.87143 48.8381 3.24 48.2057 3.24 47.4267V45.7333H18.2933V43.3295H3.24V41.8362C3.24 41.0552 3.87143 40.4257 4.65238 40.4257H19.4857V38.019H2.82572ZM34.8524 42.98L28.6 38.1419H24.3619L32.7324 44.62L24.361 51.099H28.601L34.8524 46.261L41.1029 51.099H45.3429L36.9714 44.619L45.3429 38.1429H41.1029L34.8524 42.98ZM50.2181 40.8543C50.2186 40.1053 50.5166 39.3871 51.0465 38.8578C51.5764 38.3284 52.2948 38.0312 53.0438 38.0314H69.7038V40.4362H54.8686C54.0876 40.4362 53.4562 41.0676 53.4562 41.8476V43.339H68.5105V45.7448H53.4572V47.44C53.4572 48.2171 54.0895 48.8495 54.8695 48.8495H69.7048V51.2562H53.0448C52.2958 51.2564 51.5773 50.9592 51.0474 50.4298C50.5175 49.9005 50.2196 49.1823 50.2191 48.4333L50.2181 40.8543ZM78.1524 38.0419C77.7814 38.0416 77.4139 38.1145 77.0711 38.2563C76.7282 38.3981 76.4166 38.606 76.1541 38.8682C75.8916 39.1305 75.6834 39.4418 75.5412 39.7846C75.3991 40.1273 75.3259 40.4947 75.3258 40.8657V48.4438C75.3259 48.8148 75.3991 49.1822 75.5412 49.5249C75.6834 49.8677 75.8916 50.179 76.1541 50.4413C76.4166 50.7035 76.7282 50.9114 77.0711 51.0532C77.4139 51.195 77.7814 51.2679 78.1524 51.2676H94.8124V48.8629H79.9781C79.1972 48.8629 78.5648 48.2295 78.5648 47.4505V45.7571H93.6181V43.3495H78.5648V41.86C78.5648 41.079 79.1972 40.4476 79.9781 40.4476H94.8124V38.0419H78.1524Z" fill="black"/>
</g>
<defs>
<clipPath id="clip0_723_4977">
<rect width="120" height="90" fill="white"/>
</clipPath>
</defs>
</svg>
