<svg width="120" height="90" viewBox="0 0 120 90" fill="none" xmlns="http://www.w3.org/2000/svg">
<path d="M60.5 79.9186C90.0472 79.9186 114 64.4907 114 45.4593C114 26.428 90.0472 11 60.5 11C30.9528 11 7 26.428 7 45.4593C7 64.4907 30.9528 79.9186 60.5 79.9186Z" fill="url(#paint0_radial_781_1321)"/>
<path d="M60.5 79.9186C90.0472 79.9186 114 64.4907 114 45.4593C114 26.428 90.0472 11 60.5 11C30.9528 11 7 26.428 7 45.4593C7 64.4907 30.9528 79.9186 60.5 79.9186Z" stroke="#DEDDDB" stroke-width="0.851"/>
<path d="M52.2732 53.807L46.2024 56.5663L29.5072 56.6353L31.922 61.8785C31.922 61.8785 32.6808 63.3271 34.4054 63.1894H46.2024L52.2043 60.4988L52.2732 53.807ZM66.8987 64.3189C64.9327 63.9568 65.0878 62.094 65.0878 62.094V24.0645L59.8618 24.0126L52.3594 27.4794V31.2563C55.7225 29.4971 55.8259 32.4465 55.8259 32.4465L56.0329 62.3525C56.0329 64.3187 54.3256 64.3704 54.3256 64.3704L51.9973 64.3187L51.9456 67.4232H69.0717L69.02 64.4223L66.8987 64.3189ZM52.2043 44.3287H24.1953L26.5409 50.1504C27.4376 51.5993 28.3346 51.392 28.3346 51.392H52.2043V44.3287ZM24.8161 41.8719H52.4113V34.8084H20.6768L23.0224 40.6303C23.9194 42.0787 24.8161 41.8719 24.8161 41.8719ZM75.2289 35.1111V34.0246L68.6577 33.9727V42.0442L95.4595 41.8891C97.8915 41.734 97.9949 40.6473 97.9949 40.6473L100.323 35.2145L75.2289 35.1111ZM74.7115 53.9448L68.6577 54.0482V60.3088L74.6081 60.2571L78.4887 63.2063L87.181 63.2577C89.0953 62.999 89.147 61.8089 89.147 61.8089L91.5272 56.7904H78.5921L74.7115 53.9448ZM68.7096 51.2027L92.0447 51.1508C93.3899 51.2027 94.1145 50.0126 94.1145 50.0126L96.7015 44.5798L68.6579 44.4764L68.7096 51.2027ZM60.5 15.3463C33.4101 15.3463 11.4497 28.8284 11.4497 45.4593C11.4497 62.0902 33.4101 75.5723 60.5 75.5723C87.5899 75.5723 109.55 62.0902 109.55 45.4593C109.55 28.8284 87.5897 15.3463 60.5 15.3463ZM60.5 72.0541C35.908 72.0541 15.9719 60.1471 15.9719 45.4593C15.9719 30.7717 35.908 18.8647 60.5 18.8647C85.0924 18.8647 105.028 30.7717 105.028 45.4593C105.028 60.1471 85.0924 72.0541 60.5 72.0541Z" fill="url(#paint1_radial_781_1321)"/>
<defs>
<radialGradient id="paint0_radial_781_1321" cx="0" cy="0" r="1" gradientUnits="userSpaceOnUse" gradientTransform="translate(44.115 32.4206) scale(53.9761 53.9761)">
<stop stop-color="white"/>
<stop offset="0.0465" stop-color="#E9EDF5"/>
<stop offset="0.1969" stop-color="#A7B6D8"/>
<stop offset="0.3332" stop-color="#728BC1"/>
<stop offset="0.4509" stop-color="#4D6CB1"/>
<stop offset="0.5452" stop-color="#3559A7"/>
<stop offset="0.6044" stop-color="#2D52A3"/>
<stop offset="0.9341" stop-color="#1F3A86"/>
</radialGradient>
<radialGradient id="paint1_radial_781_1321" cx="0" cy="0" r="1" gradientUnits="userSpaceOnUse" gradientTransform="translate(60.5 45.4593) scale(40.6984)">
<stop offset="0.1455" stop-color="#FCFCFC"/>
<stop offset="0.5322" stop-color="#EFEFEF"/>
<stop offset="1" stop-color="#D9D9D9"/>
</radialGradient>
</defs>
</svg>
