<svg width="35" height="36" viewBox="0 0 35 36" fill="none" xmlns="http://www.w3.org/2000/svg">
<g clip-path="url(#clip0_5004_692)">
<path d="M9.9231 17.7398C15.0495 18.1212 20.0702 18.1167 25.1172 17.7422C25.0103 19.0996 24.9013 20.3733 24.8148 21.6485C24.7899 22.0164 24.6248 22.2 24.2589 22.2527C21.6291 22.6315 19.0071 23.1761 16.3312 22.9445C14.4456 22.7815 12.5709 22.4894 10.6959 22.2238C10.5308 22.2004 10.288 21.957 10.271 21.7966C10.1327 20.4849 10.0394 19.1686 9.9231 17.7398Z" fill="#1D252D"/>
<path d="M25.2149 17.1698C20.0484 17.6404 15.0019 17.6248 9.84619 17.1732C9.84619 15.7934 9.84619 14.409 9.84619 13C14.9492 13 20.0956 13 25.2149 13C25.2149 14.4222 25.2149 15.7755 25.2149 17.1698Z" fill="#1D252D"/>
<path d="M34.9829 16.4966C31.8957 16.7242 28.8576 16.9481 25.8313 17.1711C25.8313 15.7705 25.8313 14.4387 25.8313 13.029C26.1176 13.029 26.3226 13.0248 26.5273 13.0297C28.5249 13.0765 30.5225 13.1192 32.5198 13.1769C32.949 13.1893 33.3797 13.2376 33.8041 13.3037C34.4859 13.4101 34.9081 13.7941 34.9699 14.4708C35.0299 15.1288 34.9829 15.7963 34.9829 16.4966Z" fill="#1D252D"/>
<path d="M0.0173012 16.4938C0.0173012 15.8312 -0.0284029 15.2032 0.0287567 14.5843C0.102214 13.7883 0.573427 13.3446 1.41004 13.2886C2.95311 13.1852 4.4989 13.1119 6.04481 13.0607C7.05916 13.0271 8.07563 13.0544 9.13828 13.0544C9.19827 14.4264 9.25744 15.777 9.31897 17.1838C6.21487 16.9535 3.18139 16.7285 0.0173012 16.4938Z" fill="#1D252D"/>
<path d="M25.3101 22.0675C25.43 20.6726 25.5278 19.3792 25.6703 18.0906C25.6871 17.9376 25.9389 17.7015 26.098 17.688C27.8127 17.5429 29.5308 17.4384 31.2475 17.3152C32.453 17.2287 33.6577 17.1302 34.8915 17.0348C34.8118 18.6928 34.0415 19.8876 32.4845 20.3853C30.8047 20.9223 29.0625 21.2754 27.3422 21.6869C26.7015 21.8401 26.0453 21.9319 25.3101 22.0675Z" fill="#1D252D"/>
<path d="M0.15625 17.0437C2.72241 17.2354 5.27322 17.4258 7.82403 17.6167C7.88248 17.6211 7.94071 17.6302 7.99905 17.6361C8.44085 17.6806 9.01257 17.5796 9.28561 17.8129C9.52464 18.0172 9.44067 18.5961 9.47717 19.0113C9.56373 19.9976 9.63719 20.9849 9.72376 22.0698C8.68012 21.8684 7.69093 21.6988 6.71237 21.4832C5.53445 21.2236 4.35311 20.9661 3.19563 20.6334C1.40644 20.119 0.233959 19.0465 0.15625 17.0437Z" fill="#1D252D"/>
</g>
<defs>
<clipPath id="clip0_5004_692">
<rect width="35" height="35" fill="white" transform="translate(0 0.5)"/>
</clipPath>
</defs>
</svg>
