<svg width="35" height="36" viewBox="0 0 35 36" fill="none" xmlns="http://www.w3.org/2000/svg">
<path d="M2.89666 18.324C3.63889 18.133 4.40265 18.0351 5.18792 18.0303C5.21395 18.0303 5.23297 18.0209 5.24498 18.0021C5.55829 17.5092 5.89087 17.0245 6.24272 16.548C6.26524 16.518 6.29827 16.503 6.34181 16.503L8.17963 16.5024C8.18501 16.5024 8.1903 16.5035 8.19498 16.5056C8.19966 16.5077 8.20356 16.5108 8.2063 16.5145C8.20903 16.5182 8.2105 16.5224 8.21057 16.5267C8.21063 16.531 8.20928 16.5353 8.20666 16.539C7.69615 17.2565 7.25872 17.9705 6.89436 18.6808C6.60608 19.2433 6.31504 19.8387 6.02125 20.4669C6.01174 20.4869 5.99347 20.497 5.96644 20.497H4.07607L4.06954 20.4957L4.06438 20.4921L4.06162 20.487L4.06181 20.4813C4.27502 19.9108 4.52452 19.337 4.8103 18.76C4.82031 18.7392 4.81155 18.7286 4.78402 18.7282C4.16391 18.7218 3.63714 18.7763 3.20371 18.8916C2.88139 18.9772 2.63265 19.134 2.45747 19.3618C2.22024 19.6709 2.03881 20.0379 1.91318 20.4627C1.90668 20.4855 1.88866 20.497 1.85913 20.497H0.022814C0.0192509 20.497 0.0157284 20.4964 0.0125353 20.4951C0.00934217 20.4938 0.00656941 20.4919 0.00444475 20.4896C0.00232009 20.4872 0.000904065 20.4845 0.000312637 20.4816C-0.000278791 20.4787 -2.86951e-05 20.4757 0.00104249 20.4729C0.0801207 20.2639 0.161952 20.0523 0.246535 19.8381C0.701485 18.6922 1.34212 17.6019 2.16844 16.5673C2.2345 16.485 2.28856 16.5024 2.39516 16.5024C2.92819 16.504 3.48674 16.5032 4.07082 16.5C4.07519 16.5 4.07947 16.501 4.08322 16.5028C4.08698 16.5045 4.09009 16.5071 4.09222 16.5101C4.09435 16.5132 4.09544 16.5166 4.09538 16.5201C4.09531 16.5236 4.09409 16.527 4.09184 16.53C3.64039 17.1118 3.23524 17.7038 2.87639 18.306C2.86538 18.3244 2.87213 18.3304 2.89666 18.324Z" fill="#1D252D"/>
<path d="M18.3852 18.9744L18.3865 18.9767L18.389 18.9782L18.3921 18.9785L18.395 18.9774C19.4385 18.1839 20.4097 17.3698 21.3086 16.5354C21.3197 16.5252 21.3333 16.5171 21.3485 16.5115C21.3636 16.5059 21.38 16.503 21.3965 16.503L23.5361 16.5018C23.5408 16.5018 23.5453 16.5029 23.5492 16.505C23.5531 16.5071 23.5562 16.51 23.558 16.5135C23.5598 16.5169 23.5604 16.5207 23.5596 16.5244C23.5587 16.5281 23.5566 16.5315 23.5534 16.5342L18.7478 20.4663C18.736 20.476 18.7217 20.4837 18.706 20.489C18.6903 20.4942 18.6734 20.4969 18.6563 20.4969H16.7043C16.6893 20.4969 16.6811 20.4907 16.6796 20.4783L16.3087 16.5348C16.3083 16.5308 16.3089 16.5267 16.3106 16.5228C16.3122 16.519 16.3149 16.5154 16.3183 16.5124C16.3218 16.5094 16.326 16.5071 16.3307 16.5054C16.3353 16.5038 16.3404 16.503 16.3455 16.503H18.0587C18.0862 16.503 18.1012 16.514 18.1037 16.536L18.3852 18.9744Z" fill="#1D252D"/>
<path d="M31.5232 17.7402C31.3545 18.2299 31.1228 18.7612 30.828 19.3342C30.6794 19.6243 30.9331 19.7186 31.2409 19.7186C32.4636 19.7186 33.7081 19.7182 34.9744 19.7174C34.9793 19.7173 34.984 19.7184 34.9882 19.7205C34.9923 19.7225 34.9956 19.7256 34.9976 19.7292C34.9997 19.7328 35.0004 19.7368 34.9998 19.7408C34.9991 19.7448 34.9971 19.7485 34.9939 19.7516L34.2364 20.4717C34.2281 20.4796 34.2178 20.4859 34.2062 20.4903C34.1945 20.4947 34.1817 20.4969 34.1688 20.4969C32.817 20.4953 31.4561 20.4963 30.0863 20.4999C29.8075 20.5007 29.5778 20.4763 29.3971 20.4267C28.9309 20.2987 28.8408 19.9642 29.0142 19.6363C29.5733 18.5772 30.0042 17.541 30.307 16.5276C30.3092 16.5205 30.3142 16.5143 30.3213 16.5098C30.3284 16.5053 30.3371 16.5029 30.346 16.503L32.569 16.5018C32.6345 16.5018 32.6405 16.517 32.587 16.5474C32.081 16.8333 31.6936 17.2465 31.5232 17.7402Z" fill="#1D252D"/>
<path d="M12.0738 19.7228C11.326 19.7056 10.7299 19.7174 10.2855 19.7582C9.90461 19.7935 9.55876 19.927 9.24796 20.1588C9.12859 20.2477 9.03925 20.3708 8.9349 20.4747C8.91988 20.4895 8.90036 20.4969 8.87634 20.4969H7.07981C7.07578 20.497 7.0718 20.4961 7.06836 20.4944C7.06493 20.4928 7.06217 20.4903 7.06043 20.4874C7.05869 20.4845 7.05803 20.4812 7.05854 20.478C7.05905 20.4748 7.0607 20.4718 7.0633 20.4693C7.39262 20.145 7.7237 19.8197 8.05653 19.4934C8.85682 18.7094 9.76021 18.0189 10.7667 17.4219C11.2437 17.1388 11.6801 16.9368 12.076 16.8159C12.9889 16.536 14.0707 16.5006 15.064 16.5036C15.0681 16.5035 15.0722 16.5043 15.0759 16.5058C15.0796 16.5073 15.0827 16.5096 15.085 16.5123C15.0873 16.5151 15.0887 16.5183 15.0891 16.5216C15.0895 16.5249 15.0889 16.5282 15.0872 16.5312C14.3991 17.8285 13.8292 19.1396 13.3778 20.4645C13.3708 20.4861 13.3533 20.4969 13.3252 20.4969H11.8831C11.846 20.4969 11.833 20.4827 11.844 20.4543L12.1053 19.7582C12.1143 19.7354 12.1038 19.7236 12.0738 19.7228ZM12.4424 18.9871C12.6976 18.4339 12.9837 17.909 13.3065 17.3841C13.32 17.362 13.3112 17.3514 13.2802 17.3522C12.6293 17.3721 12.0963 17.5787 11.5985 17.9342C11.104 18.287 10.6741 18.6395 10.3088 18.9919C10.3063 18.9941 10.3047 18.9969 10.3042 18.9999C10.3037 19.0029 10.3042 19.0059 10.3058 19.0087C10.3074 19.0114 10.3099 19.0137 10.3131 19.0153C10.3163 19.0169 10.32 19.0177 10.3238 19.0177L12.3898 19.0159C12.4013 19.0159 12.4124 19.0131 12.4218 19.008C12.4312 19.0028 12.4384 18.9955 12.4424 18.9871Z" fill="#1D252D"/>
<path d="M25.9114 19.724C25.4329 19.7112 24.9662 19.7158 24.5113 19.7378C24.0353 19.7606 23.6164 19.8671 23.2545 20.0573C23.0526 20.1636 22.9032 20.3228 22.747 20.4705C22.7383 20.4788 22.7275 20.4855 22.7153 20.49C22.7031 20.4946 22.6898 20.4969 22.6765 20.4969L20.9062 20.4975C20.8126 20.4975 20.8046 20.4765 20.8822 20.4345C20.9247 20.4117 20.9663 20.3846 21.0068 20.3534C22.1124 19.5014 23.1792 18.6625 24.2072 17.8369C24.8228 17.342 25.452 16.906 26.2793 16.7162C27.1073 16.5264 27.9444 16.515 28.822 16.5012C28.8426 16.5008 28.8498 16.5086 28.8438 16.5246C28.3588 17.8531 27.7855 19.1708 27.1239 20.4777C27.121 20.4834 27.116 20.4882 27.1094 20.4916C27.1029 20.4951 27.0951 20.4969 27.0871 20.4969H25.5601C25.5557 20.497 25.5514 20.4961 25.5476 20.4944C25.5437 20.4928 25.5405 20.4903 25.5381 20.4873C25.5357 20.4844 25.5343 20.4809 25.5339 20.4774C25.5336 20.4738 25.5343 20.4702 25.536 20.4669L25.9272 19.7438C25.9283 19.7417 25.9287 19.7394 25.9284 19.7371C25.9282 19.7348 25.9272 19.7326 25.9257 19.7306C25.9241 19.7287 25.922 19.7271 25.9196 19.7259C25.9171 19.7248 25.9143 19.7241 25.9114 19.724ZM26.3393 18.9624L27.0503 17.3907C27.0628 17.363 27.0505 17.3504 27.0135 17.3528C26.4344 17.3897 25.9322 17.5789 25.5068 17.9204C25.0513 18.2856 24.6146 18.6443 24.1967 18.9967C24.1757 19.0143 24.1804 19.0229 24.211 19.0225C24.8691 19.0133 25.5433 19.0127 26.2335 19.0207C26.2865 19.0215 26.3218 19.0021 26.3393 18.9624Z" fill="#1D252D"/>
</svg>
