<svg width="35" height="36" viewBox="0 0 35 36" fill="none" xmlns="http://www.w3.org/2000/svg">
<g clip-path="url(#clip0_5004_134)">
<path d="M18.3038 9.25C18.8801 9.2809 19.9675 9.32991 21.0536 9.39945C22.7928 9.51081 24.5079 9.78088 26.2022 10.1744C27.3954 10.4516 28.5617 10.8147 29.6818 11.2993C30.6539 11.7199 31.5764 12.228 32.4145 12.8749C33.0089 13.3336 33.5478 13.8409 33.979 14.4463C34.5882 15.3017 34.9515 16.2387 34.9956 17.2926C35.031 18.1388 34.8542 18.926 34.4307 19.6604C34.1283 20.1847 33.7531 20.66 33.3326 21.1012C32.506 21.9683 31.5644 22.6971 30.5378 23.3319C29.2567 24.124 27.8822 24.7092 26.4424 25.1669C24.7721 25.6979 23.0589 26.0464 21.3221 26.2729C19.968 26.4495 18.6058 26.5821 17.2431 26.6793C15.6923 26.7899 14.1366 26.7744 12.5892 26.607C11.1921 26.4557 9.80754 26.2207 8.44917 25.8642C7.77546 25.6874 7.10199 25.5005 6.44626 25.2703C5.19101 24.8296 4.01104 24.2411 2.95664 23.4383C2.25972 22.9076 1.62914 22.3108 1.09747 21.6186C0.0938797 20.312 -0.254423 18.8738 0.190026 17.2886C0.417532 16.4772 0.871413 15.7798 1.44804 15.1553C2.34285 14.186 3.40693 13.4233 4.54968 12.7557C5.44581 12.2322 6.37967 11.7842 7.35012 11.4032C9.62129 10.5117 11.9828 9.95495 14.3943 9.57011C15.5202 9.39043 16.651 9.282 18.3038 9.25ZM26.0221 12.1161C25.7417 11.9935 25.4971 11.866 25.2384 11.7771C24.3564 11.4736 23.4304 11.3848 22.5091 11.2817C21.9625 11.2205 21.4143 11.1605 20.8651 11.1354C19.9701 11.0945 19.073 11.0496 18.1782 11.0694C17.5321 11.0837 16.889 11.2061 16.2434 11.2681C16.0172 11.2898 15.8243 11.3688 15.6558 11.5053C15.0808 11.9711 14.6508 12.5394 14.3757 13.2175C13.9929 14.1608 14.074 15.0506 14.7108 15.868C15.1116 16.3824 15.6513 16.6809 16.3228 16.6379C16.8133 16.6066 17.3043 16.5155 17.7836 16.4047C18.7953 16.1708 19.7876 15.8669 20.7309 15.4388C21.5919 15.048 22.4482 14.6438 23.2839 14.2051C24.2278 13.7094 25.05 13.0457 25.827 12.3308C25.8875 12.2751 25.9382 12.2091 26.0221 12.1161ZM9.60632 24.3937C9.7002 24.4261 9.74913 24.4454 9.79943 24.4599C10.579 24.6861 11.3787 24.8183 12.186 24.8879C13.1029 24.9668 14.0231 25.0142 14.9427 25.0591C15.9387 25.1078 16.9365 25.102 17.9261 24.9765C18.5498 24.8975 19.1683 24.7727 19.7837 24.6442C19.9201 24.6158 20.0706 24.5105 20.1518 24.398C20.6096 23.7643 20.9649 23.0773 21.1196 22.3139C21.2848 21.4987 21.2859 20.6913 20.8544 19.9325C20.5405 19.3803 19.8983 19.0544 19.3089 19.1633C19.0303 19.2147 18.7523 19.2711 18.4771 19.3372C17.2311 19.6366 16.0286 20.0506 14.8721 20.5953C14.1293 20.9452 13.4321 21.3661 12.7847 21.8547C11.7957 22.6011 10.835 23.3829 9.86382 24.1515C9.78132 24.2167 9.7102 24.2953 9.60632 24.3937ZM11.5154 11.9233C11.413 11.934 11.3638 11.9323 11.3187 11.9448C10.8609 12.0716 10.4018 12.1949 9.94676 12.3305C8.87438 12.65 7.83394 13.0499 6.85939 13.59C6.20121 13.9548 5.5634 14.3553 4.9266 14.755C3.96715 15.3571 3.20276 16.1444 2.62475 17.1003C2.15753 17.873 1.95449 18.692 2.16451 19.5842C2.357 20.402 2.76812 21.0928 3.39624 21.6724C4.0028 22.2321 4.69827 22.6574 5.43959 23.0224C5.55673 23.08 5.62081 23.0678 5.66212 22.9439C5.70771 22.8072 5.76349 22.6737 5.81084 22.5376C6.35665 20.9682 7.00849 19.4398 7.78319 17.9654C8.3629 16.8622 8.98989 15.7811 9.63166 14.7102C10.0562 14.0019 10.5424 13.328 11.0047 12.6411C11.1589 12.4122 11.3248 12.1905 11.5154 11.9233ZM24.4371 23.5332C24.5478 23.5201 24.6009 23.5179 24.6521 23.5071C24.9964 23.4351 25.3486 23.3862 25.6827 23.2828C26.4179 23.0552 27.1539 22.8241 27.8703 22.5477C28.4079 22.3403 28.9371 22.094 29.4299 21.8016C29.8475 21.5539 30.2187 21.2277 30.5906 20.9141C31.1652 20.4298 31.7105 19.914 32.0803 19.2575C32.2307 18.9903 32.3223 18.6919 32.4735 18.4252C32.7979 17.8532 32.8416 17.2401 32.7974 16.6111C32.7749 16.2911 32.7053 15.979 32.5191 15.7066C32.3182 15.4129 32.1191 15.1167 31.8965 14.8386C31.4149 14.2369 30.8556 13.7185 30.1424 13.3733C30.0094 13.3089 29.9391 13.3312 29.8851 13.4606C29.7599 13.7604 29.6351 14.0605 29.5004 14.3563C29.136 15.1566 28.7909 15.9663 28.3929 16.7507C27.856 17.8088 27.2979 18.8581 26.7094 19.89C26.1837 20.8121 25.607 21.707 25.0472 22.6107C24.8641 22.9064 24.6636 23.1919 24.4371 23.5332Z" fill="#1D252D"/>
</g>
<defs>
<clipPath id="clip0_5004_134">
<rect width="35" height="35" fill="white" transform="translate(0 0.5)"/>
</clipPath>
</defs>
</svg>
