<svg width="120" height="90" viewBox="0 0 120 90" fill="none" xmlns="http://www.w3.org/2000/svg">
<g clip-path="url(#clip0_723_4996)">
<path d="M113.038 39.6392C111.594 39.6392 110.148 39.5977 108.707 39.6551C107.867 39.6884 107.274 39.397 106.695 38.8067C103.449 35.4992 98.2182 35.1884 94.5749 38.0496C91.8146 40.2171 90.6065 43.7843 91.5111 47.0956C92.4342 50.4749 95.3737 53.0835 98.8195 53.5339C102.4 54.0017 105.329 52.8233 107.548 49.9605C107.959 49.4315 108.428 49.1711 109.113 49.1759C112.192 49.1977 115.271 49.1929 118.35 49.1781C118.974 49.1751 119.462 49.3435 119.803 49.8965C120.159 50.4747 119.984 50.9848 119.665 51.4955C118.196 53.8492 116.205 55.6667 113.853 57.0999C109.721 59.6181 105.189 60.7104 100.391 60.7368C95.4802 60.7637 90.836 59.6829 86.6105 57.1021C83.5508 55.2332 81.0496 52.805 79.7452 49.4011C77.7289 44.1389 79.111 39.5568 82.8897 35.6138C85.9817 32.3875 89.8801 30.5652 94.2028 29.6668C100.735 28.3092 107.035 28.971 112.976 32.147C115.324 33.4019 117.339 35.0727 118.957 37.2061C119.347 37.7213 119.533 38.2525 119.228 38.8568C118.927 39.4541 118.404 39.6518 117.752 39.6446C116.18 39.6273 114.609 39.6392 113.038 39.6392Z" fill="#CA2627"/>
<path d="M76.5261 59.673C75.4431 59.673 74.3602 59.6797 73.2772 59.6711C71.9925 59.6611 70.9956 59.1004 70.2775 58.046C69.8957 57.485 69.529 56.9135 69.1692 56.338C68.4086 55.1213 67.3241 54.5289 65.8824 54.5302C61.7416 54.534 57.6008 54.5184 53.46 54.5063C53.2069 54.5054 52.9469 54.5003 52.7016 54.4454C52.0887 54.3088 51.7733 53.8202 52.0321 53.2519C52.6026 51.9994 53.2077 50.7491 54.0353 49.6481C54.6342 48.8515 55.531 48.4901 56.5483 48.4907C58.3956 48.492 60.2433 48.4934 62.0906 48.4872C62.3433 48.4864 62.6104 48.485 62.8456 48.407C63.3926 48.2259 63.5354 47.6959 63.1717 47.0969C62.6217 46.1908 62.0325 45.3082 61.458 44.4171C60.6191 43.1157 59.7816 41.8135 58.9375 40.5155C58.2164 39.4067 57.4757 39.4151 56.7635 40.5489C53.1533 46.2954 49.5418 52.0409 45.9461 57.7963C45.1427 59.0821 44.0347 59.7058 42.5118 59.681C40.495 59.6485 38.4773 59.6749 36.4599 59.6722C35.0855 59.6703 34.7503 59.073 35.4558 57.8724C39.3127 51.3096 43.1723 44.7483 47.0314 38.1866C48.3751 35.902 49.7199 33.618 51.0633 31.3331C51.7556 30.1555 52.7729 29.5498 54.1496 29.5528C56.5703 29.5576 58.9913 29.5557 61.412 29.5536C62.7565 29.5525 63.7795 30.1277 64.4774 31.2699C69.918 40.1722 75.3562 49.0761 80.7923 57.9814C81.0242 58.3613 81.2881 58.7566 81.0185 59.2226C80.7535 59.681 80.2921 59.6746 79.8387 59.6738C78.7345 59.6714 77.6303 59.6732 76.5261 59.673Z" fill="#CA2627"/>
<path d="M34.4633 40.6702C34.4633 43.8553 34.4663 47.0407 34.462 50.2258C34.4604 51.443 34.3043 52.6409 33.9012 53.794C32.7004 57.2291 30.1444 59.0057 26.6813 59.6546C25.8459 59.8112 24.9995 59.8898 24.1484 59.8901C19.349 59.892 14.5487 59.9463 9.75035 59.872C6.37233 59.8199 3.52812 58.4934 1.41978 55.7888C0.464359 54.5633 0.0233735 53.1362 0.0166471 51.5802C0.011535 50.391 0.0279476 49.2015 0.000503739 48.0131C-0.00864423 47.6208 0.104898 47.5048 0.497453 47.5078C2.85467 47.5258 5.21215 47.5013 7.5691 47.5282C9.25232 47.5473 9.95806 48.2816 9.99708 49.9565C10.0517 52.3059 11.2043 53.6681 13.5274 53.8968C15.8954 54.1298 18.2819 54.1137 20.6518 53.8984C22.5922 53.7222 23.5866 52.6212 23.7653 50.6522C23.8132 50.1246 23.8124 49.5916 23.8121 49.061C23.8105 43.9436 23.8019 38.8258 23.8003 33.7083C23.7995 30.8208 24.7732 29.8527 27.668 29.8503C29.7279 29.8484 31.7881 29.8635 33.8477 29.8393C34.2986 29.8339 34.4612 29.9028 34.4569 30.4143C34.4291 33.8326 34.4423 37.2513 34.4423 40.6699C34.4493 40.6699 34.4563 40.6702 34.4633 40.6702Z" fill="#CA2627"/>
</g>
<defs>
<clipPath id="clip0_723_4996">
<rect width="120" height="90" fill="white"/>
</clipPath>
</defs>
</svg>
