<svg width="120" height="90" viewBox="0 0 120 90" fill="none" xmlns="http://www.w3.org/2000/svg">
<path d="M0.0347231 22.4427C1.12129 23.1671 7.359 26.5877 19.2308 33.0669C25.7099 36.6083 30.8611 39.5863 30.7001 39.7473C30.5391 39.868 28.8892 40.3912 26.9977 40.9144C25.1063 41.3973 23.4161 41.9204 23.2551 42.1217C23.0539 42.2826 26.0721 44.7375 29.8953 47.5947C40.7609 55.6434 47.1194 60.3116 49.8157 62.2835C51.1437 63.2494 53.84 65.2213 55.7717 66.6298C58.9107 68.9237 59.3533 69.1249 60.2387 68.7225C62.4118 67.7566 96.2162 42.8058 96.2162 42.2021C96.2162 42.0412 94.6065 41.4375 92.6748 40.9546C90.7029 40.4314 88.8919 39.9083 88.6907 39.7875C88.4493 39.6266 95.4113 35.6022 104.144 30.8535L120 22.2012L110.503 22.0805L100.965 22L90.6626 24.6561C84.9481 26.1048 75.6921 28.4792 70.0581 29.8877L59.796 32.423L39.3524 27.2316L18.9088 22L9.16995 22.0402C2.73102 22.0402 -0.36771 22.161 0.0347231 22.4427ZM24.1807 25.9438C32.8733 28.7206 51.9888 34.5962 55.49 35.6425C59.5143 36.7693 59.7155 36.8095 61.7277 36.2461C66.8788 34.7571 75.6116 32.1011 86.8395 28.5999C98.7515 24.8975 99.0735 24.817 102.937 24.817L106.881 24.8573L101.649 26.9902C96.8199 28.9621 81.3262 35.2803 73.9617 38.2583C72.2312 38.9827 70.7824 39.7071 70.7824 39.9485C70.7824 40.1497 72.6739 40.9144 74.9677 41.6387C77.2214 42.3631 79.3945 43.0875 79.7165 43.168C80.3604 43.3692 77.4628 45.0997 66.3557 51.0154L59.6753 54.5971L57.5022 53.43C48.8901 48.802 40.7609 44.335 40.1573 43.9326C39.3122 43.329 39.5134 43.2485 45.4694 41.3973C48.8096 40.3509 49.1718 40.1497 48.4072 39.7473C47.1999 39.1034 37.0988 34.8376 30.2172 32.0608C26.9977 30.773 21.7661 28.5999 18.5466 27.2316L12.7114 24.7768L17.1381 24.978C20.0759 25.0585 22.4502 25.4207 24.1807 25.9438Z" fill="#151515"/>
</svg>
