<svg width="120" height="90" viewBox="0 0 120 90" fill="none" xmlns="http://www.w3.org/2000/svg">
<g clip-path="url(#clip0_781_2217)">
<path d="M69.6173 56.0129C69.6173 56.2409 69.6892 56.3729 69.8212 56.3729C69.9292 56.3609 70.0251 56.3129 70.1092 56.2529L107.509 31.9793C108.141 31.5376 108.898 31.3104 109.669 31.3313H117.888C119.148 31.3313 120 32.1713 120 33.431V49.1256C120 51.0215 119.58 52.1253 117.9 53.1332L107.929 59.1326C107.83 59.2016 107.714 59.243 107.593 59.2526C107.473 59.2526 107.353 59.1565 107.353 58.8085V40.4983C107.353 40.2822 107.293 40.1383 107.149 40.1383C107.044 40.1504 106.944 40.192 106.861 40.2583L79.528 58.0168C78.9041 58.4366 78.1721 58.6646 77.4282 58.6526H59.31C58.0381 58.6526 57.1981 57.8126 57.1981 56.5409V33.9228C57.1981 33.755 57.1261 33.5989 56.982 33.5989C56.877 33.6122 56.7775 33.6537 56.6942 33.7189L38.6598 44.5417C38.4801 44.6617 38.432 44.7459 38.432 44.8298C38.432 44.9017 38.4679 44.9737 38.5879 45.1056L51.4747 57.9805C51.6425 58.1483 51.7627 58.2805 51.7627 58.4244C51.7627 58.5444 51.5708 58.6405 51.3427 58.6405H39.7037C38.792 58.6405 38.084 58.5085 37.592 58.0166L29.7806 50.2173C29.751 50.1819 29.7145 50.153 29.6732 50.1324C29.632 50.1117 29.5869 50.0998 29.5409 50.0973C29.4562 50.1012 29.3737 50.1259 29.3009 50.1693L16.2465 58.0168C15.4545 58.4966 14.9146 58.6287 14.1346 58.6287H2.1241C0.839977 58.6407 -1.52588e-05 57.7887 -1.52588e-05 56.5288V41.1344C-1.52588e-05 39.2264 0.419981 38.1345 2.11169 37.1266L12.1429 31.1033C12.2215 31.0518 12.3128 31.0227 12.4068 31.0193C12.5629 31.0193 12.6468 31.1754 12.6468 31.5233V52.1373C12.6468 52.3534 12.6948 52.4493 12.8507 52.4493C12.9587 52.4373 13.0548 52.3893 13.1507 52.3293L47.0354 31.9432C47.6832 31.4993 48.4752 31.2835 49.2671 31.3193H67.5053C68.7651 31.3193 69.6173 32.1593 69.6173 33.4191L69.6051 56.0129H69.6173Z" fill="#CC2229"/>
</g>
<defs>
<clipPath id="clip0_781_2217">
<rect width="120" height="28.272" fill="white" transform="translate(0 31)"/>
</clipPath>
</defs>
</svg>
