<svg width="120" height="90" viewBox="0 0 120 90" fill="none" xmlns="http://www.w3.org/2000/svg">
<path fill-rule="evenodd" clip-rule="evenodd" d="M0 45.0003C0 31.7451 26.8621 21 60 21C93.1372 21 120 31.7451 120 45.0003C120 58.2554 93.1372 69.0005 60 69.0005C26.8628 69.0005 0 58.2561 0 45.0003ZM73.3822 47.1017C73.3741 47.0623 73.3542 47.0263 73.3252 46.9983C73.2961 46.9704 73.2593 46.9519 73.2196 46.9453C71.4928 46.693 69.7585 46.495 68.0192 46.3516C67.9167 46.3339 67.8443 46.2389 67.912 46.0141C73.4574 40.179 75.5636 32.7542 72.7598 26.9451C72.763 26.9186 72.7713 26.893 72.7843 26.8698C72.7973 26.8465 72.8148 26.826 72.8358 26.8096C72.8567 26.7931 72.8807 26.7808 72.9063 26.7736C72.932 26.7664 72.9588 26.7643 72.9853 26.7674C92.068 29.0821 106.001 36.3696 106.001 45.0003C106.001 55.494 85.4063 64.001 60.0007 64.001C34.5951 64.001 13.9998 55.4947 13.9998 45.0003C13.9998 35.9037 29.4787 28.2991 50.1519 26.4361C50.2523 26.4395 50.337 26.5167 50.3425 26.6752L45.854 51.3915C45.7701 51.8257 45.7833 52.2732 45.8925 52.7018C46.0018 53.1304 46.2045 53.5296 46.486 53.8707C46.7676 54.2118 47.1211 54.4864 47.5212 54.6749C47.9214 54.8635 48.3582 54.9612 48.8006 54.9611L48.9611 54.9693C52.9646 54.7609 57.2666 53.5114 61.3302 51.1653C62.4817 50.5005 63.59 49.7635 64.6484 48.9586C64.6788 48.9337 64.716 48.9183 64.7552 48.9145C64.7943 48.9108 64.8338 48.9187 64.8684 48.9375C66.2218 49.8386 67.0006 50.8934 67.0006 52.022C67.0006 53.5551 65.5632 54.9536 63.1987 56.0146C60.4516 57.247 56.4529 58.0218 52.0006 58.0218C48.2274 58.0218 44.78 57.465 42.1053 56.5358C42.0795 56.5312 42.0529 56.5318 42.0272 56.5375C42.0015 56.5432 41.9772 56.5539 41.9557 56.569C41.9342 56.5841 41.9159 56.6033 41.9018 56.6255C41.8877 56.6477 41.8782 56.6725 41.8737 56.6984L41.4925 58.7938C41.4861 58.8436 41.4986 58.8941 41.5275 58.9352C41.5565 58.9764 41.5998 59.0051 41.649 59.0158C47.0892 60.2817 53.3458 61.0018 60.0048 61.0018C68.2884 61.0018 75.0055 58.3149 75.0055 55.0021C75.0055 53.7129 73.9903 52.5194 72.2632 51.5424C70.7499 50.8005 69.7969 49.8386 70.0305 49.1937C70.273 48.5248 71.7207 48.4176 73.4403 48.8808C73.538 48.8937 73.6323 48.835 73.6671 48.6601L73.3822 47.1017ZM60 31.974C60 32.1038 59.9959 32.2329 59.9877 32.3593C60.2063 36.7638 57.4831 42.6563 52.5075 47.6319C51.5198 48.6213 50.4679 49.5445 49.3587 50.3954C49.315 50.4234 49.2619 50.433 49.2111 50.422C49.1073 50.4002 49.0397 50.3011 49.0581 50.1795L53.9347 23.3358C53.932 23.2862 53.9111 23.2393 53.8759 23.2042C53.8407 23.1691 53.7937 23.1483 53.7441 23.1459C26.8676 24.4098 5.99973 33.712 5.99973 45.0003C5.99973 57.1507 30.1763 67.0002 60 67.0002C89.8244 67.0002 114.001 57.1507 114.001 45.0003C114.001 32.8498 89.8251 23.0004 60 23.0004C59.0552 23.0004 58.1151 23.0106 57.1723 23.0304C57.1276 23.0306 57.0843 23.0457 57.0491 23.0733C57.014 23.1009 56.9891 23.1394 56.9783 23.1828L56.4078 26.3152C56.3942 26.3992 56.4338 26.4791 56.5035 26.5208C57.5471 26.9997 58.4313 27.7682 59.0512 28.7348C59.671 29.7015 60.0003 30.8257 60 31.974Z" fill="#005AA1"/>
</svg>
