<svg width="120" height="90" viewBox="0 0 120 90" fill="none" xmlns="http://www.w3.org/2000/svg">
<g clip-path="url(#clip0_781_3076)">
<path d="M50.6667 6.5C32.9 9.4 18.6 18.8 12.8333 31.4667C10.5 36.6 10.1667 38.2 10.1667 44.6667C10.1667 49.8333 10.2667 50.7667 10.9667 53C15.7667 68.4667 30.6667 79.6667 50.6333 82.8333C52.6333 83.1333 55.8333 83.2667 61.1667 83.1667C67.8667 83.0667 69.3333 82.9667 72.7333 82.2333C90.3 78.4 103.067 68.7 108.3 55.1333C110 50.7333 110.5 43.4667 109.467 38.4C108.833 35.2667 107.167 31.1667 105.3 28.1C99.0333 17.7667 86.6667 9.9 72.1333 6.96667C67.5 6.03334 55.1667 5.76667 50.6667 6.5ZM67.3333 10.7C75.6 11.8333 84.4 15.7333 90.1667 20.8L91.5 21.9667L87.9667 22H84.4333L77.5667 39.2333C73.7667 48.7333 70.6 56.7667 70.4667 57.0667C70.2667 57.6333 70.8333 57.6667 78.9667 57.6667H87.7L88.3 56.2333C88.6333 55.4667 89 54.5 89.1333 54.0667L89.3667 53.3333H82.7C77.2667 53.3333 76.0667 53.2333 76.2 52.9C76.3 52.6333 77.1333 52.2 78.1 51.9C81.8 50.7333 86.5667 47.1667 89.1333 43.6667C89.9333 42.5333 91.7667 38.8667 93.5 34.8333C96.8333 27.0667 96.4667 27.3333 98.4667 31.3333C100.6 35.5667 101.667 39.9667 101.667 44.6667C101.667 67.1667 76.3667 83.5 49.8333 78.1333C43.1333 76.8 35.5667 73.3 30.9 69.4333L29.9333 68.6667H38.6H47.2667L47.8667 67.0667C48.1667 66.2 48.6333 65 48.8667 64.4C49.2333 63.5 49.2333 63.2667 48.9 63.1333C48.6667 63.0667 44.7 63.0333 40.1 63.0667L31.7667 63.1667L32.1 62.4C32.3 62 32.6667 61.6667 32.9667 61.6667C33.7667 61.6667 38.3 59.6 40.6667 58.1667C43.2667 56.6 48.1 51.8333 49.8333 49.1667C50.5667 48.0667 52.3333 44.4667 53.7667 41.1667C57.1333 33.5333 61.6667 22.6667 61.6667 22.2667C61.6667 22.1333 57.4333 22.0333 52.2667 22.0667L42.8667 22.1667L34.4667 43.3C29.8333 54.9 25.9667 64.4667 25.9 64.5333C25.7 64.7667 23.2667 61.2667 21.9667 58.8333C20.3667 55.8667 19.1667 52.5333 18.6333 49.5333C18.1 46.3 18.4333 39.8 19.3 36.8333C24.6 18.8667 45.2333 7.63334 67.3333 10.7Z" fill="#EC1515"/>
<path d="M64.7333 22.4C64.4333 22.8 48.6666 62.1 48.6666 62.5C48.6666 62.6 53.1333 62.6667 58.6 62.6667H68.5333L69.3333 60.5333C69.7666 59.3333 70.1 58.3 70.0666 58.1667C70.0333 58.0333 66.6333 57.9667 62.5333 58C55.3333 58.0333 55.0666 58 55.2333 57.4C55.3333 56.9667 56.0333 56.5667 57.4 56.1333C60.7333 55.1333 64.2 52.8667 67.5 49.5333C69.1666 47.8667 70.9333 45.6667 71.5 44.6667C72.8666 42.1 81.2666 22.3667 81.0666 22.1667C80.9666 22.0667 77.3333 22 73 22C67.0666 22 65 22.1 64.7333 22.4Z" fill="#EC1515"/>
</g>
<defs>
<clipPath id="clip0_781_3076">
<rect width="100" height="77.3333" fill="white" transform="translate(10 6)"/>
</clipPath>
</defs>
</svg>
