<svg width="120" height="90" viewBox="0 0 120 90" fill="none" xmlns="http://www.w3.org/2000/svg">
<path d="M58.2141 2.08099C57.6629 3.32121 53.4599 12.4161 48.7747 22.2689C38.164 44.9372 38.2329 44.5927 43.4004 55.9613C45.3985 60.3709 47.3967 63.9538 47.8101 63.9538C48.2924 63.9538 49.8771 61.2666 51.4618 57.8905C52.9776 54.5833 57.3873 45.075 61.2457 36.738C65.1041 28.401 68.4114 20.6153 68.5492 19.5129C68.7559 18.0659 67.7224 14.9654 64.8974 8.90216C62.6926 4.21691 60.4878 0.220676 60.0055 0.0139744C59.5232 -0.123827 58.6964 0.771881 58.2141 2.08099Z" fill="#151515"/>
<path d="M68.8937 31.0193C67.4468 34.1887 63.7951 41.9745 60.7634 48.4511C53.6667 63.4715 50.9106 69.8103 50.9106 70.9127C50.9106 72.4974 59.3854 90.2049 60.0055 89.9982C60.35 89.8604 64.8975 80.7655 70.065 69.8103C79.3666 50.1047 79.5044 49.7602 79.5044 45.0061C79.5044 40.5964 79.2288 39.5629 75.9216 32.7418C73.9924 28.6766 72.132 25.3694 71.9253 25.3694C71.7186 25.3694 70.3406 27.9187 68.8937 31.0193Z" fill="#151515"/>
</svg>
