<svg width="60" height="60" viewBox="0 0 60 60" fill="none" xmlns="http://www.w3.org/2000/svg">
<path d="M30.1307 54.2334C25.4928 54.1142 20.9047 53.7392 16.44 52.4025C12.753 51.2986 9.38226 49.6236 6.60491 46.8956C3.66034 44.0034 1.9248 40.4635 1.13226 36.4531C0.150108 31.4838 0.216436 26.5265 1.68198 21.6558C3.58253 15.3394 7.82577 11.1855 13.8798 8.77822C17.2727 7.42904 20.8193 6.76599 24.4401 6.43212C27.8447 6.11818 31.2534 6.09591 34.6594 6.33544C39.6472 6.68619 44.5048 7.60482 48.9812 9.97189C54.9525 13.1294 58.3491 18.1222 59.4085 24.749C60.1118 29.1475 60.0374 33.5282 58.8886 37.8462C57.1283 44.463 52.8964 48.8865 46.6214 51.4463C43.48 52.7279 40.1973 53.4501 36.8337 53.778C34.6056 53.995 32.3654 54.0859 30.1307 54.2334ZM8.28456 25.8872C8.20569 26.2948 8.09894 26.6693 8.06495 27.0504C7.78827 30.1532 7.89292 33.2412 8.54495 36.293C9.23917 39.5419 10.6028 42.4512 13.0466 44.7749C15.189 46.8121 17.7737 48.0288 20.6012 48.7714C24.4482 49.7818 28.3765 49.8867 32.3196 49.7689C35.2488 49.6815 38.1417 49.3346 40.945 48.4264C46.0152 46.7838 49.5548 43.5657 51.2606 38.4404C52.2017 35.6127 52.4911 32.6991 52.4426 29.7439C52.4187 28.2895 52.3003 26.8367 52.2197 25.2861C51.8433 25.4049 51.6058 25.4718 51.3739 25.5543C48.0401 26.7405 44.7112 27.9413 41.3719 29.1119C39.2164 29.8675 37.2409 30.92 35.5322 32.4506C33.3138 34.4376 31.7938 36.916 30.5112 39.5629C30.4008 39.7906 30.2794 40.0129 30.1324 40.2971C29.7729 39.5965 29.4641 38.9906 29.1514 38.3866C27.1035 34.4304 24.1227 31.4417 19.9123 29.8813C16.1031 28.4696 12.2284 27.2341 8.28456 25.8872ZM30.1915 32.5885C30.1528 32.6236 30.1909 32.6029 30.2084 32.5708C30.3009 32.4004 30.3913 32.2287 30.4769 32.0549C32.2888 28.3819 34.9404 25.4885 38.5803 23.5911C40.5258 22.577 42.5669 21.7472 44.5628 20.8295C46.2362 20.0601 47.9065 19.2836 49.6307 18.4859C49.4562 18.1839 49.3624 17.9945 49.2443 17.8218C48.3902 16.5733 47.362 15.4897 46.1545 14.5771C43.1557 12.3111 39.6816 11.3292 36.026 10.8733C31.8287 10.3498 27.6284 10.3658 23.443 10.9985C20.2755 11.4772 17.2607 12.4079 14.6065 14.2778C12.8818 15.4929 11.4547 16.9823 10.4311 18.932C11.0538 19.2558 11.6207 19.595 12.2217 19.8552C14.6121 20.8905 17.0191 21.8875 19.4088 22.9243C22.4651 24.2502 25.2389 26.0006 27.3573 28.6179C28.3806 29.8819 29.2551 31.2664 30.1915 32.5885Z" fill="white"/>
</svg>
