<svg width="120" height="90" viewBox="0 0 120 90" fill="none" xmlns="http://www.w3.org/2000/svg">
<path d="M52.2049 9.78749C44.049 11.7474 35.1345 18.0698 30.4559 25.1508C28.4328 28.1856 25.0819 36.3414 25.4613 37.2898C25.5245 37.6059 27.2948 37.1001 29.3179 36.1517C32.4159 34.6976 33.3642 33.8125 35.3874 30.4616C38.4221 25.5934 40.5085 23.3173 44.6813 20.5355C49.2334 17.5008 52.6474 16.426 58.8433 16.0466C66.8727 15.5408 74.6492 17.9433 79.5175 22.369C81.2245 23.8864 89.8229 24.8347 89.8229 23.4438C89.8229 23.0012 88.1159 21.0413 86.0295 18.9549C81.9832 15.0351 74.3331 10.7991 68.9591 9.59782C65.1657 8.71269 56.1247 8.83914 52.2049 9.78749Z" fill="#004C9B"/>
<path d="M71.4881 25.0876C61.6252 26.3521 51.8255 28.6914 40.8246 32.4215C35.3874 34.255 33.4275 35.0769 25.3348 38.8704C17.2422 42.6005 7 49.6184 7 51.3886C7 52.9692 21.0989 57.2052 32.0998 58.849C40.0027 60.0503 40.1292 59.8606 35.0081 54.5498C30.5824 49.9977 30.5824 49.9977 27.1683 49.9977C22.7427 49.9977 18.9493 49.3655 19.3918 48.67C19.7712 48.0378 27.8006 44.1811 32.4791 42.4109C34.2494 41.6522 36.3358 40.8303 37.0312 40.5142C41.2672 38.6175 54.4809 35.646 62.3207 34.7608C68.7695 34.0654 78.6956 34.255 79.5175 35.0769C79.8968 35.4563 78.1898 38.3646 76.6092 39.8819C75.7873 40.7038 76.1034 40.8935 79.7704 41.2096C81.9832 41.4625 88.2423 41.6522 93.6163 41.6522L103.416 41.7154L108.474 36.0253C111.256 32.9273 113.595 29.8926 113.721 29.1971C113.974 27.743 113.595 27.6166 105.945 26.2256C100.444 25.2141 76.7989 24.4554 71.4881 25.0876Z" fill="#004C9B"/>
<path d="M50.0553 43.1063C45.4399 43.3592 41.4568 43.8018 41.2672 43.9915C41.0775 44.1811 41.3936 44.8134 41.9626 45.4456C42.9742 46.394 44.4916 46.5204 57.0731 46.2675L71.1087 46.0778L68.9591 48.4803L66.8095 50.9461L72.1835 51.3886C75.0918 51.5783 80.529 51.8312 84.2592 51.9576L91.0242 52.0841L95.5763 48.4171C98.8007 45.8249 99.8755 44.6237 99.2432 44.3076C98.1684 43.6753 72.4364 42.3476 64.4702 42.4741C61.1826 42.5373 54.7338 42.8534 50.0553 43.1063Z" fill="#004C9B"/>
<path d="M27.4213 45.1295C25.3981 46.0779 24.7026 46.8365 24.7026 47.9113C24.7026 49.239 24.9555 49.3655 28.1799 49.3655H31.6572V46.5204C31.6572 43.2328 31.2779 43.1063 27.4213 45.1295Z" fill="#004C9B"/>
<path d="M92.7944 51.3886C90.0126 53.2853 88.8114 54.613 87.863 56.8258C86.0295 61.0618 82.6787 65.2978 78.7588 68.3325C74.3332 71.7466 66.0509 74.6549 60.8033 74.6549C56.3144 74.6549 48.7276 72.2524 44.8077 69.6602C41.8362 67.6371 36.0829 61.8205 36.0829 60.8089C36.0829 60.2399 34.9448 59.9238 29.887 59.1651L27.2316 58.7226L27.9903 60.556C28.3696 61.5044 29.9502 64.0333 31.4043 66.1829C33.7436 69.4706 35.3874 71.2408 39.7498 74.7181C41.5833 76.2355 49.2334 79.7128 52.2049 80.345C56.6938 81.3566 66.1141 81.2302 70.4133 80.0921C80.1497 77.4367 89.2539 69.9131 93.3002 61.2515C95.5763 56.2568 97.0304 51.3886 96.6511 49.808C96.5246 49.1126 95.5763 49.4919 92.7944 51.3886Z" fill="#004C9B"/>
<path d="M62.0677 56.1304C52.5842 66.9416 65.7979 67.0681 83.6902 56.4465L87.5469 54.1072L79.0749 53.3485C64.7231 52.1473 65.7347 51.9576 62.0677 56.1304Z" fill="#004C9B"/>
</svg>
