<svg width="35" height="36" viewBox="0 0 35 36" fill="none" xmlns="http://www.w3.org/2000/svg">
<path d="M35 18.019C34.9444 27.8041 27.0814 35.5608 17.2801 35.4996C7.68386 35.4397 -0.0735361 27.5052 0.000525938 17.8054C0.0711432 8.56446 7.49862 0.383339 17.7069 0.501259C27.6582 0.616165 34.9782 8.64465 35 18.019ZM34.5694 17.9883C34.5407 8.53112 26.8986 0.894557 17.4817 0.916349C7.87194 0.938572 0.270077 8.81305 0.414584 18.271C0.555388 27.4836 8.09611 35.1196 17.5923 35.0844C26.9606 35.0497 34.5978 27.3692 34.5694 17.9883Z" fill="#1D252D"/>
<path d="M33.3415 18.004C33.341 26.7797 26.2426 33.8645 17.4594 33.8561C8.72185 33.8476 1.62567 26.7251 1.63807 17.9761C1.65039 9.21935 8.7457 2.1468 17.5081 2.15688C26.2811 2.16713 33.342 9.23408 33.3415 18.004ZM17.4874 32.4818C25.4661 32.4849 31.9508 26.0137 31.9588 18.0401C31.9669 10.0126 25.5347 3.54841 17.5223 3.53187C9.52215 3.51542 3.01847 9.99285 3.01209 17.9835C3.00564 25.972 9.50199 32.4787 17.4874 32.4818Z" fill="#1D252D"/>
<path d="M12.5506 13.3716C12.1924 13.0625 11.903 12.7651 11.5684 12.5325C10.4038 11.7231 9.22969 10.9269 8.04625 10.1453C7.59869 9.8497 7.57371 9.82075 7.92792 9.41118C8.73252 8.48108 9.6738 7.71929 10.7095 7.05596C11.1648 6.76439 11.5217 6.78006 11.9711 7.04889C13.4177 7.91422 14.7707 8.89763 15.9978 10.0552C16.4218 10.4551 16.8883 10.7821 17.6691 10.6901C17.0203 9.85943 16.4627 9.06336 15.819 8.34447C15.1987 7.65167 14.4845 7.04347 13.8238 6.3859C13.7015 6.26419 13.5433 6.06212 13.5725 5.93705C13.6021 5.80991 13.8301 5.68708 13.9935 5.63988C15.4109 5.23073 16.8587 5.04287 18.3315 5.17173C18.6248 5.1974 18.9567 5.32583 19.181 5.51403C21.8271 7.73411 23.3921 10.5962 23.9868 13.9692C24.371 16.1481 24.2774 18.3438 23.806 20.5118C23.5933 21.4903 23.3382 22.4595 23.1113 23.435C22.9886 23.9628 23.2295 24.2375 23.7511 24.227C24.1112 24.2197 24.1701 23.9997 24.1827 23.7161C24.2171 22.95 24.2505 22.9252 25.0257 23.0967C26.2857 23.3752 27.3938 23.9515 28.3528 24.8123C28.6966 25.121 28.6946 25.3101 28.3483 25.6232C27.3228 26.5505 26.1213 27.1291 24.7689 27.3943C24.3041 27.4855 24.1875 27.3724 24.182 26.8825C24.1749 26.2581 24.1444 26.2265 23.5235 26.2264C19.7633 26.226 16.003 26.2183 12.2428 26.2392C11.8932 26.2412 11.5327 26.3969 11.198 26.5324C10.6262 26.7639 10.1908 27.308 9.4871 27.2464C9.14529 27.2165 8.79772 27.2255 8.45453 27.2462C8.17758 27.2628 8.01714 27.1544 7.85782 26.9287C7.15543 25.934 6.41929 24.963 5.72147 23.9652C5.59006 23.7773 5.47879 23.4726 5.54243 23.284C5.591 23.1401 5.92911 23.0224 6.14139 23.0174C7.24586 22.9914 8.35145 22.998 9.45635 23.0116C9.6633 23.0142 9.8829 23.0691 10.073 23.1532C10.7548 23.4544 11.4163 23.8038 12.1075 24.0796C12.3415 24.173 12.7042 24.1988 12.8911 24.0764C13.0481 23.9737 13.1194 23.5987 13.0848 23.3655C12.6477 20.4234 10.9372 18.4882 8.22219 17.4248C7.32121 17.0719 6.35668 16.8762 5.4142 16.636C4.87209 16.4979 4.73524 16.343 4.83049 15.7946C5.05741 14.488 5.46493 13.2435 6.08033 12.064C6.29149 11.6593 6.56785 11.5107 6.98544 11.6686C8.2835 12.1594 9.57425 12.6698 10.8753 13.1522C11.298 13.3089 11.7413 13.4133 12.1811 13.5169C12.2668 13.5371 12.3795 13.4426 12.5506 13.3716ZM18.223 21.1139C18.2242 22.013 18.9292 22.7321 19.8181 22.7408C20.7123 22.7496 21.4567 22.0017 21.4529 21.0982C21.4492 20.2044 20.7373 19.489 19.846 19.4835C18.9252 19.4777 18.2217 20.1844 18.223 21.1139Z" fill="#1D252D"/>
</svg>
