<svg width="120" height="90" viewBox="0 0 120 90" fill="none" xmlns="http://www.w3.org/2000/svg">
<path fill-rule="evenodd" clip-rule="evenodd" d="M60.0162 5C82.0406 5 99.9995 22.9599 99.9995 45.0162C99.9995 67.0071 82.0401 85 60.0162 85C37.9924 85 20 67.0071 20 45.0162C19.9995 22.9594 37.9924 5 60.0162 5Z" fill="#295CA7"/>
<path fill-rule="evenodd" clip-rule="evenodd" d="M60.0162 10.0798C79.2213 10.0798 94.9207 25.7782 94.9207 45.0167C94.9207 64.2223 79.2218 79.8877 60.0162 79.8877C40.8107 79.8877 25.1128 64.2218 25.1128 45.0162C25.1128 25.7782 40.8107 10.0798 60.0162 10.0798ZM36.6484 26.237L49.1681 58.7156L53.7562 46.8515H65.7841L70.3716 58.7156L83.0226 25.8436C80.7903 23.1504 78.1064 20.866 75.091 19.0928L66.3083 43.2793H53.9194L45.1042 18.9939C41.8596 20.8621 39.0084 23.3204 36.6484 26.237ZM88.0705 34.3977L73.8135 71.5957C83.384 66.5812 89.9706 56.5528 89.9706 45.0167C89.9706 41.2803 89.3156 37.7077 88.0705 34.3977ZM67.5863 74.0205L67.489 73.2667L59.7536 53.2094L52.0193 73.2667L51.9868 73.8897C54.543 74.6101 57.2304 74.9711 60.0162 74.9711C62.6378 74.9711 65.1615 74.6436 67.5863 74.0205ZM45.6284 71.2677L31.7329 35.0532C30.6185 38.1665 30.0284 41.5095 30.0284 45.0162C30.0284 56.2902 36.3209 66.1873 45.6284 71.2677ZM60.0162 15.0284C62.6378 15.0284 65.2269 15.3564 67.6852 16.0114L60.1146 36.9539L52.5111 15.979C54.9623 15.3447 57.4843 15.0253 60.0162 15.0284Z" fill="white"/>
</svg>
